<?xml version="1.0" standalone="no"?>
<!DOCTYPE svg PUBLIC "-//W3C//DTD SVG 1.1//EN" "http://www.w3.org/Graphics/SVG/1.1/DTD/svg11.dtd" >
<svg xmlns="http://www.w3.org/2000/svg" xmlns:xlink="http://www.w3.org/1999/xlink" version="1.1">
<metadata>
Created by FontForge 20170731 at Tue Jul  5 10:33:45 2022
 By Aleksey,,,
Copyright 2020 Dinamo (Johannes Breyer, Fabian Harb). All rights reserved.
</metadata>
<defs>
<font id="ABCFavorit-Medium" horiz-adv-x="1228" >
  <font-face 
    font-family="ABC Favorit Medium"
    font-weight="500"
    font-stretch="normal"
    units-per-em="2048"
    panose-1="2 11 6 4 3 2 2 6 2 3"
    ascent="1597"
    descent="-451"
    x-height="1024"
    cap-height="1434"
    bbox="-344 -612 4440 1925"
    underline-thickness="102"
    underline-position="-307"
    unicode-range="U+0020-FB02"
  />
<missing-glyph horiz-adv-x="1282" 
d="M1176 0h-1024v1434h1024v-1434zM340 1245v-1057h647v1057h-647z" />
    <glyph glyph-name="fi" unicode="fi" horiz-adv-x="1327" 
d="M496 0h-236v829h-215v195h215v166q0 120 62.5 182t183.5 62h289v-199h-199q-60 0 -80 -20t-20 -80v-111h686v-1024h-236v829h-450v-829zM1192 1180h-256v254h256v-254z" />
    <glyph glyph-name="fl" unicode="fl" horiz-adv-x="1327" 
d="M496 0h-236v829h-215v195h215v166q0 120 62.5 182t183.5 62h676v-1434h-236v1235h-350q-60 0 -80 -20t-20 -80v-111h247v-195h-247v-829z" />
    <glyph glyph-name="f_f" unicode="ff" horiz-adv-x="1480" 
d="M496 0h-236v829h-215v195h215v166q0 120 62.5 182t183.5 62h289v-199h-199q-60 0 -80 -20t-20 -80v-111h450v166q0 120 62.5 182t183.5 62h289v-199h-199q-60 0 -80 -20t-20 -80v-111h248v-195h-248v-829h-236v829h-450v-829z" />
    <glyph glyph-name="f_f_i" unicode="ffi" horiz-adv-x="2013" 
d="M496 0h-236v829h-215v195h215v166q0 120 62.5 182t183.5 62h289v-199h-199q-60 0 -80 -20t-20 -80v-111h450v166q0 120 62.5 182t183.5 62h289v-199h-199q-60 0 -80 -20t-20 -80v-111h686v-1024h-236v829h-450v-829h-236v829h-450v-829zM1878 1180h-256v254h256v-254z
" />
    <glyph glyph-name="f_f_l" unicode="ffl" horiz-adv-x="2013" 
d="M496 0h-236v829h-215v195h215v166q0 120 62.5 182t183.5 62h289v-199h-199q-60 0 -80 -20t-20 -80v-111h450v166q0 120 62.5 182t183.5 62h676v-1434h-236v1235h-350q-60 0 -80 -20t-20 -80v-111h248v-195h-248v-829h-236v829h-450v-829z" />
    <glyph glyph-name="w_w_w.liga" unicode="www" horiz-adv-x="4214" 
d="M612 0h-264l-313 1024h239l215 -780l191 780h250l203 -778l204 778h240l215 -780l190 780h250l203 -778l205 778h239l216 -780l190 780h250l203 -778l204 778h234l-303 -1024h-262l-201 754l-193 -754h-264l-194 633l-189 -633h-262l-201 754l-192 -754h-264l-195 633
l-188 -633h-262l-201 754z" />
    <glyph glyph-name=".notdef" horiz-adv-x="1282" 
d="M1176 0h-1024v1434h1024v-1434zM340 1245v-1057h647v1057h-647z" />
    <glyph glyph-name=".null" horiz-adv-x="0" 
 />
    <glyph glyph-name="nonmarkingreturn" horiz-adv-x="682" 
 />
    <glyph glyph-name="space" unicode=" " horiz-adv-x="487" 
 />
    <glyph glyph-name="exclam" unicode="!" horiz-adv-x="557" 
d="M342 371h-127l-57 583v480h241v-480zM406 0h-256v254h256v-254z" />
    <glyph glyph-name="quotedbl" unicode="&#x22;" horiz-adv-x="770" 
d="M264 965h-94l-59 276v193h217v-193zM598 965h-94l-60 276v193h218v-193z" />
    <glyph glyph-name="numbersign" unicode="#" horiz-adv-x="1437" 
d="M1356 1094v-211h-252l-70 -332h236v-211h-281l-71 -340h-220l72 340h-260l-74 -340h-219l74 340h-209v211h254l70 332h-236v211h281l73 340h219l-73 -340h258l71 340h222l-72 -340h207zM555 551h258l72 332h-260z" />
    <glyph glyph-name="dollar" unicode="$" horiz-adv-x="1280" 
d="M840 1196l-64 -381q199 -43 296 -142.5t97 -266.5q0 -190 -139.5 -308t-384.5 -118h-10l-37 -226h-209l43 252q-172 45 -265 166.5t-99 300.5h241q3 -86 44 -150t116 -98l66 398l-37 8q-173 37 -266 138t-93 255q0 117 60 213.5t179 156.5t277 60h19l39 225h209l-43 -260
q147 -50 229.5 -162.5t83.5 -265.5h-240q-9 138 -112 205zM561 860l14 -2l64 387q-118 -1 -188 -59t-70 -146q0 -76 42.5 -118t137.5 -62zM737 582l-65 -394q119 0 188.5 57t69.5 146q0 76 -44.5 122t-142.5 67z" />
    <glyph glyph-name="percent" unicode="%" horiz-adv-x="1916" 
d="M418 614q-170 0 -261 117.5t-91 296.5q0 117 37.5 209t118.5 149.5t196 57.5q169 0 260.5 -118t91.5 -298q0 -116 -38 -207.5t-119 -149t-195 -57.5zM635 0h-211l860 1434h211zM414 778h8q74 0 115 70t41 180q0 111 -41 181.5t-115 70.5h-8q-75 0 -115.5 -70t-40.5 -182
q0 -111 40.5 -180.5t115.5 -69.5zM1499 -10q-114 0 -195 57t-119 149t-38 207q0 180 91.5 298t260.5 118t260.5 -118t91.5 -298q0 -115 -38 -207t-119 -149t-195 -57zM1495 154h8q75 0 115.5 69.5t40.5 179.5q0 112 -40.5 182t-115.5 70h-8q-74 0 -115 -70.5t-41 -181.5
q0 -110 41 -179.5t115 -69.5z" />
    <glyph glyph-name="ampersand" unicode="&#x26;" horiz-adv-x="1351" 
d="M1083 0h-557q-113 0 -209.5 45.5t-156.5 133.5t-60 200q0 129 72.5 217.5t194.5 128.5q-119 44 -187.5 128.5t-68.5 209.5q0 112 57.5 198t150.5 129.5t205 43.5h295v-197h-239q-102 0 -167 -52t-65 -151q0 -100 64 -153.5t168 -53.5h266v248h237v-248h220v-198h-220
v-629zM586 197h260v432h-260q-111 0 -179.5 -56t-68.5 -157q0 -104 68.5 -161.5t179.5 -57.5z" />
    <glyph glyph-name="quotesingle" unicode="'" horiz-adv-x="436" 
d="M264 965h-94l-59 276v193h217v-193z" />
    <glyph glyph-name="parenleft" unicode="(" horiz-adv-x="798" 
d="M743 -92v-205q-293 14 -471 289.5t-178 724.5q0 222 47.5 407.5t132.5 315.5t205.5 206t263.5 85v-205q-189 -38 -300 -246t-111 -563t111 -563t300 -246z" />
    <glyph glyph-name="parenright" unicode=")" horiz-adv-x="798" 
d="M55 1526v205q293 -14 471.5 -289.5t178.5 -724.5q0 -222 -47.5 -407.5t-133 -315.5t-205.5 -206t-264 -85v205q189 38 300.5 246t111.5 563t-111.5 563t-300.5 246z" />
    <glyph glyph-name="asterisk" unicode="*" horiz-adv-x="901" 
d="M453 1036l-115 -190l-143 80l112 190h-213v160h213l-112 190l143 80l115 -190l110 190l144 -80l-113 -190h213v-160h-213l113 -190l-144 -80z" />
    <glyph glyph-name="plus" unicode="+" horiz-adv-x="1177" 
d="M711 31h-242v391h-385v211h385v391h242v-391h383v-211h-383v-391z" />
    <glyph glyph-name="comma" unicode="," horiz-adv-x="542" 
d="M143 -299h-77v145h71q64 0 95.5 34.5t31.5 94.5v25h-129v274h275v-309q0 -115 -74 -189.5t-193 -74.5z" />
    <glyph glyph-name="hyphen" unicode="-" horiz-adv-x="837" 
d="M707 520h-576v199h576v-199z" />
    <glyph glyph-name="period" unicode="." horiz-adv-x="536" 
d="M406 0h-275v274h275v-274z" />
    <glyph glyph-name="slash" unicode="/" horiz-adv-x="917" 
d="M311 0h-252l553 1434h246z" />
    <glyph glyph-name="zero" unicode="0" horiz-adv-x="1368" 
d="M684 -20q-275 0 -425 195t-150 542q0 345 152 541t423 196t423.5 -196t152.5 -541q0 -347 -150.5 -542t-425.5 -195zM674 188h20q149 0 236.5 135t87.5 394q0 258 -87.5 393t-236.5 135h-20q-150 0 -237 -134.5t-87 -393.5t87 -394t237 -135z" />
    <glyph glyph-name="one" unicode="1" horiz-adv-x="802" 
d="M70 1079l364 355h189v-1434h-234v1090l-319 -310v299z" />
    <glyph glyph-name="two" unicode="2" horiz-adv-x="1193" 
d="M770 561l-377 -348h699v-213h-994v236l477 450q11 10 32 30q64 60 93.5 89.5t65.5 74.5t49.5 84.5t13.5 84.5q0 87 -60 141.5t-153 54.5h-20q-104 0 -171.5 -69.5t-68.5 -182.5h-243q1 210 139 335.5t352 125.5q205 0 336 -108.5t131 -286.5q0 -74 -20.5 -138.5t-65 -127
t-91.5 -112t-124 -120.5z" />
    <glyph glyph-name="three" unicode="3" horiz-adv-x="1212" 
d="M594 -20q-220 0 -357.5 109.5t-146.5 297.5h242q14 -92 80 -145.5t172 -53.5h20q115 0 182.5 61.5t67.5 151.5q0 98 -70.5 154.5t-185.5 56.5h-109v209h103q115 0 184.5 60.5t69.5 156.5q0 91 -67 149t-169 58h-20q-92 0 -159.5 -56.5t-74.5 -146.5h-239
q3 118 67.5 212.5t174.5 147t245 52.5q210 0 346.5 -114t136.5 -277q0 -126 -68.5 -216.5t-180.5 -123.5q114 -31 187 -121t73 -217q0 -185 -141 -295t-363 -110z" />
    <glyph glyph-name="four" unicode="4" horiz-adv-x="1273" 
d="M989 0h-231v305h-699v238l695 891h235v-920h219v-209h-219v-305zM758 1108l-463 -594h463v594z" />
    <glyph glyph-name="five" unicode="5" horiz-adv-x="1204" 
d="M588 -20q-215 0 -358 111.5t-162 299.5h241q17 -95 91 -149t180 -54h20q112 0 184 71t72 187q0 110 -71.5 176t-180.5 66h-20q-64 0 -130 -29.5t-110 -87.5h-227l176 863h790v-213h-608l-90 -424q46 46 118.5 73t145.5 27q198 0 323.5 -124t125.5 -316
q0 -212 -141.5 -344.5t-368.5 -132.5z" />
    <glyph glyph-name="six" unicode="6" horiz-adv-x="1282" 
d="M698 942q127 0 231.5 -56.5t168 -165.5t63.5 -249q0 -210 -141.5 -350.5t-372.5 -140.5q-254 0 -397.5 181t-143.5 509q0 172 49.5 319.5t134 249t199.5 158.5t244 57q184 0 307.5 -101.5t151.5 -279.5h-242q-16 76 -71 123t-146 47h-22q-147 0 -257.5 -132.5
t-131.5 -381.5q49 99 150 156t226 57zM639 190h20q110 0 185.5 77.5t75.5 193.5q0 117 -75.5 194.5t-185.5 77.5h-20q-112 0 -191 -77.5t-79 -194.5q0 -115 78 -193t192 -78z" />
    <glyph glyph-name="seven" unicode="7" horiz-adv-x="1126" 
d="M51 1214v220h1016v-213q-256 -160 -391 -431.5t-135 -695.5v-94h-250v102q0 209 39 388.5t110 314.5t158.5 235t194.5 174h-742z" />
    <glyph glyph-name="eight" unicode="8" horiz-adv-x="1193" 
d="M596 -20q-211 0 -335 110t-124 275q0 123 66.5 207.5t175.5 121.5q-115 36 -192.5 133.5t-77.5 231.5q0 166 132 280.5t355 114.5q224 0 356.5 -114.5t132.5 -280.5q0 -134 -77.5 -231.5t-192.5 -133.5q109 -37 175.5 -121.5t66.5 -207.5q0 -165 -125 -275t-336 -110z
M586 807h20q101 0 169.5 62.5t68.5 158.5q0 94 -68.5 155.5t-169.5 61.5h-20q-100 0 -168 -61.5t-68 -155.5q0 -96 68.5 -158.5t167.5 -62.5zM586 188h20q92 0 151.5 56t59.5 147q0 90 -60 148.5t-151 58.5h-20q-90 0 -149.5 -58.5t-59.5 -148.5q0 -91 59 -147t150 -56z" />
    <glyph glyph-name="nine" unicode="9" horiz-adv-x="1282" 
d="M635 1454q254 0 397.5 -181t143.5 -509q0 -172 -49.5 -319.5t-134.5 -249t-200 -158.5t-243 -57q-185 0 -309 101.5t-150 278.5h242q16 -76 71 -123t146 -47h22q147 0 256.5 131t130.5 379q-51 -98 -150.5 -153t-223.5 -55q-127 0 -231.5 56.5t-168 165.5t-63.5 249
q0 210 141.5 350.5t372.5 140.5zM623 700h20q112 0 191 78t79 195q0 115 -78.5 192.5t-191.5 77.5h-20q-110 0 -185.5 -77t-75.5 -193q0 -117 75.5 -195t185.5 -78z" />
    <glyph glyph-name="colon" unicode=":" horiz-adv-x="540" 
d="M408 750h-275v274h275v-274zM408 0h-275v274h275v-274z" />
    <glyph glyph-name="semicolon" unicode=";" horiz-adv-x="585" 
d="M438 750h-274v274h274v-274zM172 -299h-78v145h74q62 0 93.5 35t31.5 94v25h-129v274h274v-309q0 -115 -73.5 -189.5t-192.5 -74.5z" />
    <glyph glyph-name="less" unicode="&#x3c;" horiz-adv-x="1087" 
d="M84 631l870 352v-238l-559 -217l559 -215v-245l-870 352v211z" />
    <glyph glyph-name="equal" unicode="=" horiz-adv-x="1292" 
d="M1153 618h-1012v209h1012v-209zM1153 227h-1012v209h1012v-209z" />
    <glyph glyph-name="greater" unicode="&#x3e;" horiz-adv-x="1087" 
d="M133 737v246l871 -352v-211l-871 -352v237l559 217z" />
    <glyph glyph-name="question" unicode="?" horiz-adv-x="991" 
d="M494 399h-228v283q0 90 44.5 133t135.5 43h41q91 0 143 46t52 136q0 83 -54.5 132t-148.5 49h-409v213h442q183 0 297.5 -108t114.5 -286q0 -163 -105.5 -270.5t-263.5 -107.5q-35 0 -48 -13t-13 -47v-203zM506 0h-256v254h256v-254z" />
    <glyph glyph-name="at" unicode="@" horiz-adv-x="1906" 
d="M1526 -256h-531q-154 0 -288.5 34.5t-246.5 106.5t-192.5 175.5t-125 248.5t-44.5 320q0 197 75 363t200 274.5t284 168.5t330 60q229 0 421 -101t303.5 -277.5t111.5 -387.5q0 -128 -35 -231.5t-93.5 -168.5t-133 -99.5t-156.5 -34.5h-246v120q-36 -63 -102.5 -102
t-153.5 -39q-157 0 -262.5 125t-105.5 313t105 310t263 122q87 0 151.5 -38.5t100.5 -102.5v121h209v-657h27q86 0 146 89t60 273q0 165 -74.5 294t-214 202t-321.5 73q-135 0 -256 -48t-211 -133t-143 -212t-53 -276q0 -212 87.5 -367.5t242 -235t358.5 -79.5h514v-203z
M948 356h10q86 0 138.5 76.5t52.5 179.5q0 102 -50.5 176t-135.5 74h-11q-84 0 -135 -69.5t-51 -180.5q0 -115 49 -185.5t133 -70.5z" />
    <glyph glyph-name="A" unicode="A" horiz-adv-x="1443" 
d="M1430 0h-259l-135 350h-637l-135 -350h-256l567 1434h297zM717 1178l-234 -607h467z" />
    <glyph glyph-name="B" unicode="B" horiz-adv-x="1361" 
d="M825 0h-651v1434h631q191 0 309.5 -105t118.5 -270q0 -123 -65.5 -210t-172.5 -122q119 -22 194 -113t75 -229q0 -168 -125 -276.5t-314 -108.5zM420 1214v-380h348q104 0 161.5 49.5t57.5 140.5q0 92 -57 141t-162 49h-348zM420 621v-402h364q109 0 171.5 52t62.5 149
t-62.5 149t-171.5 52h-364z" />
    <glyph glyph-name="C" unicode="C" horiz-adv-x="1449" 
d="M776 -20q-212 0 -367.5 94.5t-235 260t-79.5 382.5t79.5 382.5t235 260t367.5 94.5q257 0 416 -134t174 -349h-246q-20 123 -109 193.5t-225 70.5h-20q-195 0 -310.5 -143t-115.5 -375t115.5 -375t310.5 -143h20q137 0 225.5 70t108.5 194h246q-15 -217 -174 -350
t-416 -133z" />
    <glyph glyph-name="D" unicode="D" horiz-adv-x="1470" 
d="M682 0h-508v1434h502q156 0 285 -47.5t221 -137t143 -225.5t51 -307q0 -341 -188 -529t-506 -188zM420 1214v-995h235q226 0 350.5 121t124.5 377t-124.5 376.5t-350.5 120.5h-235z" />
    <glyph glyph-name="E" unicode="E" horiz-adv-x="1345" 
d="M1264 0h-1090v1434h1069v-220h-823v-368h700v-219h-700v-408h844v-219z" />
    <glyph glyph-name="F" unicode="F" horiz-adv-x="1253" 
d="M420 0h-246v1434h1028v-220h-782v-407h680v-221h-680v-586z" />
    <glyph glyph-name="G" unicode="G" horiz-adv-x="1521" 
d="M774 -20q-204 0 -360 96t-239 263t-83 378q0 212 85 378.5t246 262.5t372 96q269 0 428 -140t174 -364h-246q-15 132 -104 208.5t-242 76.5h-21q-206 0 -326 -139.5t-120 -378.5t120 -378.5t326 -139.5h21q156 0 261 82.5t126 214.5l2 24h-399v219h438q85 0 129.5 -44.5
t44.5 -129.5v-565h-215v150q-59 -70 -164.5 -120t-253.5 -50z" />
    <glyph glyph-name="H" unicode="H" horiz-adv-x="1509" 
d="M420 0h-246v1434h246v-607h670v607h245v-1434h-245v606h-670v-606z" />
    <glyph glyph-name="I" unicode="I" horiz-adv-x="595" 
d="M420 0h-246v1434h246v-1434z" />
    <glyph glyph-name="J" unicode="J" horiz-adv-x="860" 
d="M377 0h-320v236h242q82 0 116 33t34 116v1049h245v-1117q0 -154 -81.5 -235.5t-235.5 -81.5z" />
    <glyph glyph-name="K" unicode="K" horiz-adv-x="1396" 
d="M1393 0h-306l-452 659l-215 -223v-436h-246v1434h246v-672l651 672h309l-567 -590z" />
    <glyph glyph-name="L" unicode="L" horiz-adv-x="1277" 
d="M1243 0h-1069v1434h246v-1215h823v-219z" />
    <glyph glyph-name="M" unicode="M" horiz-adv-x="1898" 
d="M956 258l379 1176h389v-1434h-241v1188l-385 -1188h-287l-393 1182v-1182h-244v1434h393z" />
    <glyph glyph-name="N" unicode="N" horiz-adv-x="1529" 
d="M1110 326v1108h246v-1434h-328l-608 1114v-1114h-246v1434h328z" />
    <glyph glyph-name="O" unicode="O" horiz-adv-x="1562" 
d="M780 -20q-149 0 -275.5 51t-217.5 144.5t-142 232.5t-51 309t51 309t142 232.5t217.5 144.5t275.5 51q150 0 276.5 -51t218 -144.5t142.5 -232.5t51 -309t-51 -309t-142.5 -232.5t-218 -144.5t-276.5 -51zM770 199h21q197 0 314.5 138t117.5 380t-117.5 380t-314.5 138
h-21q-197 0 -313.5 -138t-116.5 -380t116.5 -380t313.5 -138z" />
    <glyph glyph-name="P" unicode="P" horiz-adv-x="1329" 
d="M420 0h-246v1434h629q208 0 334.5 -118t126.5 -327q0 -207 -126.5 -325.5t-334.5 -118.5h-383v-545zM420 1214v-450h352q119 0 182.5 59.5t63.5 165.5q0 107 -63.5 166t-182.5 59h-352z" />
    <glyph glyph-name="Q" unicode="Q" horiz-adv-x="1562" 
d="M901 -12v-82q0 -59 20 -79t80 -20h291v-208h-395q-110 0 -169.5 58.5t-59.5 168.5v162q-260 36 -417 229.5t-157 499.5q0 170 51 309t142 232.5t217.5 144.5t275.5 51q150 0 276.5 -51t218 -144.5t142.5 -232.5t51 -309q0 -305 -155 -497.5t-412 -231.5zM340 717
q0 -242 116.5 -380t313.5 -138h21q197 0 314.5 138t117.5 380t-117.5 380t-314.5 138h-21q-197 0 -313.5 -138t-116.5 -380z" />
    <glyph glyph-name="R" unicode="R" horiz-adv-x="1396" 
d="M420 0h-246v1434h645q191 0 318 -111t127 -279q0 -135 -63 -228.5t-177 -133.5q116 0 167.5 -50t51.5 -153v-479h-246v418q0 80 -28.5 108.5t-108.5 28.5h-440v-555zM420 1214v-442h338q125 0 192.5 62t67.5 167t-66 159t-194 54h-338z" />
    <glyph glyph-name="S" unicode="S" horiz-adv-x="1292" 
d="M641 -20q-274 0 -420.5 129.5t-154.5 363.5h245q5 -126 95 -200t249 -74h21q122 0 191 55t69 137q0 73 -43.5 117t-144.5 65l-244 50q-367 76 -367 409q0 83 36.5 158.5t103 134.5t168.5 94t223 35q247 0 390 -127t146 -336h-246q-7 115 -86 179.5t-200 64.5h-21
q-120 0 -194 -56.5t-74 -138.5q0 -75 45 -118t139 -62l221 -43q394 -78 394 -411q0 -189 -146 -307.5t-395 -118.5z" />
    <glyph glyph-name="T" unicode="T" horiz-adv-x="1325" 
d="M784 0h-245v1214h-502v220h1251v-220h-504v-1214z" />
    <glyph glyph-name="U" unicode="U" horiz-adv-x="1433" 
d="M717 -20q-279 0 -417 138t-138 388v928h246v-895q0 -340 299 -340h20q299 0 299 340v895h246v-928q0 -249 -139.5 -387.5t-415.5 -138.5z" />
    <glyph glyph-name="V" unicode="V" horiz-adv-x="1452" 
d="M733 248l438 1186h265l-547 -1434h-320l-559 1434h271z" />
    <glyph glyph-name="W" unicode="W" horiz-adv-x="1933" 
d="M1378 262l256 1172h256l-352 -1434h-324l-247 1114l-250 -1114h-324l-350 1434h254l266 -1168l256 1168h307z" />
    <glyph glyph-name="X" unicode="X" horiz-adv-x="1308" 
d="M797 741l503 -741h-288l-361 530l-366 -530h-279l506 733l-475 701h289l331 -490l338 490h279z" />
    <glyph glyph-name="Y" unicode="Y" horiz-adv-x="1312" 
d="M780 0h-245v582l-525 852h281l373 -615l368 615h273l-525 -852v-582z" />
    <glyph glyph-name="Z" unicode="Z" horiz-adv-x="1282" 
d="M1200 0h-1118v213l813 1001h-793v220h1078v-213l-813 -1002h833v-219z" />
    <glyph glyph-name="bracketleft" unicode="[" horiz-adv-x="706" 
d="M643 -297h-473v2028h473v-197h-237v-1634h237v-197z" />
    <glyph glyph-name="backslash" unicode="\" horiz-adv-x="917" 
d="M858 0h-250l-549 1434h246z" />
    <glyph glyph-name="bracketright" unicode="]" horiz-adv-x="706" 
d="M63 1731h474v-2028h-474v197h238v1634h-238v197z" />
    <glyph glyph-name="asciicircum" unicode="^" horiz-adv-x="1097" 
d="M668 1434l358 -850h-246l-233 583l-236 -583h-239l358 850h238z" />
    <glyph glyph-name="underscore" unicode="_" horiz-adv-x="1067" 
d="M1006 -197h-945v197h945v-197z" />
    <glyph glyph-name="grave" unicode="`" horiz-adv-x="462" 
d="M401 1139h-143l-197 295h265z" />
    <glyph glyph-name="a" unicode="a" horiz-adv-x="1091" 
d="M420 -20q-143 0 -239.5 84.5t-96.5 216.5q0 82 31.5 144.5t86 100.5t118.5 58t139 26l268 23v29q0 87 -50 138.5t-136 51.5h-17q-76 0 -127 -39t-57 -98h-236q12 144 129.5 236.5t298.5 92.5q196 0 310 -103t114 -273v-443q0 -146 11 -225h-222q-10 49 -10 141
q-42 -71 -125.5 -116t-189.5 -45zM461 172h16q95 0 172.5 66t77.5 159v62l-238 -23q-72 -7 -122 -43t-50 -98q0 -54 41 -88.5t103 -34.5z" />
    <glyph glyph-name="b" unicode="b" horiz-adv-x="1226" 
d="M692 -20q-102 0 -188.5 46.5t-124.5 110.5v-137h-236v1434h236v-547q38 65 121 111t184 46q207 0 332 -150t125 -382q0 -233 -121.5 -382.5t-327.5 -149.5zM637 172h16q110 0 181 91.5t71 250.5q0 157 -71 247.5t-181 90.5h-16q-106 0 -182 -92t-76 -248t76 -248t182 -92
z" />
    <glyph glyph-name="c" unicode="c" horiz-adv-x="1097" 
d="M578 -20q-221 0 -356.5 147.5t-135.5 384.5t135.5 384.5t356.5 147.5q192 0 309.5 -95.5t132.5 -274.5h-236q-12 82 -63.5 130t-134.5 48h-17q-122 0 -184.5 -96.5t-62.5 -243.5t62.5 -243.5t184.5 -96.5h17q83 0 134.5 48t63.5 130h236q-15 -179 -132.5 -274.5
t-309.5 -95.5z" />
    <glyph glyph-name="d" unicode="d" horiz-adv-x="1226" 
d="M532 -20q-205 0 -326.5 150t-121.5 382q0 231 126 381.5t333 150.5q102 0 184.5 -46t118.5 -111v547h235v-1434h-235v137q-36 -64 -123.5 -110.5t-190.5 -46.5zM573 172h17q105 0 180.5 92t75.5 248t-75.5 248t-180.5 92h-17q-111 0 -182.5 -90.5t-71.5 -247.5
q0 -158 71.5 -250t182.5 -92z" />
    <glyph glyph-name="e" unicode="e" horiz-adv-x="1112" 
d="M571 -20q-97 0 -184 35t-154.5 100.5t-107 168t-39.5 228.5q0 243 134.5 387.5t346.5 144.5q213 0 334 -135.5t121 -353.5q0 -34 -4 -104h-703q9 -128 85.5 -203.5t170.5 -75.5h17q75 0 128 39t68 104h234q-32 -155 -151.5 -245t-295.5 -90zM322 633h469q-6 105 -68 162
t-152 57h-16q-89 0 -154.5 -56t-78.5 -163z" />
    <glyph glyph-name="f" unicode="f" horiz-adv-x="794" 
d="M496 0h-236v829h-215v195h215v166q0 120 62.5 182t183.5 62h289v-199h-199q-60 0 -80 -20t-20 -80v-111h247v-195h-247v-829z" />
    <glyph glyph-name="g" unicode="g" horiz-adv-x="1210" 
d="M547 -451q-207 0 -337.5 91t-141.5 237h235q12 -63 78 -99t170 -36h14q119 0 191.5 69t72.5 203v138q-42 -70 -120 -111t-174 -41q-90 0 -170 33.5t-143 97t-99.5 164.5t-36.5 227t36 227t98.5 164.5t143 97t171.5 33.5q97 0 176.5 -41t117.5 -110v131h236v-1038
q0 -88 -34 -166t-97 -139t-163 -96.5t-224 -35.5zM567 193h17q102 0 173.5 89.5t71.5 239.5q0 151 -69.5 240.5t-171.5 89.5h-17q-107 0 -178 -85.5t-71 -244.5t69 -244t176 -85z" />
    <glyph glyph-name="h" unicode="h" horiz-adv-x="1191" 
d="M379 0h-236v1434h236v-557q48 76 130 121.5t187 45.5q176 0 269.5 -102.5t93.5 -273.5v-668h-236v633q0 104 -46.5 161.5t-135.5 57.5h-16q-101 0 -173.5 -79.5t-72.5 -201.5v-571z" />
    <glyph glyph-name="i" unicode="i" horiz-adv-x="524" 
d="M389 1180h-256v254h256v-254zM379 0h-236v1024h236v-1024z" />
    <glyph glyph-name="j" unicode="j" horiz-adv-x="540" 
d="M406 1180h-256v254h256v-254zM158 -397h-326v204h229q55 0 77 22.5t22 76.5v1118h235v-1182q0 -117 -60 -178t-177 -61z" />
    <glyph glyph-name="k" unicode="k" horiz-adv-x="1112" 
d="M379 0h-236v1434h236v-818l405 408h297l-407 -408l428 -616h-283l-311 451l-129 -127v-324z" />
    <glyph glyph-name="l" unicode="l" horiz-adv-x="524" 
d="M379 0h-236v1434h236v-1434z" />
    <glyph glyph-name="m" unicode="m" horiz-adv-x="1847" 
d="M379 0h-236v1024h236v-145q51 79 131 122t176 43q111 0 195 -46t129 -136q55 93 145 137.5t193 44.5q183 0 274.5 -103.5t91.5 -276.5v-664h-235v627q0 219 -179 219h-16q-97 0 -167 -77t-70 -198v-571h-236v627q0 219 -178 219h-17q-97 0 -167 -77t-70 -198v-571z" />
    <glyph glyph-name="n" unicode="n" horiz-adv-x="1191" 
d="M379 0h-236v1024h236v-147q48 76 130 121.5t187 45.5q176 0 269.5 -102.5t93.5 -273.5v-668h-236v633q0 104 -46.5 161.5t-135.5 57.5h-16q-101 0 -173.5 -79.5t-72.5 -201.5v-571z" />
    <glyph glyph-name="o" unicode="o" horiz-adv-x="1173" 
d="M586 -20q-220 0 -361 149.5t-141 382.5t141 382.5t361 149.5q221 0 362.5 -149.5t141.5 -382.5t-141.5 -382.5t-362.5 -149.5zM578 172h16q117 0 187.5 90.5t70.5 249.5t-70.5 249.5t-187.5 90.5h-16q-116 0 -187.5 -90.5t-71.5 -249.5t71.5 -249.5t187.5 -90.5z" />
    <glyph glyph-name="p" unicode="p" horiz-adv-x="1226" 
d="M379 -410h-236v1434h236v-137q38 64 124.5 110.5t188.5 46.5q206 0 327.5 -149.5t121.5 -382.5q0 -232 -125 -382t-332 -150q-101 0 -184 46t-121 111v-547zM637 172h16q111 0 181.5 90.5t70.5 249.5t-70.5 249.5t-181.5 90.5h-16q-106 0 -182 -92t-76 -248t76 -248
t182 -92z" />
    <glyph glyph-name="q" unicode="q" horiz-adv-x="1226" 
d="M1081 -410h-235v547q-36 -65 -118.5 -111t-184.5 -46q-207 0 -333 150.5t-126 381.5q0 232 121.5 382t326.5 150q103 0 190.5 -46.5t123.5 -110.5v137h235v-1434zM573 172h17q105 0 180.5 92t75.5 248t-75.5 248t-180.5 92h-17q-111 0 -182.5 -92t-71.5 -250
q0 -157 71.5 -247.5t182.5 -90.5z" />
    <glyph glyph-name="r" unicode="r" horiz-adv-x="784" 
d="M379 0h-236v1024h232v-213q31 105 110 164t187 59h69v-221h-88q-133 0 -203.5 -73.5t-70.5 -213.5v-526z" />
    <glyph glyph-name="s" unicode="s" horiz-adv-x="1009" 
d="M504 -20q-204 0 -319 94.5t-115 255.5h239q3 -78 57 -121t138 -43h16q71 0 116.5 31.5t45.5 83.5q0 45 -29 73t-92 41l-141 31q-152 35 -230.5 107.5t-78.5 195.5q0 143 112 229t289 86q196 0 305 -93t109 -251h-236q-8 72 -51.5 115t-122.5 43h-16q-69 0 -112.5 -31
t-43.5 -84q0 -45 34 -72t105 -42l148 -35q284 -65 284 -303q0 -137 -110 -224t-301 -87z" />
    <glyph glyph-name="t" unicode="t" horiz-adv-x="815" 
d="M754 0h-254q-120 0 -184 64t-64 184v581h-217v195h217v332h235v-332h236v-195h-236v-526q0 -60 20.5 -80t80.5 -20h166v-203z" />
    <glyph glyph-name="u" unicode="u" horiz-adv-x="1171" 
d="M481 -20q-171 0 -259.5 103.5t-88.5 276.5v664h236v-629q0 -110 45 -166.5t131 -56.5h16q94 0 163 83t69 206v563h235v-1024h-235v168q-40 -84 -122 -136t-190 -52z" />
    <glyph glyph-name="v" unicode="v" horiz-adv-x="1107" 
d="M557 195l281 829h241l-364 -1024h-322l-364 1024h247z" />
    <glyph glyph-name="w" unicode="w" horiz-adv-x="1609" 
d="M1133 244l204 780h234l-303 -1024h-262l-199 752l-195 -752h-264l-313 1024h239l213 -784l193 784h250z" />
    <glyph glyph-name="x" unicode="x" horiz-adv-x="1064" 
d="M287 0h-260l374 516l-364 508h266l232 -322l233 322h260l-362 -502l372 -522h-266l-242 336z" />
    <glyph glyph-name="y" unicode="y" horiz-adv-x="1140" 
d="M870 1024h256l-430 -963v-215q0 -245 -243 -245h-359v206h279q60 0 80 20t20 79v145l-440 973h260l293 -680z" />
    <glyph glyph-name="z" unicode="z" horiz-adv-x="1030" 
d="M926 831l-555 -624h585v-207h-874v193l555 624h-545v207h834v-193z" />
    <glyph glyph-name="braceleft" unicode="{" horiz-adv-x="733" 
d="M666 -297h-166q-138 0 -203.5 77.5t-65.5 239.5v420q0 78 -20.5 105.5t-81.5 27.5h-51v287h51q61 0 81.5 27.5t20.5 105.5v420q0 162 65.5 240t203.5 78h166v-197h-76q-74 0 -98.5 -33t-24.5 -121v-460q0 -94 -44.5 -137.5t-119.5 -43.5v-45q75 0 119.5 -43t44.5 -137
v-461q0 -88 24.5 -120.5t98.5 -32.5h76v-197z" />
    <glyph glyph-name="bar" unicode="|" horiz-adv-x="579" 
d="M412 -174h-244v1782h244v-1782z" />
    <glyph glyph-name="braceright" unicode="}" horiz-adv-x="733" 
d="M68 1733h165q138 0 203.5 -78t65.5 -240v-420q0 -78 20.5 -105.5t81.5 -27.5h51v-287h-51q-61 0 -81.5 -27.5t-20.5 -105.5v-419q0 -162 -65.5 -240t-203.5 -78h-165v197h75q74 0 98.5 32.5t24.5 120.5v461q0 94 44.5 137t119.5 43v45q-75 0 -119.5 43.5t-44.5 137.5v460
q0 88 -24.5 121t-98.5 33h-75v197z" />
    <glyph glyph-name="asciitilde" unicode="~" horiz-adv-x="1024" 
d="M690 700q-66 0 -170 58l-43 26q-60 33 -94 33q-32 1 -50 -24.5t-18 -71.5h-172v53q0 93 62 159t155 66q76 0 164 -53l41 -22q3 -2 19 -11t22 -12t18.5 -8.5t22.5 -7.5t19 -2q63 0 63 96h174v-53q0 -97 -56.5 -161.5t-156.5 -64.5z" />
    <glyph glyph-name="uni00A0" unicode="&#xa0;" horiz-adv-x="487" 
 />
    <glyph glyph-name="exclamdown" unicode="&#xa1;" horiz-adv-x="532" 
d="M139 1024h256v-254h-256v254zM203 653h127l57 -583v-480h-242v480z" />
    <glyph glyph-name="cent" unicode="&#xa2;" horiz-adv-x="1107" 
d="M717 795l-103 -609q67 4 112.5 50t57.5 114h238q-17 -171 -133.5 -270.5t-298.5 -99.5h-10l-39 -226h-193l43 260q-145 55 -224 188t-79 310q0 226 127 374.5t350 157.5l39 226h193l-43 -250q115 -39 185.5 -128.5t82.5 -217.5h-238q-12 76 -67 121zM326 512
q0 -85 26.5 -157t77.5 -115l100 594q-99 -19 -151.5 -109t-52.5 -213z" />
    <glyph glyph-name="sterling" unicode="&#xa3;" horiz-adv-x="1198" 
d="M451 209h679v-209h-1038v209h78q66 0 98 33t37 102l17 207l-230 -53v207l244 57l18 242q31 430 447 430h227v-209h-233q-100 0 -147 -54.5t-56 -177.5l-12 -172l243 58v-209l-260 -62l-18 -233q-5 -60 -25.5 -98t-68.5 -68z" />
    <glyph glyph-name="currency" unicode="&#xa4;" horiz-adv-x="1499" 
d="M1288 625q0 -154 -78 -285l187 -178l-158 -160l-182 174q-140 -94 -312 -94q-168 0 -307 90l-178 -170l-158 160l181 172q-82 135 -82 291t75 278l-174 174l158 160l176 -168q141 88 309 88q177 0 314 -92l180 172l158 -160l-180 -180q71 -123 71 -272zM739 291h15
q128 0 210.5 93.5t82.5 240.5q0 144 -82.5 233.5t-210.5 89.5h-19q-128 0 -210.5 -89.5t-82.5 -233.5q0 -146 85 -240t212 -94z" />
    <glyph glyph-name="yen" unicode="&#xa5;" horiz-adv-x="1376" 
d="M1061 1434h260l-340 -560l170 39v-202l-311 -70l-31 -49v-105l281 62v-203l-281 -61v-285h-242v229l-278 -61v203l278 61v150l-340 -76v201l240 53l-410 674h267l370 -615z" />
    <glyph glyph-name="brokenbar" unicode="&#xa6;" horiz-adv-x="591" 
d="M418 858h-244v750h244v-750zM418 -174h-244v770h244v-770z" />
    <glyph glyph-name="section" unicode="&#xa7;" horiz-adv-x="1095" 
d="M584 -123h-420v197h424q121 0 121 94q0 38 -27.5 63.5t-91.5 49.5l-285 106q-223 83 -223 272q2 77 50.5 146.5t137.5 118.5q-112 78 -112 223q0 140 92.5 213.5t265.5 73.5h379v-197h-369q-63 0 -99 -23.5t-36 -68.5q0 -40 26.5 -65.5t88.5 -45.5l186 -61
q80 -26 134.5 -51t100.5 -61.5t68.5 -85.5t22.5 -113q0 -84 -50.5 -156.5t-140.5 -120.5q119 -88 119 -219q0 -122 -89.5 -205.5t-272.5 -83.5zM475 547l180 -68q67 27 96 68.5t29 83.5q0 54 -43 86t-119 57l-178 57q-62 -26 -91.5 -68.5t-29.5 -86.5q0 -12 2 -22.5t8.5 -20
t11 -16.5t17 -15t18.5 -12t23 -11.5t23 -10t26.5 -11t26.5 -10.5z" />
    <glyph glyph-name="dieresis" unicode="&#xa8;" horiz-adv-x="751" 
d="M289 1180h-228v243h228v-243zM690 1180h-227v243h227v-243z" />
    <glyph glyph-name="copyright" unicode="&#xa9;" horiz-adv-x="1787" 
d="M895 -80q-161 0 -309 63.5t-255.5 171t-171 255.5t-63.5 309q0 162 63.5 310t171 255t255.5 170.5t309 63.5q162 0 310 -63.5t255 -170.5t170.5 -255t63.5 -310q0 -161 -63.5 -309t-170.5 -255.5t-255 -171t-310 -63.5zM895 84q169 0 313 85.5t228 232t84 317.5
q0 170 -84 316t-228 231.5t-313 85.5t-313.5 -85.5t-229 -231.5t-84.5 -316q0 -171 84.5 -317.5t229 -232t313.5 -85.5zM897 311q-171 0 -264.5 115t-93.5 297t93.5 297t264.5 115q163 0 248 -80t88 -213h-193q-7 60 -42.5 91.5t-94.5 31.5h-10q-79 0 -119.5 -62t-40.5 -180
t40.5 -180t119.5 -62h10q59 0 94.5 32.5t42.5 94.5h193q-3 -135 -88 -216t-248 -81z" />
    <glyph glyph-name="ordfeminine" unicode="&#xaa;" horiz-adv-x="765" 
d="M291 840q-83 0 -137 48t-54 128q0 81 57 123.5t152 54.5l152 16v19q0 39 -23.5 59.5t-60.5 20.5h-8q-71 0 -82 -58h-172q4 90 75 141.5t187 51.5q111 0 183.5 -56.5t72.5 -148.5v-260q0 -74 8 -129h-160q-8 46 -8 86q-51 -96 -182 -96zM340 975h8q46 0 80.5 28.5
t34.5 79.5v29l-125 -18q-27 -5 -44.5 -22.5t-17.5 -41.5q0 -26 18 -40.5t46 -14.5z" />
    <glyph glyph-name="guillemotleft" unicode="&#xab;" horiz-adv-x="1179" 
d="M367 1024h272l-297 -440l297 -441h-272l-297 441zM831 1024h273l-299 -440l299 -441h-273l-296 441z" />
    <glyph glyph-name="logicalnot" unicode="&#xac;" horiz-adv-x="1257" 
d="M1108 244h-242v280h-729v211h971v-491z" />
    <glyph glyph-name="uni00AD" unicode="&#xad;" horiz-adv-x="837" 
d="M707 520h-576v199h576v-199z" />
    <glyph glyph-name="registered" unicode="&#xae;" horiz-adv-x="1787" 
d="M895 -80q-161 0 -309 63.5t-255.5 171t-171 255.5t-63.5 309q0 162 63.5 310t171 255t255.5 170.5t309 63.5q162 0 310 -63.5t255 -170.5t170.5 -255t63.5 -310q0 -161 -63.5 -309t-170.5 -255.5t-255 -171t-310 -63.5zM895 84q169 0 313 85.5t228 232t84 317.5
q0 170 -84 316t-228 231.5t-313 85.5t-313.5 -85.5t-229 -231.5t-84.5 -316q0 -171 84.5 -317.5t229 -232t313.5 -85.5zM793 332h-189v782h367q122 0 190 -60t68 -155q0 -85 -46 -136t-120 -67q79 0 117.5 -28t38.5 -93v-243h-189v200q0 43 -18.5 61.5t-65.5 18.5h-153v-280
zM793 948v-178h135q112 0 112 92q0 45 -28 65.5t-88 20.5h-131z" />
    <glyph glyph-name="macron" unicode="&#xaf;" horiz-adv-x="729" 
d="M668 1180h-607v188h607v-188z" />
    <glyph glyph-name="degree" unicode="&#xb0;" horiz-adv-x="923" 
d="M463 696q-161 0 -270 109t-109 270t109 270t270 109t270 -109t109 -270t-109 -270t-270 -109zM463 895q69 0 117.5 52.5t48.5 127.5q0 72 -48.5 123t-117.5 51q-70 0 -119 -51t-49 -123q0 -75 49 -127.5t119 -52.5z" />
    <glyph glyph-name="plusminus" unicode="&#xb1;" horiz-adv-x="1275" 
d="M758 340h-242v231h-383v209h383v244h242v-244h387v-209h-387v-231zM1145 0h-1012v209h1012v-209z" />
    <glyph glyph-name="uni00B2" unicode="&#xb2;" horiz-adv-x="751" 
d="M670 850h-592v170l291 258q3 3 17.5 16t19 17.5t17 16.5t17.5 18.5t13 18t11.5 20t6 19.5t2.5 21q0 36 -27 59t-67 23h-10q-40 0 -69 -28t-32 -72h-192q7 120 93 191t214 71q124 0 203.5 -69t79.5 -168q0 -50 -23.5 -96.5t-50 -74.5t-74.5 -71l-201 -176h353v-164z" />
    <glyph glyph-name="uni00B3" unicode="&#xb3;" horiz-adv-x="755" 
d="M367 840q-128 0 -214.5 64t-86.5 177h192q0 -37 30.5 -60.5t73.5 -23.5h11q47 0 79.5 26t32.5 69q0 42 -29 65t-75 23h-78v157h80q42 0 69 23.5t27 62.5q0 38 -28 63t-72 25h-10q-40 0 -68 -21.5t-31 -55.5h-190q0 111 84.5 173t212.5 62q123 0 208 -61t85 -168
q0 -61 -31 -108t-88 -72q57 -26 91 -75.5t34 -115.5q0 -109 -90.5 -169t-218.5 -60z" />
    <glyph glyph-name="acute" unicode="&#xb4;" horiz-adv-x="462" 
d="M207 1139h-146l78 295h262z" />
    <glyph glyph-name="uni00B5" unicode="&#xb5;" 
d="M825 461v563h236v-1024h-236v168q-40 -84 -121.5 -136t-189.5 -52q-65 0 -111 14v-404h-235v1434h235v-629q0 -223 175 -223h16q94 0 162.5 82.5t68.5 206.5z" />
    <glyph glyph-name="paragraph" unicode="&#xb6;" horiz-adv-x="1361" 
d="M727 -410h-231v990h-13q-174 3 -299 128.5t-125 299.5q0 175 125.5 300.5t302.5 125.5h779v-197h-140v-1647h-231v1647h-168v-1647z" />
    <glyph glyph-name="periodcentered" unicode="&#xb7;" horiz-adv-x="509" 
d="M379 594h-248v248h248v-248z" />
    <glyph glyph-name="cedilla" unicode="&#xb8;" horiz-adv-x="512" 
d="M209 -494h-148v146h154q90 0 90 67q0 30 -20.5 49t-59.5 19h-92v244h131v-123q82 -3 134.5 -52.5t52.5 -138.5q0 -97 -68 -154t-174 -57z" />
    <glyph glyph-name="uni00B9" unicode="&#xb9;" horiz-adv-x="587" 
d="M471 850h-186v561l-230 -190v221l262 217h154v-809z" />
    <glyph glyph-name="ordmasculine" unicode="&#xba;" horiz-adv-x="784" 
d="M393 840q-139 0 -221 83.5t-82 217.5t82 218.5t221 84.5q138 0 220.5 -84.5t82.5 -218.5t-82.5 -217.5t-220.5 -83.5zM387 987h10q53 0 83 41.5t30 112.5t-30.5 113t-82.5 42h-10q-52 0 -82.5 -42t-30.5 -113t30.5 -112.5t82.5 -41.5z" />
    <glyph glyph-name="guillemotright" unicode="&#xbb;" horiz-adv-x="1179" 
d="M76 1024h272l297 -440l-297 -441h-272l297 441zM541 1024h272l297 -440l-297 -441h-272l297 441z" />
    <glyph glyph-name="onequarter" unicode="&#xbc;" horiz-adv-x="1800" 
d="M481 625h-186v561l-229 -191v222l262 217h153v-809zM559 0h-211l860 1434h211zM1622 0h-176v150h-393v184l362 475h207v-506h113v-153h-113v-150zM1446 602l-225 -299h225v299z" />
    <glyph glyph-name="onehalf" unicode="&#xbd;" horiz-adv-x="1857" 
d="M481 625h-186v561l-229 -191v222l262 217h153v-809zM555 0h-211l860 1434h211zM1776 0h-594v170l291 258q29 25 39 34.5t30.5 32t28 41.5t6.5 39q0 37 -26.5 59.5t-67.5 22.5h-8q-40 0 -70 -28t-33 -72h-190q6 119 92 190.5t213 71.5q124 0 203 -69t79 -168
q0 -38 -11 -71.5t-35 -65t-45 -52.5t-56 -53l-201 -176h355v-164z" />
    <glyph glyph-name="threequarters" unicode="&#xbe;" horiz-adv-x="1927" 
d="M377 614q-127 0 -214 64.5t-87 177.5h192q1 -37 32 -60.5t73 -23.5h10q48 0 80.5 25.5t32.5 68.5q0 41 -29.5 64.5t-75.5 23.5h-76v158h78q42 0 69 23.5t27 62.5q0 38 -28 63t-72 25h-10q-40 0 -67.5 -22t-28.5 -56h-193q0 111 85.5 173.5t211.5 62.5q123 0 209 -61.5
t86 -168.5q0 -62 -31.5 -108.5t-89.5 -71.5q57 -26 92 -75t35 -115q0 -109 -91.5 -169.5t-219.5 -60.5zM682 0h-213l860 1434h213zM1751 0h-178v150h-393v184l362 475h209v-506h111v-153h-111v-150zM1573 602l-223 -299h223v299z" />
    <glyph glyph-name="questiondown" unicode="&#xbf;" horiz-adv-x="974" 
d="M477 1024h256v-254h-256v254zM492 625h227v-283q0 -176 -180 -176h-43q-91 0 -143 -46t-52 -136q0 -83 55 -132t150 -49h407v-213h-442q-183 0 -297.5 108t-114.5 286q0 163 106.5 270.5t264.5 107.5q34 0 48 13.5t14 46.5v203z" />
    <glyph glyph-name="Agrave" unicode="&#xc0;" horiz-adv-x="1443" 
d="M731 1823l88 -285h-166l-204 285h282zM1430 0h-259l-135 350h-637l-135 -350h-256l567 1434h297zM717 1178l-234 -607h467z" />
    <glyph glyph-name="Aacute" unicode="&#xc1;" horiz-adv-x="1443" 
d="M729 1823h283l-205 -285h-166zM1430 0h-259l-135 350h-637l-135 -350h-256l567 1434h297zM717 1178l-234 -607h467z" />
    <glyph glyph-name="Acircumflex" unicode="&#xc2;" horiz-adv-x="1443" 
d="M897 1538l-172 129l-172 -129h-199l236 285h268l238 -285h-199zM1430 0h-259l-135 350h-637l-135 -350h-256l567 1434h297zM717 1178l-234 -607h467z" />
    <glyph glyph-name="Atilde" unicode="&#xc3;" horiz-adv-x="1443" 
d="M584 1657q-32 1 -50 -24.5t-18 -71.5h-172v53q0 93 62 159t155 66q76 0 164 -53l39 -23q6 -3 25 -13.5t27.5 -14.5t22.5 -8.5t25 -4.5q32 0 49 25.5t17 71.5h172v-54q0 -97 -55.5 -161t-155.5 -64q-67 0 -172 57l-43 27q-60 33 -92 33zM1430 0h-259l-135 350h-637
l-135 -350h-256l567 1434h297zM717 1178l-234 -607h467z" />
    <glyph glyph-name="Adieresis" unicode="&#xc4;" horiz-adv-x="1443" 
d="M410 1808h233v-229h-233v229zM805 1808h233v-229h-233v229zM1430 0h-259l-135 350h-637l-135 -350h-256l567 1434h297zM717 1178l-234 -607h467z" />
    <glyph glyph-name="Aring" unicode="&#xc5;" horiz-adv-x="1443" 
d="M725 1513q-84 0 -146.5 59t-62.5 146q0 84 63 145.5t146 61.5q86 0 146.5 -61t60.5 -146q0 -88 -60 -146.5t-147 -58.5zM727 1796q-31 0 -54.5 -23.5t-23.5 -54.5t23.5 -53.5t54.5 -22.5q29 0 51.5 22.5t22.5 53.5t-22.5 54.5t-51.5 23.5zM1430 0h-259l-135 350h-637
l-135 -350h-256l567 1434h297zM717 1178l-234 -607h467z" />
    <glyph glyph-name="AE" unicode="&#xc6;" horiz-adv-x="2037" 
d="M258 0h-268l782 1434h1094v-220h-717l53 -368h602v-219h-575l57 -408h703v-219h-914l-51 350h-580zM903 1208l-342 -637h432z" />
    <glyph glyph-name="Ccedilla" unicode="&#xc7;" horiz-adv-x="1449" 
d="M766 199h20q137 0 225.5 70t108.5 194h246q-14 -203 -157.5 -334.5t-377.5 -146.5v-74q83 -3 136 -52.5t53 -138.5q0 -96 -68.5 -153.5t-173.5 -57.5h-147v146h153q90 0 90 67q0 31 -20.5 49.5t-60.5 18.5h-91v197q-190 16 -328.5 113.5t-209 256.5t-70.5 363
q0 217 79.5 382.5t235 260t367.5 94.5q257 0 416 -134t174 -349h-246q-20 123 -109 193.5t-225 70.5h-20q-195 0 -310.5 -143t-115.5 -375t115.5 -375t310.5 -143z" />
    <glyph glyph-name="Egrave" unicode="&#xc8;" horiz-adv-x="1345" 
d="M821 1538h-168l-202 285h282zM1264 0h-1090v1434h1069v-220h-823v-368h700v-219h-700v-408h844v-219z" />
    <glyph glyph-name="Eacute" unicode="&#xc9;" horiz-adv-x="1345" 
d="M809 1538h-168l88 285h283zM1264 0h-1090v1434h1069v-220h-823v-368h700v-219h-700v-408h844v-219z" />
    <glyph glyph-name="Ecircumflex" unicode="&#xca;" horiz-adv-x="1345" 
d="M897 1538l-172 129l-172 -129h-199l236 285h270l236 -285h-199zM420 627v-408h844v-219h-1090v1434h1069v-220h-823v-368h700v-219h-700z" />
    <glyph glyph-name="Edieresis" unicode="&#xcb;" horiz-adv-x="1345" 
d="M645 1579h-233v229h233v-229zM1040 1579h-235v229h235v-229zM1264 0h-1090v1434h1069v-220h-823v-368h700v-219h-700v-408h844v-219z" />
    <glyph glyph-name="Igrave" unicode="&#xcc;" horiz-adv-x="595" 
d="M393 1538h-166l-204 285h282zM420 0h-246v1434h246v-1434z" />
    <glyph glyph-name="Iacute" unicode="&#xcd;" horiz-adv-x="595" 
d="M381 1538h-166l88 285h283zM420 0h-246v1434h246v-1434z" />
    <glyph glyph-name="Icircumflex" unicode="&#xce;" horiz-adv-x="595" 
d="M164 1823h268l238 -285h-199l-172 129l-172 -129h-199zM420 0h-246v1434h246v-1434z" />
    <glyph glyph-name="Idieresis" unicode="&#xcf;" horiz-adv-x="595" 
d="M217 1579h-233v229h233v-229zM612 1579h-233v229h233v-229zM420 0h-246v1434h246v-1434z" />
    <glyph glyph-name="Eth" unicode="&#xd0;" horiz-adv-x="1529" 
d="M233 1434h500q210 0 367 -81.5t245.5 -245t88.5 -390.5q0 -342 -188 -529.5t-507 -187.5h-506v606h-202v221h202v607zM479 219h234q227 0 351 120.5t124 377.5q0 497 -475 497h-234v-387h271v-221h-271v-387z" />
    <glyph glyph-name="Ntilde" unicode="&#xd1;" horiz-adv-x="1529" 
d="M627 1657q-32 1 -50 -24.5t-18 -71.5h-172v53q0 93 62 159t155 66q76 0 164 -53l39 -23q6 -3 25 -13.5t27.5 -14.5t22.5 -8.5t25 -4.5q32 0 49 25.5t17 71.5h172v-54q0 -97 -55.5 -161t-155.5 -64q-67 0 -172 57l-43 27q-61 33 -92 33zM1110 326v1108h246v-1434h-328
l-608 1114v-1114h-246v1434h328z" />
    <glyph glyph-name="Ograve" unicode="&#xd2;" horiz-adv-x="1562" 
d="M877 1538h-168l-203 285h282zM780 -20q-149 0 -275.5 51t-217.5 144.5t-142 232.5t-51 309t51 309t142 232.5t217.5 144.5t275.5 51q150 0 276.5 -51t218 -144.5t142.5 -232.5t51 -309t-51 -309t-142.5 -232.5t-218 -144.5t-276.5 -51zM770 199h21q197 0 314.5 138
t117.5 380t-117.5 380t-314.5 138h-21q-197 0 -313.5 -138t-116.5 -380t116.5 -380t313.5 -138z" />
    <glyph glyph-name="Oacute" unicode="&#xd3;" horiz-adv-x="1562" 
d="M864 1538h-166l88 285h281zM780 -20q-149 0 -275.5 51t-217.5 144.5t-142 232.5t-51 309t51 309t142 232.5t217.5 144.5t275.5 51q150 0 276.5 -51t218 -144.5t142.5 -232.5t51 -309t-51 -309t-142.5 -232.5t-218 -144.5t-276.5 -51zM770 199h21q197 0 314.5 138
t117.5 380t-117.5 380t-314.5 138h-21q-197 0 -313.5 -138t-116.5 -380t116.5 -380t313.5 -138z" />
    <glyph glyph-name="Ocircumflex" unicode="&#xd4;" horiz-adv-x="1562" 
d="M952 1538l-172 129l-172 -129h-198l237 285h268l236 -285h-199zM780 1454q150 0 276.5 -51t218 -144.5t142.5 -232.5t51 -309t-51 -309t-142.5 -232.5t-218 -144.5t-276.5 -51q-149 0 -275.5 51t-217.5 144.5t-142 232.5t-51 309t51 309t142 232.5t217.5 144.5t275.5 51z
M770 199h21q197 0 314.5 138t117.5 380t-117.5 380t-314.5 138h-21q-197 0 -313.5 -138t-116.5 -380t116.5 -380t313.5 -138z" />
    <glyph glyph-name="Otilde" unicode="&#xd5;" horiz-adv-x="1562" 
d="M946 1540q-68 0 -170 57l-43 27q-61 33 -94 33q-31 1 -48.5 -24.5t-17.5 -71.5h-172v53q0 94 61.5 159.5t153.5 65.5q34 0 66 -8.5t51 -18t49 -26.5l39 -23q7 -3 25 -13t27 -14.5t23 -9t26 -4.5q65 0 65 97h172v-54q0 -97 -55.5 -161t-157.5 -64zM780 -20
q-149 0 -275.5 51t-217.5 144.5t-142 232.5t-51 309t51 309t142 232.5t217.5 144.5t275.5 51q150 0 276.5 -51t218 -144.5t142.5 -232.5t51 -309t-51 -309t-142.5 -232.5t-218 -144.5t-276.5 -51zM770 199h21q197 0 314.5 138t117.5 380t-117.5 380t-314.5 138h-21
q-197 0 -313.5 -138t-116.5 -380t116.5 -380t313.5 -138z" />
    <glyph glyph-name="Odieresis" unicode="&#xd6;" horiz-adv-x="1562" 
d="M700 1579h-233v229h233v-229zM1096 1579h-234v229h234v-229zM780 -20q-149 0 -275.5 51t-217.5 144.5t-142 232.5t-51 309t51 309t142 232.5t217.5 144.5t275.5 51q150 0 276.5 -51t218 -144.5t142.5 -232.5t51 -309t-51 -309t-142.5 -232.5t-218 -144.5t-276.5 -51z
M770 199h21q197 0 314.5 138t117.5 380t-117.5 380t-314.5 138h-21q-197 0 -313.5 -138t-116.5 -380t116.5 -380t313.5 -138z" />
    <glyph glyph-name="multiply" unicode="&#xd7;" horiz-adv-x="1116" 
d="M557 379l-305 -305l-148 149l304 303l-306 305l152 152l305 -305l303 305l150 -152l-303 -301l305 -305l-152 -151z" />
    <glyph glyph-name="Oslash" unicode="&#xd8;" horiz-adv-x="1576" 
d="M1458 1378l-133 -168q152 -198 152 -493q0 -170 -51.5 -309t-142.5 -232.5t-218 -144.5t-277 -51q-205 0 -362 92l-125 -160l-184 143l133 170q-150 196 -150 492q0 170 51 309t142.5 232.5t218 144.5t276.5 51q205 0 361 -90l125 158zM346 717q0 -169 62 -293l600 760
q-91 51 -209 51h-21q-197 0 -314.5 -138t-117.5 -380zM778 199h21q197 0 314.5 138t117.5 380q0 168 -62 295l-602 -762q94 -51 211 -51z" />
    <glyph glyph-name="Ugrave" unicode="&#xd9;" horiz-adv-x="1433" 
d="M813 1538h-168l-203 285h283zM717 -20q-279 0 -417 138t-138 388v928h246v-895q0 -340 299 -340h20q299 0 299 340v895h246v-928q0 -249 -139.5 -387.5t-415.5 -138.5z" />
    <glyph glyph-name="Uacute" unicode="&#xda;" horiz-adv-x="1433" 
d="M801 1538h-168l88 285h283zM717 -20q-279 0 -417 138t-138 388v928h246v-895q0 -340 299 -340h20q299 0 299 340v895h246v-928q0 -249 -139.5 -387.5t-415.5 -138.5z" />
    <glyph glyph-name="Ucircumflex" unicode="&#xdb;" horiz-adv-x="1433" 
d="M889 1538l-172 129l-172 -129h-199l236 285h270l235 -285h-198zM1026 539v895h246v-928q0 -249 -139.5 -387.5t-415.5 -138.5q-279 0 -417 138t-138 388v928h246v-895q0 -340 299 -340h20q299 0 299 340z" />
    <glyph glyph-name="Udieresis" unicode="&#xdc;" horiz-adv-x="1433" 
d="M637 1579h-234v229h234v-229zM1032 1579h-235v229h235v-229zM717 -20q-279 0 -417 138t-138 388v928h246v-895q0 -340 299 -340h20q299 0 299 340v895h246v-928q0 -249 -139.5 -387.5t-415.5 -138.5z" />
    <glyph glyph-name="Yacute" unicode="&#xdd;" horiz-adv-x="1312" 
d="M743 1538h-165l88 285h282zM780 0h-245v582l-525 852h281l373 -615l368 615h273l-525 -852v-582z" />
    <glyph glyph-name="Thorn" unicode="&#xde;" horiz-adv-x="1351" 
d="M420 0h-246v1434h246v-269h377q209 0 338 -118.5t129 -329.5t-129 -330t-338 -119h-377v-268zM420 946v-459h352q119 0 182.5 61t63.5 169t-63.5 168.5t-182.5 60.5h-352z" />
    <glyph glyph-name="germandbls" unicode="&#xdf;" horiz-adv-x="1130" 
d="M379 -379h-236v1409q0 189 118 306.5t319 117.5q189 0 303 -106.5t114 -262.5q0 -122 -66 -205t-167 -120q111 -16 198 -112.5t87 -237.5q0 -187 -128 -298.5t-333 -111.5h-103v197h56q128 0 200 62.5t72 170.5q0 109 -77 167t-191 58h-60v193h56q97 0 164 60t67 155
q0 90 -52 144.5t-132 54.5h-17q-83 0 -137.5 -61.5t-54.5 -180.5v-1399z" />
    <glyph glyph-name="agrave" unicode="&#xe0;" horiz-adv-x="1091" 
d="M616 1139h-145l-197 295h265zM420 -20q-143 0 -239.5 84.5t-96.5 216.5q0 82 31.5 144.5t86 100.5t118.5 58t139 26l268 23v29q0 87 -50 138.5t-136 51.5h-17q-76 0 -127 -39t-57 -98h-236q12 144 129.5 236.5t298.5 92.5q196 0 310 -103t114 -273v-443q0 -146 11 -225
h-222q-10 49 -10 141q-42 -71 -125.5 -116t-189.5 -45zM461 172h16q95 0 172.5 66t77.5 159v62l-238 -23q-72 -7 -122 -43t-50 -98q0 -54 41 -88.5t103 -34.5z" />
    <glyph glyph-name="aacute" unicode="&#xe1;" horiz-adv-x="1091" 
d="M608 1139h-143l76 295h264zM420 -20q-143 0 -239.5 84.5t-96.5 216.5q0 82 31.5 144.5t86 100.5t118.5 58t139 26l268 23v29q0 87 -50 138.5t-136 51.5h-17q-76 0 -127 -39t-57 -98h-236q12 144 129.5 236.5t298.5 92.5q196 0 310 -103t114 -273v-443q0 -146 11 -225
h-222q-10 49 -10 141q-42 -71 -125.5 -116t-189.5 -45zM461 172h16q95 0 172.5 66t77.5 159v62l-238 -23q-72 -7 -122 -43t-50 -98q0 -54 41 -88.5t103 -34.5z" />
    <glyph glyph-name="acircumflex" unicode="&#xe2;" horiz-adv-x="1091" 
d="M745 1139l-204 151l-205 -151h-156l223 295h275l223 -295h-156zM956 668v-443q0 -146 11 -225h-222q-10 49 -10 141q-42 -71 -125.5 -116t-189.5 -45q-143 0 -239.5 84.5t-96.5 216.5q0 82 31.5 144.5t86 100.5t118.5 58t139 26l268 23v29q0 87 -50 138.5t-136 51.5h-17
q-76 0 -127 -39t-57 -98h-236q12 144 129.5 236.5t298.5 92.5q196 0 310 -103t114 -273zM727 397v62l-238 -23q-72 -7 -122 -43t-50 -98q0 -54 41 -88.5t103 -34.5h16q95 0 172.5 66t77.5 159z" />
    <glyph glyph-name="atilde" unicode="&#xe3;" horiz-adv-x="1091" 
d="M707 1137q-68 0 -170 57l-43 25q-53 32 -91 32q-30 0 -49.5 -25t-19.5 -69h-174v53q0 94 62 160t155 66q33 0 65 -9t51.5 -18.5t49.5 -26.5l39 -22q7 -4 24.5 -13.5t27 -14t23 -9t25.5 -4.5q29 0 47.5 25.5t18.5 70.5h172v-53q0 -94 -62 -159.5t-151 -65.5zM420 -20
q-143 0 -239.5 84.5t-96.5 216.5q0 82 31.5 144.5t86 100.5t118.5 58t139 26l268 23v29q0 87 -50 138.5t-136 51.5h-17q-76 0 -127 -39t-57 -98h-236q12 144 129.5 236.5t298.5 92.5q196 0 310 -103t114 -273v-443q0 -146 11 -225h-222q-10 49 -10 141q-42 -71 -125.5 -116
t-189.5 -45zM461 172h16q95 0 172.5 66t77.5 159v62l-238 -23q-72 -7 -122 -43t-50 -98q0 -54 41 -88.5t103 -34.5z" />
    <glyph glyph-name="adieresis" unicode="&#xe4;" horiz-adv-x="1091" 
d="M455 1180h-228v243h228v-243zM856 1180h-229v243h229v-243zM420 -20q-143 0 -239.5 84.5t-96.5 216.5q0 82 31.5 144.5t86 100.5t118.5 58t139 26l268 23v29q0 87 -50 138.5t-136 51.5h-17q-76 0 -127 -39t-57 -98h-236q12 144 129.5 236.5t298.5 92.5q196 0 310 -103
t114 -273v-443q0 -146 11 -225h-222q-10 49 -10 141q-42 -71 -125.5 -116t-189.5 -45zM461 172h16q95 0 172.5 66t77.5 159v62l-238 -23q-72 -7 -122 -43t-50 -98q0 -54 41 -88.5t103 -34.5z" />
    <glyph glyph-name="aring" unicode="&#xe5;" horiz-adv-x="1091" 
d="M541 1118q-84 0 -145.5 59.5t-61.5 147.5q0 83 62.5 144t144.5 61q85 0 146 -61t61 -144q0 -88 -60.5 -147.5t-146.5 -59.5zM543 1235q37 0 62.5 26.5t25.5 63.5t-25.5 63.5t-62.5 26.5t-63.5 -26.5t-26.5 -63.5t26.5 -63.5t63.5 -26.5zM420 -20q-143 0 -239.5 84.5
t-96.5 216.5q0 82 31.5 144.5t86 100.5t118.5 58t139 26l268 23v29q0 87 -50 138.5t-136 51.5h-17q-76 0 -127 -39t-57 -98h-236q12 144 129.5 236.5t298.5 92.5q196 0 310 -103t114 -273v-443q0 -146 11 -225h-222q-10 49 -10 141q-42 -71 -125.5 -116t-189.5 -45zM461 172
h16q95 0 172.5 66t77.5 159v62l-238 -23q-72 -7 -122 -43t-50 -98q0 -54 41 -88.5t103 -34.5z" />
    <glyph glyph-name="ae" unicode="&#xe6;" horiz-adv-x="1751" 
d="M432 -20q-152 0 -250 84t-98 217q0 82 32 144.5t86.5 100.5t118.5 58t138 26l268 23v29q0 87 -50.5 138.5t-137.5 51.5h-11q-78 0 -130 -39t-58 -98h-236q12 144 129.5 236.5t298.5 92.5q228 0 340 -133q133 133 336 133q212 0 332.5 -135.5t120.5 -353.5q0 -69 -2 -104
h-703q9 -128 84 -203.5t170 -75.5h17q75 0 128.5 39t67.5 104h236q-32 -155 -152 -245t-297 -90q-120 0 -223.5 52.5t-171.5 153.5q-55 -95 -156.5 -150.5t-226.5 -55.5zM961 633h469q-4 105 -67 162t-153 57h-16q-90 0 -152.5 -54.5t-80.5 -164.5zM461 172h14
q96 0 174 65.5t78 159.5v62l-235 -23q-74 -7 -124.5 -43t-50.5 -98q0 -54 41 -88.5t103 -34.5z" />
    <glyph glyph-name="ccedilla" unicode="&#xe7;" horiz-adv-x="1097" 
d="M569 172h17q83 0 134.5 48t63.5 130h236q-13 -165 -116 -260.5t-273 -107.5v-74q82 -3 135 -52.5t53 -138.5q0 -96 -68 -153.5t-173 -57.5h-148v146h154q90 0 90 67q0 30 -21 49t-61 19h-90v197q-189 26 -302.5 169.5t-113.5 358.5q0 237 135.5 384.5t356.5 147.5
q192 0 309.5 -95.5t132.5 -274.5h-236q-12 82 -63.5 130t-134.5 48h-17q-122 0 -184.5 -96.5t-62.5 -243.5t62.5 -243.5t184.5 -96.5z" />
    <glyph glyph-name="egrave" unicode="&#xe8;" horiz-adv-x="1112" 
d="M641 1139h-143l-197 295h264zM571 -20q-97 0 -184 35t-154.5 100.5t-107 168t-39.5 228.5q0 243 134.5 387.5t346.5 144.5q213 0 334 -135.5t121 -353.5q0 -34 -4 -104h-703q9 -128 85.5 -203.5t170.5 -75.5h17q75 0 128 39t68 104h234q-32 -155 -151.5 -245t-295.5 -90z
M322 633h469q-6 105 -68 162t-152 57h-16q-89 0 -154.5 -56t-78.5 -163z" />
    <glyph glyph-name="eacute" unicode="&#xe9;" horiz-adv-x="1112" 
d="M635 1139h-146l78 295h264zM571 -20q-97 0 -184 35t-154.5 100.5t-107 168t-39.5 228.5q0 243 134.5 387.5t346.5 144.5q213 0 334 -135.5t121 -353.5q0 -34 -4 -104h-703q9 -128 85.5 -203.5t170.5 -75.5h17q75 0 128 39t68 104h234q-32 -155 -151.5 -245t-295.5 -90z
M322 633h469q-6 105 -68 162t-152 57h-16q-89 0 -154.5 -56t-78.5 -163z" />
    <glyph glyph-name="ecircumflex" unicode="&#xea;" horiz-adv-x="1112" 
d="M772 1139l-205 151l-205 -151h-155l223 295h275l223 -295h-156zM1022 555q0 -34 -4 -104h-703q9 -128 85.5 -203.5t170.5 -75.5h17q75 0 128 39t68 104h234q-32 -155 -151.5 -245t-295.5 -90q-97 0 -184 35t-154.5 100.5t-107 168t-39.5 228.5q0 243 134.5 387.5
t346.5 144.5q213 0 334 -135.5t121 -353.5zM322 633h469q-6 105 -68 162t-152 57h-16q-89 0 -154.5 -56t-78.5 -163z" />
    <glyph glyph-name="edieresis" unicode="&#xeb;" horiz-adv-x="1112" 
d="M481 1180h-229v243h229v-243zM881 1180h-228v243h228v-243zM571 -20q-97 0 -184 35t-154.5 100.5t-107 168t-39.5 228.5q0 243 134.5 387.5t346.5 144.5q213 0 334 -135.5t121 -353.5q0 -34 -4 -104h-703q9 -128 85.5 -203.5t170.5 -75.5h17q75 0 128 39t68 104h234
q-32 -155 -151.5 -245t-295.5 -90zM322 633h469q-6 105 -68 162t-152 57h-16q-89 0 -154.5 -56t-78.5 -163z" />
    <glyph glyph-name="igrave" unicode="&#xec;" horiz-adv-x="524" 
d="M338 1139h-145l-197 295h264zM379 0h-236v1024h236v-1024z" />
    <glyph glyph-name="iacute" unicode="&#xed;" horiz-adv-x="524" 
d="M330 1139h-144l76 295h264zM379 0h-236v1024h236v-1024z" />
    <glyph glyph-name="icircumflex" unicode="&#xee;" horiz-adv-x="524" 
d="M125 1434h274l224 -295h-156l-205 151l-205 -151h-155zM379 0h-236v1024h236v-1024z" />
    <glyph glyph-name="idieresis" unicode="&#xef;" horiz-adv-x="524" 
d="M176 1180h-227v243h227v-243zM578 1180h-230v243h230v-243zM379 0h-236v1024h236v-1024z" />
    <glyph glyph-name="eth" unicode="&#xf0;" horiz-adv-x="1179" 
d="M1014 1296l-121 -82q186 -229 186 -616q0 -127 -31 -237t-91.5 -196t-157.5 -135.5t-221 -49.5q-222 0 -358 145.5t-136 368.5q0 205 126.5 342t336.5 137q154 0 274 -101v5q-15 135 -96 223l-147 -99l-105 150l82 55q-95 29 -199 29v199q246 0 396 -95l155 105zM569 172
h19q115 0 188.5 88.5t73.5 231.5q0 129 -74.5 208.5t-189.5 79.5h-19q-112 0 -180 -78.5t-68 -207.5q0 -147 67.5 -234.5t182.5 -87.5z" />
    <glyph glyph-name="ntilde" unicode="&#xf1;" horiz-adv-x="1191" 
d="M772 1137q-68 0 -170 57l-43 25q-53 32 -90 32q-30 0 -50 -25t-20 -69h-174v53q0 94 62 160t155 66q74 0 164 -54l41 -22q7 -3 25 -13t27 -14.5t23 -9t26 -4.5q28 0 45.5 25.5t17.5 70.5h174v-53q0 -94 -62 -159.5t-151 -65.5zM379 0h-236v1024h236v-147q48 76 130 121.5
t187 45.5q176 0 269.5 -102.5t93.5 -273.5v-668h-236v633q0 104 -46.5 161.5t-135.5 57.5h-16q-101 0 -173.5 -79.5t-72.5 -201.5v-571z" />
    <glyph glyph-name="ograve" unicode="&#xf2;" horiz-adv-x="1173" 
d="M662 1139h-146l-197 295h265zM586 -20q-220 0 -361 149.5t-141 382.5t141 382.5t361 149.5q221 0 362.5 -149.5t141.5 -382.5t-141.5 -382.5t-362.5 -149.5zM578 172h16q117 0 187.5 90.5t70.5 249.5t-70.5 249.5t-187.5 90.5h-16q-116 0 -187.5 -90.5t-71.5 -249.5
t71.5 -249.5t187.5 -90.5z" />
    <glyph glyph-name="oacute" unicode="&#xf3;" horiz-adv-x="1173" 
d="M653 1139h-143l78 295h262zM586 -20q-220 0 -361 149.5t-141 382.5t141 382.5t361 149.5q221 0 362.5 -149.5t141.5 -382.5t-141.5 -382.5t-362.5 -149.5zM578 172h16q117 0 187.5 90.5t70.5 249.5t-70.5 249.5t-187.5 90.5h-16q-116 0 -187.5 -90.5t-71.5 -249.5
t71.5 -249.5t187.5 -90.5z" />
    <glyph glyph-name="ocircumflex" unicode="&#xf4;" horiz-adv-x="1173" 
d="M791 1139l-205 151l-205 -151h-154l222 295h274l223 -295h-155zM586 1044q221 0 362.5 -149.5t141.5 -382.5t-141.5 -382.5t-362.5 -149.5q-220 0 -361 149.5t-141 382.5t141 382.5t361 149.5zM578 172h16q117 0 187.5 90.5t70.5 249.5t-70.5 249.5t-187.5 90.5h-16
q-116 0 -187.5 -90.5t-71.5 -249.5t71.5 -249.5t187.5 -90.5z" />
    <glyph glyph-name="otilde" unicode="&#xf5;" horiz-adv-x="1173" 
d="M752 1137q-68 0 -170 57l-43 25q-53 32 -90 32q-29 0 -49.5 -25t-20.5 -69h-172v53q0 94 61.5 160t153.5 66q34 0 66.5 -9t50.5 -18t49 -27l39 -22q7 -4 24.5 -13.5t27 -14t23 -9t25.5 -4.5q29 0 47.5 25.5t18.5 70.5h172v-53q0 -94 -61.5 -159.5t-151.5 -65.5zM586 -20
q-220 0 -361 149.5t-141 382.5t141 382.5t361 149.5q221 0 362.5 -149.5t141.5 -382.5t-141.5 -382.5t-362.5 -149.5zM578 172h16q117 0 187.5 90.5t70.5 249.5t-70.5 249.5t-187.5 90.5h-16q-116 0 -187.5 -90.5t-71.5 -249.5t71.5 -249.5t187.5 -90.5z" />
    <glyph glyph-name="odieresis" unicode="&#xf6;" horiz-adv-x="1173" 
d="M500 1180h-228v243h228v-243zM901 1180h-229v243h229v-243zM586 -20q-220 0 -361 149.5t-141 382.5t141 382.5t361 149.5q221 0 362.5 -149.5t141.5 -382.5t-141.5 -382.5t-362.5 -149.5zM578 172h16q117 0 187.5 90.5t70.5 249.5t-70.5 249.5t-187.5 90.5h-16
q-116 0 -187.5 -90.5t-71.5 -249.5t71.5 -249.5t187.5 -90.5z" />
    <glyph glyph-name="divide" unicode="&#xf7;" horiz-adv-x="1230" 
d="M743 745h-256v261h256v-261zM1120 422h-1011v211h1011v-211zM743 49h-256v260h256v-260z" />
    <glyph glyph-name="oslash" unicode="&#xf8;" horiz-adv-x="1183" 
d="M1087 1001l-106 -137q115 -143 115 -352q0 -233 -141.5 -382.5t-362.5 -149.5q-135 0 -244 59l-102 -133l-152 127l105 135q-109 140 -109 344q0 233 141 382.5t361 149.5q131 0 235 -55l99 129zM326 512q0 -78 20 -150l359 467q-51 23 -105 23h-16q-116 0 -187 -90.5
t-71 -249.5zM584 172h16q117 0 187.5 90.5t70.5 249.5q0 92 -24 160l-363 -473q56 -27 113 -27z" />
    <glyph glyph-name="ugrave" unicode="&#xf9;" horiz-adv-x="1171" 
d="M657 1139h-145l-197 295h265zM481 -20q-171 0 -259.5 103.5t-88.5 276.5v664h236v-629q0 -110 45 -166.5t131 -56.5h16q94 0 163 83t69 206v563h235v-1024h-235v168q-40 -84 -122 -136t-190 -52z" />
    <glyph glyph-name="uacute" unicode="&#xfa;" horiz-adv-x="1171" 
d="M649 1139h-143l76 295h264zM481 -20q-171 0 -259.5 103.5t-88.5 276.5v664h236v-629q0 -110 45 -166.5t131 -56.5h16q94 0 163 83t69 206v563h235v-1024h-235v168q-40 -84 -122 -136t-190 -52z" />
    <glyph glyph-name="ucircumflex" unicode="&#xfb;" horiz-adv-x="1171" 
d="M786 1139l-204 151l-205 -151h-156l223 295h275l223 -295h-156zM793 461v563h235v-1024h-235v168q-40 -84 -122 -136t-190 -52q-171 0 -259.5 103.5t-88.5 276.5v664h236v-629q0 -110 45 -166.5t131 -56.5h16q94 0 163 83t69 206z" />
    <glyph glyph-name="udieresis" unicode="&#xfc;" horiz-adv-x="1171" 
d="M496 1180h-228v243h228v-243zM897 1180h-229v243h229v-243zM481 -20q-171 0 -259.5 103.5t-88.5 276.5v664h236v-629q0 -110 45 -166.5t131 -56.5h16q94 0 163 83t69 206v563h235v-1024h-235v168q-40 -84 -122 -136t-190 -52z" />
    <glyph glyph-name="yacute" unicode="&#xfd;" horiz-adv-x="1140" 
d="M584 1434h262l-197 -295h-143zM870 1024h256l-430 -963v-215q0 -245 -243 -245h-359v206h279q60 0 80 20t20 79v145l-440 973h260l293 -680z" />
    <glyph glyph-name="thorn" unicode="&#xfe;" horiz-adv-x="1226" 
d="M379 -410h-236v1844h236v-547q38 64 124.5 110.5t188.5 46.5q206 0 327.5 -149.5t121.5 -382.5q0 -232 -125 -382t-332 -150q-101 0 -184 46t-121 111v-547zM637 172h16q110 0 181 90.5t71 247.5q0 159 -71 250.5t-181 91.5h-16q-106 0 -182 -92t-76 -248t76 -248
t182 -92z" />
    <glyph glyph-name="ydieresis" unicode="&#xff;" horiz-adv-x="1140" 
d="M268 1423h228v-243h-228v243zM668 1423h229v-243h-229v243zM870 1024h256l-430 -963v-215q0 -245 -243 -245h-359v206h279q60 0 80 20t20 79v145l-440 973h260l293 -680z" />
    <glyph glyph-name="Amacron" unicode="&#x100;" horiz-adv-x="1443" 
d="M397 1774h654v-195h-654v195zM1430 0h-259l-135 350h-637l-135 -350h-256l567 1434h297zM717 1178l-234 -607h467z" />
    <glyph glyph-name="amacron" unicode="&#x101;" horiz-adv-x="1091" 
d="M844 1180h-608v188h608v-188zM420 -20q-143 0 -239.5 84.5t-96.5 216.5q0 82 31.5 144.5t86 100.5t118.5 58t139 26l268 23v29q0 87 -50 138.5t-136 51.5h-17q-76 0 -127 -39t-57 -98h-236q12 144 129.5 236.5t298.5 92.5q196 0 310 -103t114 -273v-443q0 -146 11 -225
h-222q-10 49 -10 141q-42 -71 -125.5 -116t-189.5 -45zM461 172h16q95 0 172.5 66t77.5 159v62l-238 -23q-72 -7 -122 -43t-50 -98q0 -54 41 -88.5t103 -34.5z" />
    <glyph glyph-name="Abreve" unicode="&#x102;" horiz-adv-x="1443" 
d="M725 1524q-147 0 -241 81t-95 218h195q4 -62 44 -93.5t97 -31.5q56 0 96 31.5t43 93.5h195q-1 -137 -95 -218t-239 -81zM1430 0h-259l-135 350h-637l-135 -350h-256l567 1434h297zM717 1178l-234 -607h467z" />
    <glyph glyph-name="abreve" unicode="&#x103;" horiz-adv-x="1091" 
d="M541 1133q-145 0 -234.5 76t-93.5 225h193q4 -72 39.5 -109t95.5 -37t96.5 37t40.5 109h190q-4 -149 -94.5 -225t-232.5 -76zM420 -20q-143 0 -239.5 84.5t-96.5 216.5q0 82 31.5 144.5t86 100.5t118.5 58t139 26l268 23v29q0 87 -50 138.5t-136 51.5h-17q-76 0 -127 -39
t-57 -98h-236q12 144 129.5 236.5t298.5 92.5q196 0 310 -103t114 -273v-443q0 -146 11 -225h-222q-10 49 -10 141q-42 -71 -125.5 -116t-189.5 -45zM461 172h16q95 0 172.5 66t77.5 159v62l-238 -23q-72 -7 -122 -43t-50 -98q0 -54 41 -88.5t103 -34.5z" />
    <glyph glyph-name="Aogonek" unicode="&#x104;" horiz-adv-x="1443" 
d="M1262 -193q0 -49 32.5 -71.5t81.5 -22.5h49v-151h-88q-108 0 -173.5 54.5t-65.5 137.5q0 148 166 246h-93l-135 350h-637l-135 -350h-256l567 1434h297l558 -1434q-168 -99 -168 -193zM717 1178l-234 -607h467z" />
    <glyph glyph-name="aogonek" unicode="&#x105;" horiz-adv-x="1091" 
d="M799 -193q0 -49 32.5 -71.5t83.5 -22.5h48v-151h-89q-107 0 -172 54.5t-65 137.5q0 147 164 246h-56q-10 49 -10 141q-42 -71 -125.5 -116t-189.5 -45q-143 0 -239.5 84.5t-96.5 216.5q0 82 31.5 144.5t86 100.5t118.5 58t139 26l268 23v29q0 87 -50 138.5t-136 51.5h-17
q-76 0 -127 -39t-57 -98h-236q12 144 129.5 236.5t298.5 92.5q196 0 310 -103t114 -273v-443q0 -146 11 -225q-168 -99 -168 -193zM727 397v62l-238 -23q-72 -7 -122 -43t-50 -98q0 -54 41 -88.5t103 -34.5h16q95 0 172.5 66t77.5 159z" />
    <glyph glyph-name="Cacute" unicode="&#x106;" horiz-adv-x="1449" 
d="M860 1538h-168l88 285h283zM776 -20q-212 0 -367.5 94.5t-235 260t-79.5 382.5t79.5 382.5t235 260t367.5 94.5q257 0 416 -134t174 -349h-246q-20 123 -109 193.5t-225 70.5h-20q-195 0 -310.5 -143t-115.5 -375t115.5 -375t310.5 -143h20q137 0 225.5 70t108.5 194h246
q-15 -217 -174 -350t-416 -133z" />
    <glyph glyph-name="cacute" unicode="&#x107;" horiz-adv-x="1097" 
d="M645 1139h-143l78 295h262zM578 -20q-221 0 -356.5 147.5t-135.5 384.5t135.5 384.5t356.5 147.5q192 0 309.5 -95.5t132.5 -274.5h-236q-12 82 -63.5 130t-134.5 48h-17q-122 0 -184.5 -96.5t-62.5 -243.5t62.5 -243.5t184.5 -96.5h17q83 0 134.5 48t63.5 130h236
q-15 -179 -132.5 -274.5t-309.5 -95.5z" />
    <glyph glyph-name="Ccircumflex" unicode="&#x108;" horiz-adv-x="1449" 
d="M948 1538l-172 129l-172 -129h-198l235 285h270l236 -285h-199zM766 199h20q137 0 225.5 70t108.5 194h246q-15 -217 -174 -350t-416 -133q-212 0 -367.5 94.5t-235 260t-79.5 382.5t79.5 382.5t235 260t367.5 94.5q257 0 416 -134t174 -349h-246q-20 123 -109 193.5
t-225 70.5h-20q-195 0 -310.5 -143t-115.5 -375t115.5 -375t310.5 -143z" />
    <glyph glyph-name="ccircumflex" unicode="&#x109;" horiz-adv-x="1097" 
d="M782 1139l-204 151l-205 -151h-154l221 295h275l223 -295h-156zM569 172h17q83 0 134.5 48t63.5 130h236q-15 -179 -132.5 -274.5t-309.5 -95.5q-221 0 -356.5 147.5t-135.5 384.5t135.5 384.5t356.5 147.5q192 0 309.5 -95.5t132.5 -274.5h-236q-12 82 -63.5 130
t-134.5 48h-17q-122 0 -184.5 -96.5t-62.5 -243.5t62.5 -243.5t184.5 -96.5z" />
    <glyph glyph-name="Cdotaccent" unicode="&#x10a;" horiz-adv-x="1449" 
d="M903 1579h-256v256h256v-256zM776 -20q-212 0 -367.5 94.5t-235 260t-79.5 382.5t79.5 382.5t235 260t367.5 94.5q257 0 416 -134t174 -349h-246q-20 123 -109 193.5t-225 70.5h-20q-195 0 -310.5 -143t-115.5 -375t115.5 -375t310.5 -143h20q137 0 225.5 70t108.5 194
h246q-15 -217 -174 -350t-416 -133z" />
    <glyph glyph-name="cdotaccent" unicode="&#x10b;" horiz-adv-x="1097" 
d="M707 1180h-256v254h256v-254zM578 -20q-221 0 -356.5 147.5t-135.5 384.5t135.5 384.5t356.5 147.5q192 0 309.5 -95.5t132.5 -274.5h-236q-12 82 -63.5 130t-134.5 48h-17q-122 0 -184.5 -96.5t-62.5 -243.5t62.5 -243.5t184.5 -96.5h17q83 0 134.5 48t63.5 130h236
q-15 -179 -132.5 -274.5t-309.5 -95.5z" />
    <glyph glyph-name="Ccaron" unicode="&#x10c;" horiz-adv-x="1449" 
d="M1147 1823l-236 -285h-270l-235 285h198l172 -127l172 127h199zM766 199h20q137 0 225.5 70t108.5 194h246q-15 -217 -174 -350t-416 -133q-212 0 -367.5 94.5t-235 260t-79.5 382.5t79.5 382.5t235 260t367.5 94.5q257 0 416 -134t174 -349h-246q-20 123 -109 193.5
t-225 70.5h-20q-195 0 -310.5 -143t-115.5 -375t115.5 -375t310.5 -143z" />
    <glyph glyph-name="ccaron" unicode="&#x10d;" horiz-adv-x="1097" 
d="M938 1434l-223 -295h-275l-221 295h154l205 -150l204 150h156zM569 172h17q83 0 134.5 48t63.5 130h236q-15 -179 -132.5 -274.5t-309.5 -95.5q-221 0 -356.5 147.5t-135.5 384.5t135.5 384.5t356.5 147.5q192 0 309.5 -95.5t132.5 -274.5h-236q-12 82 -63.5 130
t-134.5 48h-17q-122 0 -184.5 -96.5t-62.5 -243.5t62.5 -243.5t184.5 -96.5z" />
    <glyph glyph-name="Dcaron" unicode="&#x10e;" horiz-adv-x="1470" 
d="M1059 1823l-236 -285h-270l-236 285h199l172 -127l172 127h199zM174 1434h502q156 0 285 -47.5t221 -137t143 -225.5t51 -307q0 -341 -188 -529t-506 -188h-508v1434zM420 219h235q226 0 350.5 121t124.5 377t-124.5 376.5t-350.5 120.5h-235v-995z" />
    <glyph glyph-name="dcaron" unicode="&#x10f;" horiz-adv-x="1366" 
d="M532 -20q-205 0 -326.5 150t-121.5 382q0 231 126 381.5t333 150.5q102 0 184.5 -46t118.5 -111v547h235v-1434h-235v137q-36 -64 -123.5 -110.5t-190.5 -46.5zM1233 975h-47v133h37q110 0 110 80v6h-100v240h235v-244q0 -94 -64.5 -154.5t-170.5 -60.5zM573 172h17
q105 0 180.5 92t75.5 248t-75.5 248t-180.5 92h-17q-111 0 -182.5 -90.5t-71.5 -247.5q0 -158 71.5 -250t182.5 -92z" />
    <glyph glyph-name="Dcroat" unicode="&#x110;" horiz-adv-x="1529" 
d="M233 1434h500q210 0 367 -81.5t245.5 -245t88.5 -390.5q0 -342 -188 -529.5t-507 -187.5h-506v606h-202v221h202v607zM479 219h234q227 0 351 120.5t124 377.5q0 497 -475 497h-234v-387h271v-221h-271v-387z" />
    <glyph glyph-name="dcroat" unicode="&#x111;" horiz-adv-x="1226" 
d="M1081 1317h170v-174h-170v-1143h-235v137q-36 -64 -123.5 -110.5t-190.5 -46.5q-205 0 -326.5 150t-121.5 382q0 231 126 381.5t333 150.5q102 0 184.5 -46t118.5 -111v256h-285v174h285v117h235v-117zM573 172h17q105 0 180.5 92t75.5 248t-75.5 248t-180.5 92h-17
q-111 0 -182.5 -90.5t-71.5 -247.5q0 -158 71.5 -250t182.5 -92z" />
    <glyph glyph-name="Emacron" unicode="&#x112;" horiz-adv-x="1345" 
d="M1051 1579h-652v195h652v-195zM1264 0h-1090v1434h1069v-220h-823v-368h700v-219h-700v-408h844v-219z" />
    <glyph glyph-name="emacron" unicode="&#x113;" horiz-adv-x="1112" 
d="M870 1180h-608v188h608v-188zM571 -20q-97 0 -184 35t-154.5 100.5t-107 168t-39.5 228.5q0 243 134.5 387.5t346.5 144.5q213 0 334 -135.5t121 -353.5q0 -34 -4 -104h-703q9 -128 85.5 -203.5t170.5 -75.5h17q75 0 128 39t68 104h234q-32 -155 -151.5 -245t-295.5 -90z
M322 633h469q-6 105 -68 162t-152 57h-16q-89 0 -154.5 -56t-78.5 -163z" />
    <glyph glyph-name="Ebreve" unicode="&#x114;" horiz-adv-x="1345" 
d="M725 1524q-145 0 -239 81t-95 218h195q3 -62 43 -93.5t96 -31.5q57 0 97 31.5t44 93.5h195q-1 -137 -95.5 -218t-240.5 -81zM1264 0h-1090v1434h1069v-220h-823v-368h700v-219h-700v-408h844v-219z" />
    <glyph glyph-name="ebreve" unicode="&#x115;" horiz-adv-x="1112" 
d="M567 1133q-145 0 -234 76t-93 225h192q4 -72 39.5 -109t95.5 -37t96 37t42 109h190q-2 -76 -28 -134t-71 -94t-102.5 -54.5t-126.5 -18.5zM571 -20q-97 0 -184 35t-154.5 100.5t-107 168t-39.5 228.5q0 243 134.5 387.5t346.5 144.5q213 0 334 -135.5t121 -353.5
q0 -34 -4 -104h-703q9 -128 85.5 -203.5t170.5 -75.5h17q75 0 128 39t68 104h234q-32 -155 -151.5 -245t-295.5 -90zM322 633h469q-6 105 -68 162t-152 57h-16q-89 0 -154.5 -56t-78.5 -163z" />
    <glyph glyph-name="Edotaccent" unicode="&#x116;" horiz-adv-x="1345" 
d="M852 1579h-256v256h256v-256zM1264 0h-1090v1434h1069v-220h-823v-368h700v-219h-700v-408h844v-219z" />
    <glyph glyph-name="edotaccent" unicode="&#x117;" horiz-adv-x="1112" 
d="M694 1180h-256v254h256v-254zM571 -20q-97 0 -184 35t-154.5 100.5t-107 168t-39.5 228.5q0 243 134.5 387.5t346.5 144.5q213 0 334 -135.5t121 -353.5q0 -34 -4 -104h-703q9 -128 85.5 -203.5t170.5 -75.5h17q75 0 128 39t68 104h234q-32 -155 -151.5 -245t-295.5 -90z
M322 633h469q-6 105 -68 162t-152 57h-16q-89 0 -154.5 -56t-78.5 -163z" />
    <glyph glyph-name="Eogonek" unicode="&#x118;" horiz-adv-x="1345" 
d="M1264 219v-219q-168 -99 -168 -193q0 -49 32.5 -71.5t81.5 -22.5h50v-151h-89q-108 0 -173.5 54.5t-65.5 137.5q0 148 166 246h-924v1434h1069v-220h-823v-368h700v-219h-700v-408h844z" />
    <glyph glyph-name="eogonek" unicode="&#x119;" horiz-adv-x="1112" 
d="M1022 555q0 -34 -4 -104h-703q9 -128 85.5 -203.5t170.5 -75.5h17q75 0 128 39t68 104h234q-26 -123 -108 -206.5t-205 -114.5q-160 -93 -160 -187q0 -49 32.5 -71.5t81.5 -22.5h50v-151h-88q-108 0 -174 54.5t-66 137.5q0 136 137 228q-89 10 -166 49t-137 104
t-94.5 162.5t-34.5 214.5q0 243 134.5 387.5t346.5 144.5q213 0 334 -135.5t121 -353.5zM322 633h469q-6 105 -68 162t-152 57h-16q-89 0 -154.5 -56t-78.5 -163z" />
    <glyph glyph-name="Ecaron" unicode="&#x11a;" horiz-adv-x="1345" 
d="M1096 1823l-236 -285h-270l-236 285h199l172 -127l172 127h199zM420 627v-408h844v-219h-1090v1434h1069v-220h-823v-368h700v-219h-700z" />
    <glyph glyph-name="ecaron" unicode="&#x11b;" horiz-adv-x="1112" 
d="M928 1434l-223 -295h-275l-223 295h155l205 -150l205 150h156zM1022 555q0 -34 -4 -104h-703q9 -128 85.5 -203.5t170.5 -75.5h17q75 0 128 39t68 104h234q-32 -155 -151.5 -245t-295.5 -90q-97 0 -184 35t-154.5 100.5t-107 168t-39.5 228.5q0 243 134.5 387.5
t346.5 144.5q213 0 334 -135.5t121 -353.5zM322 633h469q-6 105 -68 162t-152 57h-16q-89 0 -154.5 -56t-78.5 -163z" />
    <glyph glyph-name="Gcircumflex" unicode="&#x11c;" horiz-adv-x="1521" 
d="M961 1538l-170 129l-173 -129h-200l237 285h269l235 -285h-198zM795 739h438q85 0 129.5 -44.5t44.5 -129.5v-565h-215v150q-59 -70 -164.5 -120t-253.5 -50q-204 0 -360 96t-239 263t-83 378q0 212 85 378.5t246 262.5t372 96q269 0 428 -140t174 -364h-246
q-15 132 -104 208.5t-242 76.5h-21q-206 0 -326 -139.5t-120 -378.5t120 -378.5t326 -139.5h21q156 0 261 82.5t126 214.5l2 24h-399v219z" />
    <glyph glyph-name="gcircumflex" unicode="&#x11d;" horiz-adv-x="1210" 
d="M782 1139l-204 151l-205 -151h-156l221 295h277l221 -295h-154zM829 893v131h236v-1038q0 -88 -34 -166t-97 -139t-163 -96.5t-224 -35.5q-207 0 -337.5 91t-141.5 237h235q12 -63 78 -99t170 -36h14q119 0 191.5 69t72.5 203v138q-42 -70 -120 -111t-174 -41
q-90 0 -170 33.5t-143 97t-99.5 164.5t-36.5 227t36 227t98.5 164.5t143 97t171.5 33.5q97 0 176.5 -41t117.5 -110zM567 193h17q102 0 173.5 89.5t71.5 239.5q0 151 -69.5 240.5t-171.5 89.5h-17q-107 0 -178 -85.5t-71 -244.5t69 -244t176 -85z" />
    <glyph glyph-name="Gbreve" unicode="&#x11e;" horiz-adv-x="1521" 
d="M788 1524q-145 0 -238.5 81t-94.5 218h194q4 -62 43.5 -93.5t95.5 -31.5q57 0 97.5 31.5t44.5 93.5h194q-1 -137 -95 -218t-241 -81zM774 -20q-204 0 -360 96t-239 263t-83 378q0 212 85 378.5t246 262.5t372 96q269 0 428 -140t174 -364h-246q-15 132 -104 208.5
t-242 76.5h-21q-206 0 -326 -139.5t-120 -378.5t120 -378.5t326 -139.5h21q156 0 261 82.5t126 214.5l2 24h-399v219h438q85 0 129.5 -44.5t44.5 -129.5v-565h-215v150q-59 -70 -164.5 -120t-253.5 -50z" />
    <glyph glyph-name="gbreve" unicode="&#x11f;" horiz-adv-x="1210" 
d="M578 1133q-146 0 -235 75.5t-95 225.5h192q6 -73 41.5 -109.5t96.5 -36.5q60 0 95.5 37t39.5 109h192q-4 -149 -94.5 -225t-232.5 -76zM547 -451q-207 0 -337.5 91t-141.5 237h235q12 -63 78 -99t170 -36h14q119 0 191.5 69t72.5 203v138q-42 -70 -120 -111t-174 -41
q-90 0 -170 33.5t-143 97t-99.5 164.5t-36.5 227t36 227t98.5 164.5t143 97t171.5 33.5q97 0 176.5 -41t117.5 -110v131h236v-1038q0 -88 -34 -166t-97 -139t-163 -96.5t-224 -35.5zM567 193h17q102 0 173.5 89.5t71.5 239.5q0 151 -69.5 240.5t-171.5 89.5h-17
q-107 0 -178 -85.5t-71 -244.5t69 -244t176 -85z" />
    <glyph glyph-name="Gdotaccent" unicode="&#x120;" horiz-adv-x="1521" 
d="M918 1579h-256v256h256v-256zM774 -20q-204 0 -360 96t-239 263t-83 378q0 212 85 378.5t246 262.5t372 96q269 0 428 -140t174 -364h-246q-15 132 -104 208.5t-242 76.5h-21q-206 0 -326 -139.5t-120 -378.5t120 -378.5t326 -139.5h21q156 0 261 82.5t126 214.5l2 24
h-399v219h438q85 0 129.5 -44.5t44.5 -129.5v-565h-215v150q-59 -70 -164.5 -120t-253.5 -50z" />
    <glyph glyph-name="gdotaccent" unicode="&#x121;" horiz-adv-x="1210" 
d="M705 1180h-256v254h256v-254zM547 -451q-207 0 -337.5 91t-141.5 237h235q12 -63 78 -99t170 -36h14q119 0 191.5 69t72.5 203v138q-42 -70 -120 -111t-174 -41q-90 0 -170 33.5t-143 97t-99.5 164.5t-36.5 227t36 227t98.5 164.5t143 97t171.5 33.5q97 0 176.5 -41
t117.5 -110v131h236v-1038q0 -88 -34 -166t-97 -139t-163 -96.5t-224 -35.5zM567 193h17q102 0 173.5 89.5t71.5 239.5q0 151 -69.5 240.5t-171.5 89.5h-17q-107 0 -178 -85.5t-71 -244.5t69 -244t176 -85z" />
    <glyph glyph-name="uni0122" unicode="&#x122;" horiz-adv-x="1521" 
d="M774 -20q-204 0 -360 96t-239 263t-83 378q0 212 85 378.5t246 262.5t372 96q269 0 428 -140t174 -364h-246q-15 132 -104 208.5t-242 76.5h-21q-206 0 -326 -139.5t-120 -378.5t120 -378.5t326 -139.5h21q156 0 261 82.5t126 214.5l2 24h-399v219h438q85 0 129.5 -44.5
t44.5 -129.5v-565h-215v150q-59 -70 -164.5 -120t-253.5 -50zM668 -612h-47v131h36q111 0 111 80v6h-100v239h235v-243q0 -93 -64.5 -153t-170.5 -60z" />
    <glyph glyph-name="uni0123" unicode="&#x123;" horiz-adv-x="1210" 
d="M694 1649h47v-131h-36q-111 0 -111 -82v-4h100v-240h-235v244q0 93 64.5 153t170.5 60zM547 -451q-207 0 -337.5 91t-141.5 237h235q12 -63 78 -99t170 -36h14q119 0 191.5 69t72.5 203v138q-42 -70 -120 -111t-174 -41q-90 0 -170 33.5t-143 97t-99.5 164.5t-36.5 227
t36 227t98.5 164.5t143 97t171.5 33.5q97 0 176.5 -41t117.5 -110v131h236v-1038q0 -88 -34 -166t-97 -139t-163 -96.5t-224 -35.5zM567 193h17q102 0 173.5 89.5t71.5 239.5q0 151 -69.5 240.5t-171.5 89.5h-17q-107 0 -178 -85.5t-71 -244.5t69 -244t176 -85z" />
    <glyph glyph-name="Hcircumflex" unicode="&#x124;" horiz-adv-x="1509" 
d="M928 1538l-172 129l-172 -129h-199l236 285h270l235 -285h-198zM1090 827v607h245v-1434h-245v606h-670v-606h-246v1434h246v-607h670z" />
    <glyph glyph-name="hcircumflex" unicode="&#x125;" horiz-adv-x="1191" 
d="M834 1528l-205 151l-205 -151h-156l224 295h274l223 -295h-155zM696 1044q176 0 269.5 -102.5t93.5 -273.5v-668h-236v633q0 104 -46.5 161.5t-135.5 57.5h-16q-101 0 -173.5 -79.5t-72.5 -201.5v-571h-236v1434h236v-557q48 76 130 121.5t187 45.5z" />
    <glyph glyph-name="Hbar" unicode="&#x126;" horiz-adv-x="1546" 
d="M1354 1229h131v-205h-131v-1024h-246v606h-670v-606h-245v1024h-132v205h132v205h245v-205h670v205h246v-205zM438 827h670v197h-670v-197z" />
    <glyph glyph-name="hbar" unicode="&#x127;" horiz-adv-x="1191" 
d="M696 1044q176 0 269.5 -102.5t93.5 -273.5v-668h-236v633q0 104 -46.5 161.5t-135.5 57.5h-16q-101 0 -173.5 -79.5t-72.5 -201.5v-571h-236v1143h-153v174h153v117h236v-117h301v-174h-301v-266q48 76 130 121.5t187 45.5z" />
    <glyph glyph-name="Itilde" unicode="&#x128;" horiz-adv-x="595" 
d="M465 1540q-67 0 -172 57l-43 27q-61 33 -92 33q-32 1 -50 -24.5t-18 -71.5h-172v53q0 93 62 159t155 66q76 0 164 -53l39 -23q6 -3 25 -13.5t27.5 -14.5t22.5 -8.5t25 -4.5q32 0 49 25.5t17 71.5h172v-54q0 -97 -55.5 -161t-155.5 -64zM420 0h-246v1434h246v-1434z" />
    <glyph glyph-name="itilde" unicode="&#x129;" horiz-adv-x="524" 
d="M428 1137q-68 0 -170 57l-43 25q-53 32 -90 32q-30 0 -50 -25t-20 -69h-174v53q0 94 62 160t155 66q33 0 65 -9t51.5 -18.5t49.5 -26.5l39 -22q7 -4 24.5 -13.5t27 -14t23 -9t25.5 -4.5q29 0 47.5 25.5t18.5 70.5h172v-53q0 -94 -62 -159.5t-151 -65.5zM379 0h-236v1024
h236v-1024z" />
    <glyph glyph-name="Imacron" unicode="&#x12a;" horiz-adv-x="595" 
d="M625 1579h-654v195h654v-195zM420 0h-246v1434h246v-1434z" />
    <glyph glyph-name="imacron" unicode="&#x12b;" horiz-adv-x="524" 
d="M565 1180h-608v188h608v-188zM379 0h-236v1024h236v-1024z" />
    <glyph glyph-name="Ibreve" unicode="&#x12c;" horiz-adv-x="595" 
d="M299 1524q-147 0 -241 81t-95 218h195q4 -62 44 -93.5t97 -31.5q56 0 96 31.5t43 93.5h195q-1 -137 -95 -218t-239 -81zM420 0h-246v1434h246v-1434z" />
    <glyph glyph-name="ibreve" unicode="&#x12d;" horiz-adv-x="524" 
d="M262 1133q-145 0 -234.5 76t-93.5 225h193q4 -72 39.5 -109t95.5 -37t96.5 37t40.5 109h191q-2 -76 -28 -134t-71 -94t-102.5 -54.5t-126.5 -18.5zM379 0h-236v1024h236v-1024z" />
    <glyph glyph-name="Iogonek" unicode="&#x12e;" horiz-adv-x="595" 
d="M254 -193q0 -49 32.5 -71.5t82.5 -22.5h49v-151h-88q-108 0 -174 54.5t-66 137.5q0 148 166 246h-82v1434h246v-1434h2q-168 -99 -168 -193z" />
    <glyph glyph-name="iogonek" unicode="&#x12f;" horiz-adv-x="524" 
d="M133 1180v254h256v-254h-256zM213 0h-70v1024h236v-1024q-168 -99 -168 -193q0 -49 33 -71.5t84 -22.5h47v-151h-88q-107 0 -172.5 54.5t-65.5 137.5q0 147 164 246z" />
    <glyph glyph-name="Idotaccent" unicode="&#x130;" horiz-adv-x="595" 
d="M426 1579h-256v256h256v-256zM420 0h-246v1434h246v-1434z" />
    <glyph glyph-name="dotlessi" unicode="&#x131;" horiz-adv-x="524" 
d="M379 0h-236v1024h236v-1024z" />
    <glyph glyph-name="IJ" unicode="&#x132;" horiz-adv-x="1146" 
d="M588 0h-426v236h395q99 0 138.5 43t39.5 147v1008h246v-1035q0 -206 -94 -302.5t-299 -96.5zM408 412h-246v1022h246v-1022z" />
    <glyph glyph-name="ij" unicode="&#x133;" horiz-adv-x="1028" 
d="M389 1180h-256v254h256v-254zM893 1180h-256v254h256v-254zM645 -397h-502v204h406q55 0 76.5 22t21.5 77v1118h236v-1182q0 -117 -60.5 -178t-177.5 -61zM379 0h-236v1024h236v-1024z" />
    <glyph glyph-name="Jcircumflex" unicode="&#x134;" horiz-adv-x="860" 
d="M434 1823h271l235 -285h-199l-172 129l-172 -129h-198zM449 385v1049h245v-1117q0 -154 -81.5 -235.5t-235.5 -81.5h-320v236h242q82 0 116 33t34 116z" />
    <glyph glyph-name="jcircumflex" unicode="&#x135;" horiz-adv-x="540" 
d="M139 1434h275l223 -295h-156l-205 151l-204 -151h-154zM160 -94v1118h235v-1182q0 -117 -60 -178t-177 -61h-326v204h229q55 0 77 22.5t22 76.5z" />
    <glyph glyph-name="uni0136" unicode="&#x136;" horiz-adv-x="1396" 
d="M1380 1434l-567 -590l580 -844h-306l-452 659l-215 -223v-436h-246v1434h246v-672l651 672h309zM686 -395h-100v239h235v-243q0 -93 -64.5 -153t-170.5 -60h-47v131h36q111 0 111 80v6z" />
    <glyph glyph-name="uni0137" unicode="&#x137;" horiz-adv-x="1112" 
d="M379 0h-236v1434h236v-818l405 408h297l-407 -408l428 -616h-283l-311 451l-129 -127v-324zM473 -612h-45v131h35q110 0 110 80v6h-100v239h236v-243q0 -93 -65 -153t-171 -60z" />
    <glyph glyph-name="Lacute" unicode="&#x139;" horiz-adv-x="1277" 
d="M381 1538h-166l88 285h283zM1243 0h-1069v1434h246v-1215h823v-219z" />
    <glyph glyph-name="lacute" unicode="&#x13a;" horiz-adv-x="524" 
d="M330 1534h-144l76 295h264zM379 0h-236v1434h236v-1434z" />
    <glyph glyph-name="uni013B" unicode="&#x13b;" horiz-adv-x="1277" 
d="M1243 0h-1069v1434h246v-1215h823v-219zM594 -612h-47v131h37q110 0 110 80v6h-100v239h235v-243q0 -93 -64.5 -153t-170.5 -60z" />
    <glyph glyph-name="uni013C" unicode="&#x13c;" horiz-adv-x="524" 
d="M379 0h-236v1434h236v-1434zM143 -612h-45v131h35q111 0 111 80v6h-101v239h236v-243q0 -93 -65 -153t-171 -60z" />
    <glyph glyph-name="Lcaron" unicode="&#x13d;" horiz-adv-x="1282" 
d="M1243 0h-1069v1434h246v-1215h823v-219zM713 975h-45v133h34q113 0 113 80v6h-100v240h235v-244q0 -93 -65.5 -154t-171.5 -61z" />
    <glyph glyph-name="lcaron" unicode="&#x13e;" horiz-adv-x="663" 
d="M379 0h-236v1434h236v-1434zM528 975h-45v133h35q113 0 113 80v6h-101v240h236v-244q0 -93 -66 -154t-172 -61z" />
    <glyph glyph-name="Ldot" unicode="&#x13f;" horiz-adv-x="1280" 
d="M1243 0h-1069v1434h246v-1215h823v-219zM1026 614h-248v248h248v-248z" />
    <glyph glyph-name="ldot" unicode="&#x140;" horiz-adv-x="712" 
d="M379 0h-236v1434h236v-1434zM741 594h-247v248h247v-248z" />
    <glyph glyph-name="Lslash" unicode="&#x141;" horiz-adv-x="1366" 
d="M508 637v-418h823v-219h-1069v500l-190 -109v246l190 108v689h246v-551l364 207v-246z" />
    <glyph glyph-name="lslash" unicode="&#x142;" horiz-adv-x="663" 
d="M457 995l164 92v-223l-164 -92v-772h-236v637l-164 -92v223l164 92v574h236v-439z" />
    <glyph glyph-name="Nacute" unicode="&#x143;" horiz-adv-x="1529" 
d="M772 1823h283l-205 -285h-166zM1110 326v1108h246v-1434h-328l-608 1114v-1114h-246v1434h328z" />
    <glyph glyph-name="nacute" unicode="&#x144;" horiz-adv-x="1191" 
d="M674 1139h-146l78 295h264zM379 0h-236v1024h236v-147q48 76 130 121.5t187 45.5q176 0 269.5 -102.5t93.5 -273.5v-668h-236v633q0 104 -46.5 161.5t-135.5 57.5h-16q-101 0 -173.5 -79.5t-72.5 -201.5v-571z" />
    <glyph glyph-name="uni0145" unicode="&#x145;" horiz-adv-x="1529" 
d="M1110 326v1108h246v-1434h-328l-608 1114v-1114h-246v1434h328zM748 -395h-101v239h236v-243q0 -93 -65 -153t-171 -60h-45v131h35q111 0 111 80v6z" />
    <glyph glyph-name="uni0146" unicode="&#x146;" horiz-adv-x="1191" 
d="M379 0h-236v1024h236v-147q48 76 130 121.5t187 45.5q176 0 269.5 -102.5t93.5 -273.5v-668h-236v633q0 104 -46.5 161.5t-135.5 57.5h-16q-101 0 -173.5 -79.5t-72.5 -201.5v-571zM487 -612h-47v131h37q111 0 111 80v6h-101v239h236v-243q0 -93 -65 -153t-171 -60z" />
    <glyph glyph-name="Ncaron" unicode="&#x147;" horiz-adv-x="1529" 
d="M1139 1823l-238 -285h-268l-236 285h199l172 -127l172 127h199zM1110 326v1108h246v-1434h-328l-608 1114v-1114h-246v1434h328z" />
    <glyph glyph-name="ncaron" unicode="&#x148;" horiz-adv-x="1191" 
d="M967 1434l-224 -295h-274l-223 295h155l205 -150l205 150h156zM696 1044q176 0 269.5 -102.5t93.5 -273.5v-668h-236v633q0 104 -46.5 161.5t-135.5 57.5h-16q-101 0 -173.5 -79.5t-72.5 -201.5v-571h-236v1024h236v-147q48 76 130 121.5t187 45.5z" />
    <glyph glyph-name="Eng" unicode="&#x14a;" horiz-adv-x="1529" 
d="M1090 -401h-238v208h145q61 0 87 27t26 86v80l-690 1038v-1038h-246v1434h262l674 -1014v1014h246v-1569q0 -121 -72 -193.5t-194 -72.5z" />
    <glyph glyph-name="eng" unicode="&#x14b;" horiz-adv-x="1191" 
d="M696 1044q176 0 269.5 -102.5t93.5 -273.5v-828q0 -117 -61 -178t-179 -61h-225v206h129q56 0 78 22t22 77v727q0 104 -46.5 161.5t-135.5 57.5h-16q-101 0 -173.5 -79.5t-72.5 -201.5v-571h-236v1024h236v-147q48 76 130 121.5t187 45.5z" />
    <glyph glyph-name="Omacron" unicode="&#x14c;" horiz-adv-x="1562" 
d="M1106 1579h-651v195h651v-195zM780 -20q-149 0 -275.5 51t-217.5 144.5t-142 232.5t-51 309t51 309t142 232.5t217.5 144.5t275.5 51q150 0 276.5 -51t218 -144.5t142.5 -232.5t51 -309t-51 -309t-142.5 -232.5t-218 -144.5t-276.5 -51zM770 199h21q197 0 314.5 138
t117.5 380t-117.5 380t-314.5 138h-21q-197 0 -313.5 -138t-116.5 -380t116.5 -380t313.5 -138z" />
    <glyph glyph-name="omacron" unicode="&#x14d;" horiz-adv-x="1173" 
d="M889 1180h-606v188h606v-188zM586 -20q-220 0 -361 149.5t-141 382.5t141 382.5t361 149.5q221 0 362.5 -149.5t141.5 -382.5t-141.5 -382.5t-362.5 -149.5zM578 172h16q117 0 187.5 90.5t70.5 249.5t-70.5 249.5t-187.5 90.5h-16q-116 0 -187.5 -90.5t-71.5 -249.5
t71.5 -249.5t187.5 -90.5z" />
    <glyph glyph-name="Obreve" unicode="&#x14e;" horiz-adv-x="1562" 
d="M780 1524q-145 0 -239 81t-95 218h195q3 -62 43 -93.5t96 -31.5q57 0 97.5 31.5t44.5 93.5h194q-1 -137 -95 -218t-241 -81zM780 -20q-149 0 -275.5 51t-217.5 144.5t-142 232.5t-51 309t51 309t142 232.5t217.5 144.5t275.5 51q150 0 276.5 -51t218 -144.5t142.5 -232.5
t51 -309t-51 -309t-142.5 -232.5t-218 -144.5t-276.5 -51zM770 199h21q197 0 314.5 138t117.5 380t-117.5 380t-314.5 138h-21q-197 0 -313.5 -138t-116.5 -380t116.5 -380t313.5 -138z" />
    <glyph glyph-name="obreve" unicode="&#x14f;" horiz-adv-x="1173" 
d="M586 1133q-145 0 -234.5 76t-93.5 225h193q4 -72 39.5 -109t95.5 -37q61 0 97 37t40 109h192q-6 -149 -96.5 -225t-232.5 -76zM586 -20q-220 0 -361 149.5t-141 382.5t141 382.5t361 149.5q221 0 362.5 -149.5t141.5 -382.5t-141.5 -382.5t-362.5 -149.5zM578 172h16
q117 0 187.5 90.5t70.5 249.5t-70.5 249.5t-187.5 90.5h-16q-116 0 -187.5 -90.5t-71.5 -249.5t71.5 -249.5t187.5 -90.5z" />
    <glyph glyph-name="Ohungarumlaut" unicode="&#x150;" horiz-adv-x="1562" 
d="M676 1538h-166l88 285h283zM1042 1538h-168l89 285h282zM780 -20q-149 0 -275.5 51t-217.5 144.5t-142 232.5t-51 309t51 309t142 232.5t217.5 144.5t275.5 51q150 0 276.5 -51t218 -144.5t142.5 -232.5t51 -309t-51 -309t-142.5 -232.5t-218 -144.5t-276.5 -51zM770 199
h21q197 0 314.5 138t117.5 380t-117.5 380t-314.5 138h-21q-197 0 -313.5 -138t-116.5 -380t116.5 -380t313.5 -138z" />
    <glyph glyph-name="ohungarumlaut" unicode="&#x151;" horiz-adv-x="1173" 
d="M479 1139h-143l78 295h262zM805 1139h-143l77 295h262zM586 -20q-220 0 -361 149.5t-141 382.5t141 382.5t361 149.5q221 0 362.5 -149.5t141.5 -382.5t-141.5 -382.5t-362.5 -149.5zM578 172h16q117 0 187.5 90.5t70.5 249.5t-70.5 249.5t-187.5 90.5h-16
q-116 0 -187.5 -90.5t-71.5 -249.5t71.5 -249.5t187.5 -90.5z" />
    <glyph glyph-name="OE" unicode="&#x152;" horiz-adv-x="2394" 
d="M780 -20q-149 0 -275.5 51t-217.5 144.5t-142 232.5t-51 309t51 309t142 232.5t217.5 144.5t275.5 51q265 0 443 -149v129h1067v-220h-822v-368h699v-219h-699v-408h842v-219h-1087v129q-178 -149 -443 -149zM770 199h21q197 0 314.5 138t117.5 380t-117.5 380
t-314.5 138h-21q-197 0 -313.5 -138t-116.5 -380t116.5 -380t313.5 -138z" />
    <glyph glyph-name="oe" unicode="&#x153;" horiz-adv-x="1882" 
d="M586 -20q-220 0 -361 149.5t-141 382.5t141 382.5t361 149.5q241 0 383 -172q63 83 158.5 127.5t209.5 44.5q213 0 334 -135.5t121 -353.5q0 -34 -4 -104h-703q9 -128 84.5 -203.5t171.5 -75.5h17q75 0 128 39t68 104h234q-33 -155 -151.5 -245t-295.5 -90
q-111 0 -207.5 44.5t-162.5 129.5q-68 -83 -167.5 -128.5t-217.5 -45.5zM578 172h16q117 0 187.5 90.5t70.5 249.5t-70.5 249.5t-187.5 90.5h-16q-116 0 -187.5 -90.5t-71.5 -249.5t71.5 -249.5t187.5 -90.5zM1092 633h469q-6 105 -68 162t-152 57h-16q-89 0 -154.5 -56
t-78.5 -163z" />
    <glyph glyph-name="Racute" unicode="&#x154;" horiz-adv-x="1396" 
d="M756 1538h-166l88 285h280zM420 0h-246v1434h645q191 0 318 -111t127 -279q0 -135 -63 -228.5t-177 -133.5q116 0 167.5 -50t51.5 -153v-479h-246v418q0 80 -28.5 108.5t-108.5 28.5h-440v-555zM420 1214v-442h338q125 0 192.5 62t67.5 167t-66 159t-194 54h-338z" />
    <glyph glyph-name="racute" unicode="&#x155;" horiz-adv-x="784" 
d="M451 1139h-144l78 295h262zM379 0h-236v1024h232v-213q31 105 110 164t187 59h69v-221h-88q-133 0 -203.5 -73.5t-70.5 -213.5v-526z" />
    <glyph glyph-name="uni0156" unicode="&#x156;" horiz-adv-x="1396" 
d="M420 0h-246v1434h645q191 0 318 -111t127 -279q0 -135 -63 -228.5t-177 -133.5q116 0 167.5 -50t51.5 -153v-479h-246v418q0 80 -28.5 108.5t-108.5 28.5h-440v-555zM420 1214v-442h338q125 0 192.5 62t67.5 167t-66 159t-194 54h-338zM592 -612h-45v131h35q112 0 112 80
v6h-100v239h235v-243q0 -94 -65 -153.5t-172 -59.5z" />
    <glyph glyph-name="uni0157" unicode="&#x157;" horiz-adv-x="784" 
d="M379 0h-236v1024h232v-213q31 105 110 164t187 59h69v-221h-88q-133 0 -203.5 -73.5t-70.5 -213.5v-526zM143 -612h-47v131h37q111 0 111 80v6h-101v239h236v-243q0 -93 -65 -153t-171 -60z" />
    <glyph glyph-name="Rcaron" unicode="&#x158;" horiz-adv-x="1396" 
d="M1042 1823l-235 -285h-268l-238 285h199l172 -127l172 127h198zM1024 682q116 0 167.5 -50t51.5 -153v-479h-246v418q0 80 -28.5 108.5t-108.5 28.5h-440v-555h-246v1434h645q191 0 318 -111t127 -279q0 -135 -63 -228.5t-177 -133.5zM420 772h338q125 0 192.5 62
t67.5 167t-66 159t-194 54h-338v-442z" />
    <glyph glyph-name="rcaron" unicode="&#x159;" horiz-adv-x="784" 
d="M743 1434l-223 -295h-274l-221 295h153l205 -150l205 150h155zM375 1024v-213q31 105 110 164t187 59h69v-221h-88q-133 0 -203.5 -73.5t-70.5 -213.5v-526h-236v1024h232z" />
    <glyph glyph-name="Sacute" unicode="&#x15a;" horiz-adv-x="1292" 
d="M741 1538h-168l89 285h282zM641 -20q-274 0 -420.5 129.5t-154.5 363.5h245q5 -126 95 -200t249 -74h21q122 0 191 55t69 137q0 73 -43.5 117t-144.5 65l-244 50q-367 76 -367 409q0 83 36.5 158.5t103 134.5t168.5 94t223 35q247 0 390 -127t146 -336h-246
q-7 115 -86 179.5t-200 64.5h-21q-120 0 -194 -56.5t-74 -138.5q0 -75 45 -118t139 -62l221 -43q394 -78 394 -411q0 -189 -146 -307.5t-395 -118.5z" />
    <glyph glyph-name="sacute" unicode="&#x15b;" horiz-adv-x="1009" 
d="M567 1139h-143l76 295h264zM504 -20q-204 0 -319 94.5t-115 255.5h239q3 -78 57 -121t138 -43h16q71 0 116.5 31.5t45.5 83.5q0 45 -29 73t-92 41l-141 31q-152 35 -230.5 107.5t-78.5 195.5q0 143 112 229t289 86q196 0 305 -93t109 -251h-236q-8 72 -51.5 115
t-122.5 43h-16q-69 0 -112.5 -31t-43.5 -84q0 -45 34 -72t105 -42l148 -35q284 -65 284 -303q0 -137 -110 -224t-301 -87z" />
    <glyph glyph-name="Scircumflex" unicode="&#x15c;" horiz-adv-x="1292" 
d="M829 1538l-172 129l-172 -129h-198l235 285h271l235 -285h-199zM567 860l221 -43q394 -78 394 -411q0 -189 -146 -307.5t-395 -118.5q-274 0 -420.5 129.5t-154.5 363.5h245q5 -126 95 -200t249 -74h21q122 0 191 55t69 137q0 73 -43.5 117t-144.5 65l-244 50
q-367 76 -367 409q0 83 36.5 158.5t103 134.5t168.5 94t223 35q247 0 390 -127t146 -336h-246q-7 115 -86 179.5t-200 64.5h-21q-120 0 -194 -56.5t-74 -138.5q0 -75 45 -118t139 -62z" />
    <glyph glyph-name="scircumflex" unicode="&#x15d;" horiz-adv-x="1009" 
d="M705 1139l-205 151l-205 -151h-156l223 295h275l223 -295h-155zM483 629l148 -35q284 -65 284 -303q0 -137 -110 -224t-301 -87q-204 0 -319 94.5t-115 255.5h239q3 -78 57 -121t138 -43h16q71 0 116.5 31.5t45.5 83.5q0 45 -29 73t-92 41l-141 31q-152 35 -230.5 107.5
t-78.5 195.5q0 143 112 229t289 86q196 0 305 -93t109 -251h-236q-8 72 -51.5 115t-122.5 43h-16q-69 0 -112.5 -31t-43.5 -84q0 -45 34 -72t105 -42z" />
    <glyph glyph-name="Scedilla" unicode="&#x15e;" horiz-adv-x="1292" 
d="M567 860l221 -43q394 -78 394 -411q0 -177 -129 -293t-353 -131v-74q82 -3 134.5 -52.5t52.5 -138.5q0 -96 -67.5 -153.5t-172.5 -57.5h-149v146h153q92 0 92 67q0 31 -20.5 49.5t-60.5 18.5h-93v195q-240 17 -367.5 145t-135.5 346h245q5 -126 95 -200t249 -74h21
q122 0 191 55t69 137q0 73 -43.5 117t-144.5 65l-244 50q-367 76 -367 409q0 83 36.5 158.5t103 134.5t168.5 94t223 35q247 0 390 -127t146 -336h-246q-7 115 -86 179.5t-200 64.5h-21q-120 0 -194 -56.5t-74 -138.5q0 -75 45 -118t139 -62z" />
    <glyph glyph-name="scedilla" unicode="&#x15f;" horiz-adv-x="1009" 
d="M483 629l148 -35q284 -65 284 -303q0 -123 -92 -207.5t-254 -101.5v-74q82 -3 134.5 -52.5t52.5 -138.5q0 -97 -68 -154t-174 -57h-147v146h153q90 0 90 67q0 30 -20.5 49t-59.5 19h-92v195q-174 15 -271 108t-97 240h239q3 -78 57 -121t138 -43h16q71 0 116.5 31.5
t45.5 83.5q0 45 -29 73t-92 41l-141 31q-152 35 -230.5 107.5t-78.5 195.5q0 143 112 229t289 86q196 0 305 -93t109 -251h-236q-8 72 -51.5 115t-122.5 43h-16q-69 0 -112.5 -31t-43.5 -84q0 -45 34 -72t105 -42z" />
    <glyph glyph-name="Scaron" unicode="&#x160;" horiz-adv-x="1292" 
d="M1028 1823l-235 -285h-271l-235 285h198l172 -127l172 127h199zM567 860l221 -43q394 -78 394 -411q0 -189 -146 -307.5t-395 -118.5q-274 0 -420.5 129.5t-154.5 363.5h245q5 -126 95 -200t249 -74h21q122 0 191 55t69 137q0 73 -43.5 117t-144.5 65l-244 50
q-367 76 -367 409q0 83 36.5 158.5t103 134.5t168.5 94t223 35q247 0 390 -127t146 -336h-246q-7 115 -86 179.5t-200 64.5h-21q-120 0 -194 -56.5t-74 -138.5q0 -75 45 -118t139 -62z" />
    <glyph glyph-name="scaron" unicode="&#x161;" horiz-adv-x="1009" 
d="M860 1434l-223 -295h-275l-223 295h156l205 -150l205 150h155zM483 629l148 -35q284 -65 284 -303q0 -137 -110 -224t-301 -87q-204 0 -319 94.5t-115 255.5h239q3 -78 57 -121t138 -43h16q71 0 116.5 31.5t45.5 83.5q0 45 -29 73t-92 41l-141 31q-152 35 -230.5 107.5
t-78.5 195.5q0 143 112 229t289 86q196 0 305 -93t109 -251h-236q-8 72 -51.5 115t-122.5 43h-16q-69 0 -112.5 -31t-43.5 -84q0 -45 34 -72t105 -42z" />
    <glyph glyph-name="uni0162" unicode="&#x162;" horiz-adv-x="1325" 
d="M784 1214v-1214h-57v-92q82 -3 134 -52.5t52 -138.5q0 -96 -67 -153.5t-172 -57.5h-150v146h154q92 0 92 67q0 30 -21 49t-61 19h-92v213h-57v1214h-502v220h1251v-220h-504z" />
    <glyph glyph-name="uni0163" unicode="&#x163;" horiz-adv-x="815" 
d="M754 203v-203h-244v-92q83 -3 135.5 -52.5t52.5 -138.5q0 -96 -68 -153.5t-173 -57.5h-148v146h154q90 0 90 67q0 30 -21 49t-61 19h-90v233q-129 54 -129 228v581h-217v195h217v332h235v-332h236v-195h-236v-526q0 -60 20.5 -80t80.5 -20h166z" />
    <glyph glyph-name="Tcaron" unicode="&#x164;" horiz-adv-x="1325" 
d="M1032 1823l-235 -285h-269l-237 285h198l173 -127l172 127h198zM37 1214v220h1251v-220h-504v-1214h-245v1214h-502z" />
    <glyph glyph-name="tcaron" unicode="&#x165;" horiz-adv-x="815" 
d="M702 1139h-45v133h35q113 0 113 80v6h-100v239h235v-243q0 -93 -66 -154t-172 -61zM754 0h-254q-120 0 -184 64t-64 184v581h-217v195h217v332h235v-332h236v-195h-236v-526q0 -60 20.5 -80t80.5 -20h166v-203z" />
    <glyph glyph-name="Tbar" unicode="&#x166;" horiz-adv-x="1370" 
d="M1311 1434v-220h-504v-331h362v-213h-362v-670h-246v670h-360v213h360v331h-502v220h1252z" />
    <glyph glyph-name="tbar" unicode="&#x167;" horiz-adv-x="837" 
d="M606 203h168v-203h-254q-121 0 -185.5 64t-64.5 184v221h-217v172h217v188h-217v195h217v332h236v-332h237v-195h-237v-188h237v-172h-237v-166q0 -60 20 -80t80 -20z" />
    <glyph glyph-name="Utilde" unicode="&#x168;" horiz-adv-x="1433" 
d="M883 1540q-68 0 -170 57l-43 27q-60 33 -95 33q-32 1 -48.5 -24t-16.5 -72h-174v53q0 93 62 159t155 66q74 0 166 -53l39 -23q7 -4 24.5 -13.5t27 -14t23 -9t25.5 -4.5q31 0 48.5 25.5t17.5 71.5h172v-54q0 -97 -55.5 -161t-157.5 -64zM717 -20q-279 0 -417 138t-138 388
v928h246v-895q0 -340 299 -340h20q299 0 299 340v895h246v-928q0 -249 -139.5 -387.5t-415.5 -138.5z" />
    <glyph glyph-name="utilde" unicode="&#x169;" horiz-adv-x="1171" 
d="M748 1137q-68 0 -170 57l-43 25q-53 32 -91 32q-30 0 -49.5 -25t-19.5 -69h-174v53q0 94 62 160t155 66q33 0 65 -9t51.5 -18.5t49.5 -26.5l39 -22q7 -4 24.5 -13.5t27 -14t23 -9t25.5 -4.5q29 0 47 25.5t18 70.5h173v-53q0 -94 -62 -159.5t-151 -65.5zM481 -20
q-171 0 -259.5 103.5t-88.5 276.5v664h236v-629q0 -110 45 -166.5t131 -56.5h16q94 0 163 83t69 206v563h235v-1024h-235v168q-40 -84 -122 -136t-190 -52z" />
    <glyph glyph-name="Umacron" unicode="&#x16a;" horiz-adv-x="1433" 
d="M1042 1579h-651v195h651v-195zM717 -20q-279 0 -417 138t-138 388v928h246v-895q0 -340 299 -340h20q299 0 299 340v895h246v-928q0 -249 -139.5 -387.5t-415.5 -138.5z" />
    <glyph glyph-name="umacron" unicode="&#x16b;" horiz-adv-x="1171" 
d="M885 1180h-609v188h609v-188zM481 -20q-171 0 -259.5 103.5t-88.5 276.5v664h236v-629q0 -110 45 -166.5t131 -56.5h16q94 0 163 83t69 206v563h235v-1024h-235v168q-40 -84 -122 -136t-190 -52z" />
    <glyph glyph-name="Ubreve" unicode="&#x16c;" horiz-adv-x="1433" 
d="M717 1524q-145 0 -239 81t-95 218h195q3 -62 43 -93.5t96 -31.5q57 0 97 31.5t44 93.5h195q-1 -137 -95.5 -218t-240.5 -81zM717 -20q-279 0 -417 138t-138 388v928h246v-895q0 -340 299 -340h20q299 0 299 340v895h246v-928q0 -249 -139.5 -387.5t-415.5 -138.5z" />
    <glyph glyph-name="ubreve" unicode="&#x16d;" horiz-adv-x="1171" 
d="M582 1133q-145 0 -234.5 76t-93.5 225h192q4 -72 40 -109t96 -37t96.5 37t40.5 109h190q-4 -149 -94.5 -225t-232.5 -76zM481 -20q-171 0 -259.5 103.5t-88.5 276.5v664h236v-629q0 -110 45 -166.5t131 -56.5h16q94 0 163 83t69 206v563h235v-1024h-235v168
q-40 -84 -122 -136t-190 -52z" />
    <glyph glyph-name="Uring" unicode="&#x16e;" horiz-adv-x="1433" 
d="M717 1513q-84 0 -145.5 59t-61.5 146q0 84 62.5 145.5t144.5 61.5q86 0 147.5 -61t61.5 -146q0 -88 -61 -146.5t-148 -58.5zM719 1642q31 0 52.5 22.5t21.5 53.5t-22 54.5t-52 23.5q-31 0 -53.5 -23.5t-22.5 -54.5t22.5 -53.5t53.5 -22.5zM717 -20q-279 0 -417 138
t-138 388v928h246v-895q0 -340 299 -340h20q299 0 299 340v895h246v-928q0 -249 -139.5 -387.5t-415.5 -138.5z" />
    <glyph glyph-name="uring" unicode="&#x16f;" horiz-adv-x="1171" 
d="M582 1118q-84 0 -145.5 59.5t-61.5 147.5q0 83 62.5 144t144.5 61q84 0 145 -61t61 -144q0 -88 -60 -147.5t-146 -59.5zM584 1235q37 0 62.5 26.5t25.5 63.5t-25.5 63.5t-62.5 26.5t-63.5 -26.5t-26.5 -63.5t26.5 -63.5t63.5 -26.5zM481 -20q-171 0 -259.5 103.5
t-88.5 276.5v664h236v-629q0 -110 45 -166.5t131 -56.5h16q94 0 163 83t69 206v563h235v-1024h-235v168q-40 -84 -122 -136t-190 -52z" />
    <glyph glyph-name="Uhungarumlaut" unicode="&#x170;" horiz-adv-x="1433" 
d="M612 1538h-166l89 285h282zM977 1538h-166l88 285h283zM717 -20q-279 0 -417 138t-138 388v928h246v-895q0 -340 299 -340h20q299 0 299 340v895h246v-928q0 -249 -139.5 -387.5t-415.5 -138.5z" />
    <glyph glyph-name="uhungarumlaut" unicode="&#x171;" horiz-adv-x="1171" 
d="M475 1139h-143l76 295h264zM801 1139h-144l76 295h264zM481 -20q-171 0 -259.5 103.5t-88.5 276.5v664h236v-629q0 -110 45 -166.5t131 -56.5h16q94 0 163 83t69 206v563h235v-1024h-235v168q-40 -84 -122 -136t-190 -52z" />
    <glyph glyph-name="Uogonek" unicode="&#x172;" horiz-adv-x="1433" 
d="M1026 539v895h246v-928q0 -203 -93 -333.5t-278 -174.5q-74 -44 -120 -89.5t-46 -101.5q0 -49 33 -71.5t84 -22.5h47v-151h-88q-107 0 -172.5 54.5t-65.5 137.5q0 135 132 226q-273 3 -408 141t-135 385v928h246v-895q0 -340 299 -340h20q299 0 299 340z" />
    <glyph glyph-name="uogonek" unicode="&#x173;" horiz-adv-x="1171" 
d="M1028 1024v-1024q-168 -99 -168 -193q0 -49 32.5 -71.5t82.5 -22.5h49v-151h-88q-108 0 -174 54.5t-66 137.5q0 148 166 246h-69v168q-40 -84 -122 -136t-190 -52q-171 0 -259.5 103.5t-88.5 276.5v664h236v-629q0 -110 45 -166.5t131 -56.5h16q94 0 163 83t69 206v563
h235z" />
    <glyph glyph-name="Wcircumflex" unicode="&#x174;" horiz-adv-x="1933" 
d="M1145 1538l-172 129l-172 -129h-199l238 285h268l235 -285h-198zM1378 262l256 1172h256l-352 -1434h-324l-247 1114l-250 -1114h-324l-350 1434h254l266 -1168l256 1168h307z" />
    <glyph glyph-name="wcircumflex" unicode="&#x175;" horiz-adv-x="1609" 
d="M1010 1139l-205 151l-205 -151h-154l222 295h276l221 -295h-155zM1133 244l204 780h234l-303 -1024h-262l-199 752l-195 -752h-264l-313 1024h239l213 -784l193 784h250z" />
    <glyph glyph-name="Ycircumflex" unicode="&#x176;" horiz-adv-x="1312" 
d="M831 1538l-169 129l-173 -129h-198l235 285h269l237 -285h-201zM664 819l368 615h273l-525 -852v-582h-245v582l-525 852h281z" />
    <glyph glyph-name="ycircumflex" unicode="&#x177;" horiz-adv-x="1140" 
d="M786 1139l-204 151l-205 -151h-154l221 295h275l223 -295h-156zM870 1024h256l-430 -963v-215q0 -245 -243 -245h-359v206h279q60 0 80 20t20 79v145l-440 973h260l293 -680z" />
    <glyph glyph-name="Ydieresis" unicode="&#x178;" horiz-adv-x="1312" 
d="M580 1579h-234v229h234v-229zM975 1579h-234v229h234v-229zM780 0h-245v582l-525 852h281l373 -615l368 615h273l-525 -852v-582z" />
    <glyph glyph-name="Zacute" unicode="&#x179;" horiz-adv-x="1282" 
d="M725 1538h-166l88 285h283zM1200 0h-1118v213l813 1001h-793v220h1078v-213l-813 -1002h833v-219z" />
    <glyph glyph-name="zacute" unicode="&#x17a;" horiz-adv-x="1030" 
d="M514 1434h264l-196 -295h-146zM926 831l-555 -624h585v-207h-874v193l555 624h-545v207h834v-193z" />
    <glyph glyph-name="Zdotaccent" unicode="&#x17b;" horiz-adv-x="1282" 
d="M770 1579h-256v256h256v-256zM1200 0h-1118v213l813 1001h-793v220h1078v-213l-813 -1002h833v-219z" />
    <glyph glyph-name="zdotaccent" unicode="&#x17c;" horiz-adv-x="1030" 
d="M385 1434h256v-254h-256v254zM926 831l-555 -624h585v-207h-874v193l555 624h-545v207h834v-193z" />
    <glyph glyph-name="Zcaron" unicode="&#x17d;" horiz-adv-x="1282" 
d="M1014 1823l-238 -285h-268l-236 285h199l172 -127l172 127h199zM1180 1221l-813 -1002h833v-219h-1118v213l813 1001h-793v220h1078v-213z" />
    <glyph glyph-name="zcaron" unicode="&#x17e;" horiz-adv-x="1030" 
d="M872 1434l-221 -295h-274l-223 295h155l205 -150l205 150h153zM926 831l-555 -624h585v-207h-874v193l555 624h-545v207h834v-193z" />
    <glyph glyph-name="florin" unicode="&#x192;" horiz-adv-x="905" 
d="M870 1225h-110q-89 0 -124.5 -37.5t-51.5 -132.5l-17 -109h246v-205h-276l-117 -761q-33 -210 -122.5 -300t-274.5 -90h-129v209h110q92 0 131 38.5t51 131.5l117 772h-203v205h236l14 98q33 210 120 300t269 90h131v-209z" />
    <glyph glyph-name="AEacute" unicode="&#x1fc;" horiz-adv-x="2037" 
d="M1370 1538h-168l88 285h283zM258 0h-268l782 1434h1094v-220h-717l53 -368h602v-219h-575l57 -408h703v-219h-914l-51 350h-580zM903 1208l-342 -637h432z" />
    <glyph glyph-name="aeacute" unicode="&#x1fd;" horiz-adv-x="1751" 
d="M944 1139h-145l78 295h264zM432 -20q-152 0 -250 84t-98 217q0 82 32 144.5t86.5 100.5t118.5 58t138 26l268 23v29q0 87 -50.5 138.5t-137.5 51.5h-11q-78 0 -130 -39t-58 -98h-236q12 144 129.5 236.5t298.5 92.5q228 0 340 -133q133 133 336 133q212 0 332.5 -135.5
t120.5 -353.5q0 -69 -2 -104h-703q9 -128 84 -203.5t170 -75.5h17q75 0 128.5 39t67.5 104h236q-32 -155 -152 -245t-297 -90q-120 0 -223.5 52.5t-171.5 153.5q-55 -95 -156.5 -150.5t-226.5 -55.5zM961 633h469q-4 105 -67 162t-153 57h-16q-90 0 -152.5 -54.5
t-80.5 -164.5zM461 172h14q96 0 174 65.5t78 159.5v62l-235 -23q-74 -7 -124.5 -43t-50.5 -98q0 -54 41 -88.5t103 -34.5z" />
    <glyph glyph-name="Oslashacute" unicode="&#x1fe;" horiz-adv-x="1576" 
d="M788 1823h283l-205 -285h-166zM1458 1378l-133 -168q152 -198 152 -493q0 -170 -51.5 -309t-142.5 -232.5t-218 -144.5t-277 -51q-205 0 -362 92l-125 -160l-184 143l133 170q-150 196 -150 492q0 170 51 309t142.5 232.5t218 144.5t276.5 51q205 0 361 -90l125 158z
M346 717q0 -169 62 -293l600 760q-91 51 -209 51h-21q-197 0 -314.5 -138t-117.5 -380zM778 199h21q197 0 314.5 138t117.5 380q0 168 -62 295l-602 -762q94 -51 211 -51z" />
    <glyph glyph-name="oslashacute" unicode="&#x1ff;" horiz-adv-x="1183" 
d="M588 1434h264l-197 -295h-143zM1087 1001l-106 -137q115 -143 115 -352q0 -233 -141.5 -382.5t-362.5 -149.5q-135 0 -244 59l-102 -133l-152 127l105 135q-109 140 -109 344q0 233 141 382.5t361 149.5q131 0 235 -55l99 129zM326 512q0 -78 20 -150l359 467
q-51 23 -105 23h-16q-116 0 -187 -90.5t-71 -249.5zM584 172h16q117 0 187.5 90.5t70.5 249.5q0 92 -24 160l-363 -473q56 -27 113 -27z" />
    <glyph glyph-name="uni0218" unicode="&#x218;" horiz-adv-x="1292" 
d="M641 -20q-274 0 -420.5 129.5t-154.5 363.5h245q5 -126 95 -200t249 -74h21q122 0 191 55t69 137q0 73 -43.5 117t-144.5 65l-244 50q-367 76 -367 409q0 83 36.5 158.5t103 134.5t168.5 94t223 35q247 0 390 -127t146 -336h-246q-7 115 -86 179.5t-200 64.5h-21
q-120 0 -194 -56.5t-74 -138.5q0 -75 45 -118t139 -62l221 -43q394 -78 394 -411q0 -189 -146 -307.5t-395 -118.5zM516 -612h-45v131h35q112 0 112 80v6h-100v239h236v-243q0 -93 -66 -153t-172 -60z" />
    <glyph glyph-name="uni0219" unicode="&#x219;" horiz-adv-x="1009" 
d="M504 -20q-204 0 -319 94.5t-115 255.5h239q3 -78 57 -121t138 -43h16q71 0 116.5 31.5t45.5 83.5q0 45 -29 73t-92 41l-141 31q-152 35 -230.5 107.5t-78.5 195.5q0 143 112 229t289 86q196 0 305 -93t109 -251h-236q-8 72 -51.5 115t-122.5 43h-16q-69 0 -112.5 -31
t-43.5 -84q0 -45 34 -72t105 -42l148 -35q284 -65 284 -303q0 -137 -110 -224t-301 -87zM385 -612h-47v131h37q110 0 110 80v6h-100v239h236v-243q0 -93 -65 -153t-171 -60z" />
    <glyph glyph-name="uni021A" unicode="&#x21a;" horiz-adv-x="1325" 
d="M784 0h-245v1214h-502v220h1251v-220h-504v-1214zM543 -612h-45v131h34q56 0 84.5 21t28.5 59v6h-100v239h235v-243q0 -93 -65.5 -153t-171.5 -60z" />
    <glyph glyph-name="uni021B" unicode="&#x21b;" horiz-adv-x="815" 
d="M754 0h-254q-120 0 -184 64t-64 184v581h-217v195h217v332h235v-332h236v-195h-236v-526q0 -60 20.5 -80t80.5 -20h166v-203zM328 -612h-47v131h36q111 0 111 80v6h-100v239h235v-243q0 -93 -64.5 -153t-170.5 -60z" />
    <glyph glyph-name="uni0226" unicode="&#x226;" horiz-adv-x="1443" 
d="M596 1835h256v-256h-256v256zM1430 0h-259l-135 350h-637l-135 -350h-256l567 1434h297zM717 1178l-234 -607h467z" />
    <glyph glyph-name="uni0227" unicode="&#x227;" horiz-adv-x="1091" 
d="M668 1180h-256v254h256v-254zM420 -20q-143 0 -239.5 84.5t-96.5 216.5q0 82 31.5 144.5t86 100.5t118.5 58t139 26l268 23v29q0 87 -50 138.5t-136 51.5h-17q-76 0 -127 -39t-57 -98h-236q12 144 129.5 236.5t298.5 92.5q196 0 310 -103t114 -273v-443q0 -146 11 -225
h-222q-10 49 -10 141q-42 -71 -125.5 -116t-189.5 -45zM461 172h16q95 0 172.5 66t77.5 159v62l-238 -23q-72 -7 -122 -43t-50 -98q0 -54 41 -88.5t103 -34.5z" />
    <glyph glyph-name="uni0232" unicode="&#x232;" horiz-adv-x="1312" 
d="M985 1579h-651v195h651v-195zM780 0h-245v582l-525 852h281l373 -615l368 615h273l-525 -852v-582z" />
    <glyph glyph-name="uni0233" unicode="&#x233;" horiz-adv-x="1140" 
d="M279 1368h606v-188h-606v188zM870 1024h256l-430 -963v-215q0 -245 -243 -245h-359v206h279q60 0 80 20t20 79v145l-440 973h260l293 -680z" />
    <glyph glyph-name="uni0237" unicode="&#x237;" horiz-adv-x="540" 
d="M158 -397h-326v204h229q55 0 77 22.5t22 76.5v1118h235v-1182q0 -117 -60 -178t-177 -61z" />
    <glyph glyph-name="circumflex" unicode="&#x2c6;" horiz-adv-x="841" 
d="M559 1434l221 -295h-153l-205 151l-205 -151h-156l224 295h274z" />
    <glyph glyph-name="caron" unicode="&#x2c7;" horiz-adv-x="841" 
d="M422 1284l205 150h153l-221 -295h-274l-224 295h156z" />
    <glyph glyph-name="breve" unicode="&#x2d8;" horiz-adv-x="784" 
d="M391 1133q-145 0 -234.5 76t-93.5 225h193q4 -72 39.5 -109t95.5 -37q61 0 97 37t40 109h193q-6 -149 -96 -225t-234 -76z" />
    <glyph glyph-name="dotaccent" unicode="&#x2d9;" horiz-adv-x="378" 
d="M317 1180h-256v254h256v-254z" />
    <glyph glyph-name="ring" unicode="&#x2da;" horiz-adv-x="536" 
d="M268 1118q-84 0 -145.5 59.5t-61.5 147.5q0 83 62.5 144t144.5 61q85 0 146 -61t61 -144q0 -88 -60.5 -147.5t-146.5 -59.5zM270 1235q37 0 62.5 26.5t25.5 63.5t-25.5 63.5t-62.5 26.5t-63.5 -26.5t-26.5 -63.5t26.5 -63.5t63.5 -26.5z" />
    <glyph glyph-name="ogonek" unicode="&#x2db;" horiz-adv-x="452" 
d="M387 -287v-151h-88q-107 0 -172.5 54.5t-65.5 137.5q0 52 20.5 98.5t55.5 79.5t68.5 55.5t70.5 39.5l115 -27q-168 -99 -168 -193q0 -49 33 -71.5t84 -22.5h47z" />
    <glyph glyph-name="tilde" unicode="&#x2dc;" horiz-adv-x="880" 
d="M608 1137q-67 0 -172 57l-43 25q-53 32 -90 32q-29 0 -49.5 -25t-20.5 -69h-172v53q0 93 62.5 159.5t155.5 66.5q73 0 163 -54l39 -22q5 -3 25 -13.5t28.5 -14.5t22.5 -8.5t25 -4.5q30 0 47.5 25.5t17.5 70.5h172v-53q0 -94 -61 -159.5t-150 -65.5z" />
    <glyph glyph-name="hungarumlaut" unicode="&#x2dd;" horiz-adv-x="788" 
d="M182 1139h-143l76 295h264zM508 1139h-143l75 295h265z" />
    <glyph glyph-name="uni0394" unicode="&#x394;" horiz-adv-x="1447" 
d="M584 1434h290l537 -1330v-104h-1376v104zM1110 219l-387 957l-393 -957h780z" />
    <glyph glyph-name="uni03A9" unicode="&#x3a9;" horiz-adv-x="1609" 
d="M672 0h-543v219h252q-119 93 -190.5 229t-71.5 310q0 192 84 350t242 252t360 94q152 0 281.5 -55t218 -148.5t138 -221.5t48.5 -271q0 -174 -71.5 -310t-190.5 -229h252v-219h-543v213q141 91 224 222.5t83 301.5q2 222 -117 360t-313 138h-20q-194 0 -312 -138
t-118 -360q0 -170 83 -301.5t224 -222.5v-213z" />
    <glyph glyph-name="uni03BC" unicode="&#x3bc;" horiz-adv-x="1230" 
d="M1143 199h26v-199h-122q-204 0 -224 164q-93 -184 -276 -184q-114 0 -168 75v-465h-236v1434h236v-627q0 -109 44.5 -167t129.5 -58h18q94 0 162 83t68 204v565h235v-717q0 -65 21.5 -86.5t85.5 -21.5z" />
    <glyph glyph-name="pi" unicode="&#x3c0;" horiz-adv-x="1245" 
d="M440 0h-235v831h-133v193h1077v-193h-133v-526q0 -63 20 -82.5t82 -19.5h27v-203h-115q-126 0 -188 66t-62 186v579h-340v-831z" />
    <glyph glyph-name="Wgrave" unicode="&#x1e80;" horiz-adv-x="1933" 
d="M981 1823l88 -285h-168l-203 285h283zM1378 262l256 1172h256l-352 -1434h-324l-247 1114l-250 -1114h-324l-350 1434h254l266 -1168l256 1168h307z" />
    <glyph glyph-name="wgrave" unicode="&#x1e81;" horiz-adv-x="1609" 
d="M803 1434l78 -295h-146l-194 295h262zM1133 244l204 780h234l-303 -1024h-262l-199 752l-195 -752h-264l-313 1024h239l213 -784l193 784h250z" />
    <glyph glyph-name="Wacute" unicode="&#x1e82;" horiz-adv-x="1933" 
d="M979 1823h281l-203 -285h-166zM1378 262l256 1172h256l-352 -1434h-324l-247 1114l-250 -1114h-324l-350 1434h254l266 -1168l256 1168h307z" />
    <glyph glyph-name="wacute" unicode="&#x1e83;" horiz-adv-x="1609" 
d="M807 1434h262l-195 -295h-145zM1133 244l204 780h234l-303 -1024h-262l-199 752l-195 -752h-264l-313 1024h239l213 -784l193 784h250z" />
    <glyph glyph-name="Wdieresis" unicode="&#x1e84;" horiz-adv-x="1933" 
d="M659 1808h234v-229h-234v229zM1055 1808h233v-229h-233v229zM1378 262l256 1172h256l-352 -1434h-324l-247 1114l-250 -1114h-324l-350 1434h254l266 -1168l256 1168h307z" />
    <glyph glyph-name="wdieresis" unicode="&#x1e85;" horiz-adv-x="1609" 
d="M492 1423h227v-243h-227v243zM893 1423h227v-243h-227v243zM1133 244l204 780h234l-303 -1024h-262l-199 752l-195 -752h-264l-313 1024h239l213 -784l193 784h250z" />
    <glyph glyph-name="uni1E9E" unicode="&#x1e9e;" horiz-adv-x="1339" 
d="M420 0h-246v1434h561q189 0 307.5 -100t118.5 -269q0 -113 -64 -197.5t-159 -117.5q136 -19 225.5 -117t89.5 -242q0 -181 -126.5 -286t-333.5 -105h-195v219h172q110 0 174 53.5t64 149.5q0 92 -63.5 142t-174.5 50h-172v215h72q117 0 181 53.5t64 143.5q0 88 -59 138
t-160 50h-276v-1214z" />
    <glyph glyph-name="Ygrave" unicode="&#x1ef2;" horiz-adv-x="1312" 
d="M756 1538h-166l-205 285h283zM780 0h-245v582l-525 852h281l373 -615l368 615h273l-525 -852v-582z" />
    <glyph glyph-name="ygrave" unicode="&#x1ef3;" horiz-adv-x="1140" 
d="M580 1434l77 -295h-145l-197 295h265zM870 1024h256l-430 -963v-215q0 -245 -243 -245h-359v206h279q60 0 80 20t20 79v145l-440 973h260l293 -680z" />
    <glyph glyph-name="uni2002" unicode="&#x2002;" horiz-adv-x="1024" 
 />
    <glyph glyph-name="uni2003" unicode="&#x2003;" horiz-adv-x="2048" 
 />
    <glyph glyph-name="uni2009" unicode="&#x2009;" horiz-adv-x="256" 
 />
    <glyph glyph-name="uni200A" unicode="&#x200a;" horiz-adv-x="153" 
 />
    <glyph glyph-name="endash" unicode="&#x2013;" horiz-adv-x="1206" 
d="M1075 520h-944v199h944v-199z" />
    <glyph glyph-name="emdash" unicode="&#x2014;" horiz-adv-x="1861" 
d="M1731 520h-1600v199h1600v-199z" />
    <glyph glyph-name="uni2015" unicode="&#x2015;" horiz-adv-x="1861" 
d="M1731 520h-1600v199h1600v-199z" />
    <glyph glyph-name="quoteleft" unicode="&#x2018;" horiz-adv-x="565" 
d="M391 1434h78v-146h-72q-125 0 -125 -129v-24h127v-275h-274v309q0 116 73.5 190.5t192.5 74.5z" />
    <glyph glyph-name="quoteright" unicode="&#x2019;" horiz-adv-x="561" 
d="M186 860h-77v146h71q125 0 125 129v24h-127v275h275v-310q0 -116 -74 -190t-193 -74z" />
    <glyph glyph-name="quotesinglbase" unicode="&#x201a;" horiz-adv-x="542" 
d="M143 -299h-77v145h71q64 0 95.5 34.5t31.5 94.5v25h-129v274h275v-309q0 -115 -74 -189.5t-193 -74.5z" />
    <glyph glyph-name="quotedblleft" unicode="&#x201c;" horiz-adv-x="985" 
d="M391 1434h78v-146h-72q-125 0 -125 -129v-24h127v-275h-274v309q0 116 73.5 190.5t192.5 74.5zM811 1434h78v-146h-72q-125 0 -125 -129v-24h127v-275h-274v309q0 116 73.5 190.5t192.5 74.5z" />
    <glyph glyph-name="quotedblright" unicode="&#x201d;" horiz-adv-x="980" 
d="M186 860h-77v146h71q125 0 125 129v24h-127v275h275v-310q0 -116 -74 -190t-193 -74zM606 860h-78v146h72q125 0 125 129v24h-127v275h274v-310q0 -116 -73.5 -190t-192.5 -74z" />
    <glyph glyph-name="quotedblbase" unicode="&#x201e;" horiz-adv-x="962" 
d="M143 -299h-77v145h71q64 0 95.5 34.5t31.5 94.5v25h-129v274h275v-309q0 -115 -74 -189.5t-193 -74.5zM563 -299h-78v145h72q64 0 95.5 34.5t31.5 94.5v25h-129v274h274v-309q0 -115 -73.5 -189.5t-192.5 -74.5z" />
    <glyph glyph-name="dagger" unicode="&#x2020;" horiz-adv-x="1011" 
d="M625 -174h-236v1110h-328v203h328v469h236v-469h325v-203h-325v-1110z" />
    <glyph glyph-name="daggerdbl" unicode="&#x2021;" horiz-adv-x="1085" 
d="M987 1139v-203h-325v-438h325v-203h-325v-469h-236v469h-328v203h328v438h-328v203h328v469h236v-469h325z" />
    <glyph glyph-name="bullet" unicode="&#x2022;" horiz-adv-x="1091" 
d="M545 315q-164 0 -283 119t-119 283t119 282.5t283 118.5q168 0 285.5 -118t117.5 -283t-117.5 -283.5t-285.5 -118.5z" />
    <glyph glyph-name="ellipsis" unicode="&#x2026;" horiz-adv-x="1581" 
d="M406 0h-275v274h275v-274zM928 0h-275v274h275v-274zM1450 0h-274v274h274v-274z" />
    <glyph glyph-name="perthousand" unicode="&#x2030;" horiz-adv-x="2428" 
d="M770 1028q0 -116 -38 -207.5t-119 -149t-195 -57.5q-170 0 -261 117.5t-91 296.5q0 117 37.5 209t118.5 149.5t196 57.5q169 0 260.5 -118t91.5 -298zM424 0l860 1434h211l-860 -1434h-211zM414 778h8q74 0 115 70t41 180q0 111 -41 181.5t-115 70.5h-8q-75 0 -115.5 -70
t-40.5 -182q0 -111 40.5 -180.5t115.5 -69.5zM2011 819q115 0 196 -57.5t118.5 -149.5t37.5 -209q0 -116 -37.5 -207.5t-118.5 -148.5t-196 -57q-162 0 -256 112q-91 -112 -256 -112q-114 0 -195 57t-119 149t-38 207q0 180 91.5 298t260.5 118q165 0 256 -112
q94 112 256 112zM1495 154h8q75 0 115.5 69.5t40.5 179.5q0 112 -40.5 182t-115.5 70h-8q-74 0 -115 -70.5t-41 -181.5q0 -110 41 -179.5t115 -69.5zM2007 154h8q75 0 115.5 69.5t40.5 179.5q0 112 -40.5 182t-115.5 70h-8q-74 0 -115 -70.5t-41 -181.5q0 -110 41 -179.5
t115 -69.5z" />
    <glyph glyph-name="guilsinglleft" unicode="&#x2039;" horiz-adv-x="714" 
d="M367 1024h272l-297 -440l297 -441h-272l-297 441z" />
    <glyph glyph-name="guilsinglright" unicode="&#x203a;" horiz-adv-x="714" 
d="M76 1024h272l297 -440l-297 -441h-272l297 441z" />
    <glyph glyph-name="fraction" unicode="&#x2044;" horiz-adv-x="391" 
d="M-133 0h-211l860 1434h211z" />
    <glyph glyph-name="uni2070" unicode="&#x2070;" horiz-adv-x="849" 
d="M424 840q-114 0 -194.5 57t-118 148.5t-37.5 207.5q0 180 90.5 298t259.5 118q115 0 196 -57.5t118.5 -149.5t37.5 -209q0 -116 -37.5 -207.5t-118.5 -148.5t-196 -57zM420 1004h8q75 0 115.5 69.5t40.5 179.5q0 112 -40.5 182t-115.5 70h-8q-74 0 -115 -70.5t-41 -181.5
q0 -110 41 -179.5t115 -69.5z" />
    <glyph glyph-name="uni2074" unicode="&#x2074;" horiz-adv-x="794" 
d="M623 850h-177v149h-395v185l363 475h209v-506h110v-154h-110v-149zM446 1452l-225 -299h225v299z" />
    <glyph glyph-name="uni2075" unicode="&#x2075;" horiz-adv-x="755" 
d="M362 840q-126 0 -212.5 66t-98.5 179h201q7 -39 38.5 -62.5t74.5 -23.5h8q51 0 83.5 32.5t32.5 82.5q0 47 -31 76t-79 29h-8q-61 0 -97 -41h-188l90 481h494v-160h-353l-36 -176q59 53 153 53q100 0 172 -70t72 -184q0 -128 -88.5 -205t-227.5 -77z" />
    <glyph glyph-name="uni2076" unicode="&#x2076;" horiz-adv-x="796" 
d="M401 840q-150 0 -238.5 102.5t-88.5 278.5q0 206 102 327t270 121q127 0 201 -68t76 -169h-186q-6 34 -32 55.5t-65 21.5h-12q-69 0 -119 -62.5t-59 -158.5q30 44 82 69t117 25q112 0 187 -72.5t75 -187.5q0 -121 -85 -201.5t-225 -80.5zM395 999h8q52 0 85.5 32.5
t33.5 82.5t-32.5 81.5t-83.5 31.5h-9q-48 0 -83 -32t-35 -81q0 -51 33 -83t83 -32z" />
    <glyph glyph-name="uni2077" unicode="&#x2077;" horiz-adv-x="675" 
d="M377 850h-199v47q0 355 256 600h-391v162h594v-150q-117 -111 -188.5 -264t-71.5 -342v-53z" />
    <glyph glyph-name="uni2078" unicode="&#x2078;" horiz-adv-x="770" 
d="M385 840q-126 0 -210.5 60t-84.5 159q0 66 39 115t104 73q-157 58 -157 199q0 101 88.5 162t220.5 61q133 0 221 -61t88 -162q0 -139 -155 -199q65 -24 103 -73t38 -115q0 -99 -84 -159t-211 -60zM381 1333h10q47 0 81 23.5t34 64.5q0 42 -33 65t-82 23h-10
q-49 0 -83 -23t-34 -65q0 -41 35 -64.5t82 -23.5zM381 999h10q42 0 71.5 23t29.5 63q0 38 -30 63.5t-71 25.5h-10q-42 0 -72 -25.5t-30 -63.5q0 -40 29.5 -63t72.5 -23z" />
    <glyph glyph-name="uni2079" unicode="&#x2079;" horiz-adv-x="794" 
d="M348 840q-128 0 -201 67.5t-75 169.5h184q8 -35 33.5 -56.5t64.5 -21.5h13q69 0 118.5 63t57.5 159q-28 -44 -80 -69.5t-117 -25.5q-112 0 -187 72.5t-75 187.5q0 121 85 202t224 81q150 0 239 -102.5t89 -278.5q0 -206 -102.5 -327t-270.5 -121zM389 1282h8
q47 0 83 32.5t36 80.5q0 50 -33.5 82t-83.5 32h-8q-53 0 -87 -32.5t-34 -81.5t34 -81t85 -32z" />
    <glyph glyph-name="uni20A9" unicode="&#x20a9;" horiz-adv-x="1933" 
d="M1634 1434h256l-161 -658h147v-184h-193l-145 -592h-324l-131 592h-233l-133 -592h-324l-145 592h-189v184h144l-160 658h254l149 -658h230l143 658h307l142 -658h223zM967 1114l-76 -338h151zM489 592l74 -326l72 326h-146zM1307 592l71 -330l72 330h-143z" />
    <glyph glyph-name="Euro" unicode="&#x20ac;" horiz-adv-x="1427" 
d="M815 188h19q103 0 169.5 68t81.5 186h242q-22 -213 -158 -337.5t-344 -124.5q-179 0 -308.5 96t-194.5 272l-228 -51v201l180 41q-9 71 -12 147l-168 -37v203l180 39q37 262 182.5 412.5t368.5 150.5q207 0 342 -124.5t160 -338.5h-242q-15 118 -81.5 186t-169.5 68h-19
q-108 0 -183 -78.5t-108 -220.5l371 82v-201l-393 -88v-22q0 -65 6 -127l301 67v-202l-258 -58q40 -101 107 -155t157 -54z" />
    <glyph glyph-name="uni20B4" unicode="&#x20b4;" horiz-adv-x="1374" 
d="M1182 1024l121 10v-194l-1235 -109v193l870 77q8 24 8 56q0 84 -60.5 139t-172.5 55h-13q-233 0 -258 -204h-243q4 55 20.5 108t54.5 108.5t93 96.5t142.5 67.5t197.5 26.5q122 0 216.5 -34t149.5 -91.5t83 -125t28 -140.5q0 -27 -2 -39zM344 651l920 86v-194l-815 -76
q-13 -33 -13 -74q0 -90 68 -150.5t188 -60.5h17q233 0 264 224h246q-6 -63 -25.5 -121t-59.5 -114.5t-97 -98t-145 -67t-196 -25.5q-233 0 -366 112.5t-133 282.5q0 35 6 69l-99 -8v193z" />
    <glyph glyph-name="uni20BD" unicode="&#x20bd;" horiz-adv-x="1329" 
d="M535 0h-246v289h-195v205h195v114h-199v217h199v609h532q209 0 334 -103.5t125 -310.5q0 -105 -35 -185t-97.5 -129t-145.5 -73.5t-183 -24.5h-284v-114h344v-205h-344v-289zM535 1214v-389h256q122 0 182.5 46t60.5 149q0 102 -61 148t-182 46h-256z" />
    <glyph glyph-name="uni20BF" unicode="&#x20bf;" horiz-adv-x="1361" 
d="M1264 385q0 -139 -89 -240.5t-233 -132.5v-258h-194v246h-185v-246h-192v246h-197v1434h197v245h192v-245h185v245h194v-262q134 -34 212.5 -129.5t78.5 -228.5q0 -123 -65.5 -210t-172.5 -122q119 -22 194 -113t75 -229zM768 1214h-348v-380h348q104 0 161.5 49.5
t57.5 140.5q0 92 -57 141t-162 49zM420 219h364q109 0 171.5 52t62.5 149t-62.5 149t-171.5 52h-364v-402z" />
    <glyph glyph-name="uni2105" unicode="&#x2105;" horiz-adv-x="1480" 
d="M360 911q-135 0 -219 80.5t-84 220.5q0 146 86.5 225t223.5 79q122 0 191 -62t77 -158h-182q-5 33 -28 52.5t-60 19.5h-9q-58 0 -86 -44.5t-28 -111.5q0 -66 27 -109.5t83 -43.5h8q79 0 91 67h182q-9 -95 -79.5 -155t-193.5 -60zM403 0h-210l860 1434h211zM1120 -20
q-139 0 -221 83.5t-82 217.5t82 218.5t221 84.5q138 0 220.5 -84.5t82.5 -218.5t-82.5 -217.5t-220.5 -83.5zM1114 127h10q53 0 83 41.5t30 112.5t-30.5 113t-82.5 42h-10q-52 0 -82.5 -42t-30.5 -113t30.5 -112.5t82.5 -41.5z" />
    <glyph glyph-name="uni2113" unicode="&#x2113;" horiz-adv-x="921" 
d="M475 516v-227q0 -46 18 -64t64 -18h191v-207h-293q-215 0 -215 215v158l-154 -92v241l154 90v494q0 168 82 258t229 90q80 0 143.5 -32.5t101.5 -86.5t58 -119.5t20 -136.5q0 -155 -84 -291t-239 -227zM549 1249q-74 0 -74 -116v-379q164 111 164 311q0 184 -90 184z" />
    <glyph glyph-name="uni2116" unicode="&#x2116;" horiz-adv-x="2222" 
d="M1823 840q-139 0 -221 83.5t-82 217.5t82 218.5t221 84.5q138 0 220.5 -84.5t82.5 -218.5t-82.5 -217.5t-220.5 -83.5zM426 0h-246v1434h328l606 -1108v1108h246v-1434h-328l-606 1110v-1110zM1817 987h10q53 0 82.5 41.5t29.5 112.5t-30 113t-82 42h-10q-52 0 -82.5 -42
t-30.5 -113t30.5 -112.5t82.5 -41.5zM2118 569h-582v148h582v-148z" />
    <glyph glyph-name="uni2117" unicode="&#x2117;" horiz-adv-x="1787" 
d="M895 -80q-161 0 -309 63.5t-255.5 171t-171 255.5t-63.5 309q0 162 63.5 310t171 255t255.5 170.5t309 63.5q162 0 310 -63.5t255 -170.5t170.5 -255t63.5 -310q0 -161 -63.5 -309t-170.5 -255.5t-255 -171t-310 -63.5zM895 84q169 0 313 85.5t228 232t84 317.5
q0 170 -84 316t-228 231.5t-313 85.5t-313.5 -85.5t-229 -231.5t-84.5 -316q0 -171 84.5 -317.5t229 -232t313.5 -85.5zM825 338h-188v776h356q127 0 198 -68.5t71 -189.5q0 -119 -71 -185.5t-198 -66.5h-168v-266zM825 948v-182h150q98 0 98 90q0 45 -27 68.5t-75 23.5
h-146z" />
    <glyph glyph-name="trademark" unicode="&#x2122;" horiz-adv-x="1982" 
d="M334 1247h-260v187h729v-187h-260v-592h-209v592zM1384 967l156 467h287v-779h-207v467l-162 -467h-145l-174 484v-484h-207v779h289z" />
    <glyph glyph-name="uni2126" unicode="&#x2126;" horiz-adv-x="1601" 
d="M692 0h-569v207h242q-119 79 -185.5 213.5t-66.5 318.5q0 159 52 293.5t143 226.5t218 143.5t275 51.5t275 -51.5t218 -143.5t143 -226.5t52 -293.5q0 -185 -67.5 -320t-190.5 -212h248v-207h-570v203q154 39 245 175.5t91 338.5q0 245 -116 383.5t-318 138.5h-20
q-202 0 -318.5 -138.5t-116.5 -383.5q0 -201 91.5 -338t244.5 -176v-203z" />
    <glyph glyph-name="uni2153" unicode="&#x2153;" horiz-adv-x="1845" 
d="M481 625h-186v561l-229 -191v222l262 217h153v-809zM549 0h-211l860 1434h211zM1454 -10q-126 0 -212.5 64.5t-86.5 176.5h193q0 -37 30.5 -60.5t73.5 -23.5h10q47 0 79 26t32 69q0 41 -29 64.5t-74 23.5h-77v157h80q42 0 68 23.5t26 62.5q0 38 -28 63.5t-71 25.5h-10
q-40 0 -68.5 -22t-29.5 -56h-193q0 111 85.5 173t211.5 62q124 0 209.5 -60.5t85.5 -168.5q0 -61 -31 -108t-88 -72q56 -26 90.5 -75.5t34.5 -115.5q0 -109 -91 -169t-220 -60z" />
    <glyph glyph-name="uni2154" unicode="&#x2154;" horiz-adv-x="1935" 
d="M684 625h-592v170l291 258q29 25 39 34.5t30.5 32t28 41.5t6.5 39q0 37 -26.5 59.5t-67.5 22.5h-10q-39 0 -68 -28t-32 -72h-191q6 119 92 190.5t213 71.5q123 0 203 -69.5t80 -168.5q0 -38 -11 -71.5t-35.5 -65t-45 -52t-56.5 -52.5l-200 -177h352v-163zM670 0h-211
l860 1434h211zM1546 -10q-126 0 -212.5 64.5t-86.5 176.5h193q0 -37 30.5 -60.5t73.5 -23.5h10q47 0 79 26t32 69q0 41 -29 64.5t-73 23.5h-78v157h80q42 0 68 23.5t26 62.5q0 38 -27.5 63.5t-70.5 25.5h-11q-40 0 -68.5 -22t-29.5 -56h-192q0 111 85 173t211 62
q124 0 209.5 -60.5t85.5 -168.5q0 -62 -30.5 -108.5t-87.5 -71.5q56 -26 90.5 -75.5t34.5 -115.5q0 -109 -91.5 -169t-220.5 -60z" />
    <glyph glyph-name="uni2155" unicode="&#x2155;" horiz-adv-x="1851" 
d="M481 625h-186v561l-229 -191v222l262 217h153v-809zM557 0h-211l860 1434h211zM1440 -10q-126 0 -213 66.5t-99 179.5h201q7 -39 39 -62.5t74 -23.5h8q51 0 84 32t33 82q0 47 -31.5 76t-79.5 29h-6q-62 0 -98 -41h-189l90 481h494v-160h-352l-37 -176q59 53 153 53
q100 0 172 -70t72 -184q0 -129 -88 -205.5t-227 -76.5z" />
    <glyph glyph-name="uni2156" unicode="&#x2156;" horiz-adv-x="1964" 
d="M684 625h-592v170l291 258q29 25 39 34.5t30.5 32t28 41.5t6.5 39q0 37 -26.5 59.5t-67.5 22.5h-10q-39 0 -68 -28t-32 -72h-191q6 119 92 190.5t213 71.5q123 0 203 -69.5t80 -168.5q0 -38 -11 -71.5t-35.5 -65t-45 -52t-56.5 -52.5l-200 -177h352v-163zM676 0h-211
l860 1434h211zM1559 -10q-126 0 -213 66.5t-99 179.5h201q7 -39 38.5 -62.5t74.5 -23.5h8q51 0 82.5 32t31.5 82q0 47 -30 76t-78 29h-8q-58 0 -99 -41h-186l90 481h494v-160h-353l-36 -176q59 53 153 53q100 0 172 -70t72 -184q0 -129 -88 -205.5t-227 -76.5z" />
    <glyph glyph-name="uni2157" unicode="&#x2157;" horiz-adv-x="1974" 
d="M375 614q-127 0 -214 64.5t-87 177.5h192q1 -37 32 -60.5t73 -23.5h10q48 0 80.5 25.5t32.5 68.5q0 41 -29.5 64.5t-75.5 23.5h-76v158h78q42 0 69 23.5t27 62.5q0 38 -28 63t-72 25h-10q-40 0 -67.5 -22t-28.5 -56h-193q0 111 85.5 173.5t211.5 62.5q123 0 209 -61.5
t86 -168.5q0 -62 -31.5 -108.5t-89.5 -71.5q57 -26 92 -75t35 -115q0 -109 -91.5 -169.5t-219.5 -60.5zM686 0h-213l860 1434h213zM1569 -10q-127 0 -213.5 66.5t-98.5 179.5h201q6 -39 37.5 -62.5t75.5 -23.5h8q50 0 82.5 32.5t32.5 81.5q0 47 -30.5 76t-78.5 29h-8
q-57 0 -98 -41h-187l90 481h494v-160h-352l-37 -176q59 53 153 53q99 0 171.5 -70t72.5 -184q0 -128 -88.5 -205t-226.5 -77z" />
    <glyph glyph-name="uni2158" unicode="&#x2158;" horiz-adv-x="2019" 
d="M633 625h-176v149h-394v184l363 476h207v-506h112v-154h-112v-149zM725 0h-213l860 1434h213zM457 1227l-226 -299h226v299zM1608 -10q-127 0 -213.5 66.5t-98.5 179.5h201q6 -39 37.5 -62.5t75.5 -23.5h8q50 0 82.5 32.5t32.5 81.5q0 47 -30.5 76t-78.5 29h-8
q-57 0 -98 -41h-187l90 481h494v-160h-352l-37 -176q59 53 153 53q99 0 171.5 -70t72.5 -184q0 -128 -88.5 -205t-226.5 -77z" />
    <glyph glyph-name="uni2159" unicode="&#x2159;" horiz-adv-x="1843" 
d="M481 625h-186v561l-229 -191v222l262 217h153v-809zM551 0h-211l860 1434h211zM1446 -10q-151 0 -239.5 102t-88.5 279q0 206 102.5 327t270.5 121q127 0 200.5 -68t75.5 -169h-186q-8 35 -33.5 56t-64.5 21h-13q-69 0 -118.5 -63t-57.5 -158q28 43 80 68.5t117 25.5
q112 0 188 -72.5t76 -187.5q0 -121 -85.5 -201.5t-223.5 -80.5zM1440 150h6q53 0 87 32.5t34 81.5q0 50 -33.5 81.5t-85.5 31.5h-6q-49 0 -85 -32.5t-36 -80.5q0 -50 34.5 -82t84.5 -32z" />
    <glyph glyph-name="uni215A" unicode="&#x215a;" horiz-adv-x="1961" 
d="M373 614q-126 0 -212 66.5t-98 179.5h201q6 -39 37.5 -62.5t75.5 -23.5h8q49 0 82 33t33 82q0 46 -31 75t-78 29h-8q-62 0 -98 -41h-189l92 482h494v-160h-354l-35 -176q59 53 153 53q99 0 171.5 -70t72.5 -184q0 -128 -89 -205.5t-228 -77.5zM666 0h-211l860 1434h211z
M1561 -10q-150 0 -239 102.5t-89 278.5q0 206 102.5 327t270.5 121q127 0 200.5 -68t75.5 -169h-186q-6 34 -32 55.5t-65 21.5h-12q-69 0 -119 -62.5t-59 -158.5q30 44 82 69t117 25q112 0 187 -72.5t75 -187.5q0 -121 -84.5 -201.5t-224.5 -80.5zM1554 150h9q52 0 85 32
t33 82t-32.5 81.5t-83.5 31.5h-9q-48 0 -83 -32t-35 -81q0 -50 33 -82t83 -32z" />
    <glyph glyph-name="oneeighth" unicode="&#x215b;" horiz-adv-x="1865" 
d="M481 625h-186v561l-229 -191v222l262 217h153v-809zM551 0h-211l860 1434h211zM1481 -10q-128 0 -212.5 60t-84.5 159q0 66 39.5 115t105.5 73q-73 27 -116.5 77t-43.5 122q0 101 89 162t223 61q132 0 220.5 -61t88.5 -162q0 -137 -156 -199q64 -24 102 -73t38 -115
q0 -99 -83.5 -159t-209.5 -60zM1475 483h10q47 0 82 23.5t35 64.5q0 42 -34 65t-83 23h-10q-49 0 -83 -23t-34 -65q0 -41 35 -64.5t82 -23.5zM1475 150h10q43 0 71.5 23t28.5 63q0 38 -29 63t-71 25h-10q-42 0 -72.5 -25t-30.5 -63q0 -40 30 -63t73 -23z" />
    <glyph glyph-name="threeeighths" unicode="&#x215c;" horiz-adv-x="1978" 
d="M373 614q-126 0 -212.5 65t-86.5 177h192q0 -37 31 -60.5t74 -23.5h10q47 0 79 25.5t32 68.5q0 41 -29 64.5t-74 23.5h-78v158h80q42 0 68 23.5t26 62.5q0 38 -27.5 63t-70.5 25h-10q-40 0 -68.5 -22t-29.5 -56h-193q0 111 85.5 173.5t211.5 62.5q124 0 209.5 -61
t85.5 -169q0 -61 -31 -108t-88 -72q56 -26 90.5 -75t34.5 -115q0 -109 -91 -169.5t-220 -60.5zM664 -8h-211l860 1433h211zM1595 -10q-127 0 -211 60t-84 159q0 66 39 115t105 73q-72 26 -115 76t-43 123q0 101 88 162t221 61t221.5 -61t88.5 -162q0 -138 -156 -199
q65 -24 103 -73t38 -115q0 -99 -84 -159t-211 -60zM1589 483h10q48 0 82.5 23.5t34.5 64.5q0 42 -34 65t-83 23h-10q-49 0 -81.5 -23t-32.5 -65q0 -41 33.5 -64.5t80.5 -23.5zM1589 150h10q43 0 73 23t30 63q0 38 -30.5 63t-72.5 25h-10q-41 0 -70.5 -25t-29.5 -63
q0 -40 29 -63t71 -23z" />
    <glyph glyph-name="fiveeighths" unicode="&#x215d;" horiz-adv-x="1986" 
d="M373 614q-126 0 -212 66.5t-98 179.5h201q6 -39 37.5 -62.5t75.5 -23.5h8q49 0 82 33t33 82q0 46 -31 75t-78 29h-8q-62 0 -98 -41h-189l92 482h494v-160h-354l-35 -176q59 53 153 53q99 0 171.5 -70t72.5 -184q0 -128 -89 -205.5t-228 -77.5zM670 0h-213l860 1434h213z
M1597 -10q-127 0 -210.5 60t-83.5 159q0 66 38.5 115t104.5 73q-72 26 -115 76t-43 123q0 101 88 162t221 61q132 0 221 -61.5t89 -161.5q0 -137 -156 -199q64 -24 101.5 -73t37.5 -115q0 -99 -83.5 -159t-209.5 -60zM1591 483h11q47 0 81.5 23.5t34.5 64.5q0 42 -33.5 65
t-82.5 23h-11q-49 0 -81.5 -23t-32.5 -65q0 -41 33.5 -64.5t80.5 -23.5zM1591 150h11q43 0 72.5 23t29.5 63q0 38 -30 63t-72 25h-11q-41 0 -71.5 -25.5t-30.5 -62.5q0 -40 30 -63t72 -23z" />
    <glyph glyph-name="seveneighths" unicode="&#x215e;" horiz-adv-x="1806" 
d="M395 625h-198v47q0 355 256 600h-390v162h592v-150q-117 -111 -188.5 -264t-71.5 -342v-53zM489 0h-210l860 1434h211zM1417 -10q-126 0 -210.5 60t-84.5 159q0 65 39.5 114.5t104.5 73.5q-72 26 -115 76t-43 123q0 101 88.5 162t220.5 61q133 0 221 -61t88 -162
q0 -139 -155 -199q65 -24 103 -73t38 -115q0 -99 -84 -159t-211 -60zM1413 483h10q47 0 81 23.5t34 64.5q0 42 -33 65t-82 23h-10q-49 0 -83 -23t-34 -65q0 -41 35 -64.5t82 -23.5zM1413 150h10q42 0 71.5 23t29.5 63q0 37 -30 62.5t-71 25.5h-10q-42 0 -72 -25t-30 -63
q0 -40 29.5 -63t72.5 -23z" />
    <glyph glyph-name="uni215F" unicode="&#x215f;" horiz-adv-x="1386" 
d="M463 625h-187v561l-229 -191v222l262 217h154v-809zM532 0h-210l860 1434h211z" />
    <glyph glyph-name="uni2160" unicode="&#x2160;" horiz-adv-x="1007" 
d="M909 0h-811v193h287v1048h-287v193h811v-193h-288v-1048h288v-193z" />
    <glyph glyph-name="uni2161" unicode="&#x2161;" horiz-adv-x="1591" 
d="M1493 0h-1395v193h287v1048h-287v193h1395v-193h-289v-1048h289v-193zM621 1241v-1048h348v1048h-348z" />
    <glyph glyph-name="uni2162" unicode="&#x2162;" horiz-adv-x="2174" 
d="M2077 0h-1979v193h287v1048h-287v193h1979v-193h-289v-1048h289v-193zM621 1241v-1048h348v1048h-348zM1204 1241v-1048h348v1048h-348z" />
    <glyph glyph-name="uni2163" unicode="&#x2163;" horiz-adv-x="2205" 
d="M1874 0h-1774v193h287v1048h-287v193h1170v-193h-199l311 -1030l326 1030h-207v193h639v-193h-198l-345 -1048h277v-193zM623 1241v-1048h532l-324 1048h-208z" />
    <glyph glyph-name="uni2164" unicode="&#x2164;" horiz-adv-x="1642" 
d="M1309 0h-996v193h277l-322 1048h-200v193h639v-193h-199l309 -1030l328 1030h-207v193h637v-193h-199l-344 -1048h277v-193z" />
    <glyph glyph-name="uni2165" unicode="&#x2165;" horiz-adv-x="2195" 
d="M2097 0h-1786v193h277l-322 1048h-200v193h639v-193h-199l311 -1030l326 1030h-207v193h1161v-193h-289v-1048h289v-193zM1376 1241l-344 -1048h541v1048h-197z" />
    <glyph glyph-name="uni2166" unicode="&#x2166;" horiz-adv-x="2779" 
d="M2681 0h-2370v193h277l-322 1048h-200v193h639v-193h-199l311 -1030l326 1030h-207v193h1745v-193h-289v-1048h289v-193zM1376 1241l-344 -1048h541v1048h-197zM1808 1241v-1048h349v1048h-349z" />
    <glyph glyph-name="uni2167" unicode="&#x2167;" horiz-adv-x="3362" 
d="M3265 0h-2954v193h277l-322 1048h-200v193h639v-193h-199l311 -1030l326 1030h-207v193h2329v-193h-289v-1048h289v-193zM1376 1241l-344 -1048h541v1048h-197zM1808 1241v-1048h349v1048h-349zM2392 1241v-1048h348v1048h-348z" />
    <glyph glyph-name="uni2168" unicode="&#x2168;" horiz-adv-x="2105" 
d="M2015 0h-1917v193h287v1048h-287v193h1897v-193h-195l-373 -514l388 -534h200v-193zM621 1241v-1048h163l383 528l-374 520h-172zM1055 1241l248 -340l245 340h-493zM1294 549l-256 -356h512z" />
    <glyph glyph-name="uni2169" unicode="&#x2169;" horiz-adv-x="1615" 
d="M1526 0h-1436v193h205l385 528l-377 520h-192v193h1394v-193h-192l-373 -514l387 -534h199v-193zM567 1241l246 -340l246 340h-492zM807 549l-258 -356h514z" />
    <glyph glyph-name="uni216C" unicode="&#x216c;" horiz-adv-x="1429" 
d="M1350 0h-1252v193h279v1048h-279v193h793v-193h-279v-1048h502v352h236v-545z" />
    <glyph glyph-name="uni216D" unicode="&#x216d;" horiz-adv-x="1527" 
d="M748 -20q-188 0 -335 92.5t-229 260.5t-82 384q0 161 50.5 299.5t139 234t211 149.5t263.5 54q128 0 233 -49t162 -115v144h232v-463h-224q-35 132 -137.5 211.5t-230.5 79.5h-21q-201 0 -321.5 -147t-120.5 -394q0 -253 118.5 -401t319.5 -148h21q128 0 226.5 78.5
t139.5 212.5h223v-463h-235v150q-56 -69 -163.5 -119.5t-239.5 -50.5z" />
    <glyph glyph-name="uni216E" unicode="&#x216e;" horiz-adv-x="1628" 
d="M840 0h-742v193h279v1048h-279v193h742q308 0 496 -191.5t188 -521.5q0 -336 -187.5 -528.5t-496.5 -192.5zM612 1241v-1048h207q226 0 347.5 132.5t121.5 395.5q0 259 -121.5 389.5t-347.5 130.5h-207z" />
    <glyph glyph-name="uni216F" unicode="&#x216f;" horiz-adv-x="2234" 
d="M750 0h-652v193h279v1048h-279v193h664l364 -1155l355 1155h655v-193h-278v-1048h278v-193h-651v193h139v985l-375 -1178h-260l-379 1192v-999h140v-193z" />
    <glyph glyph-name="arrowleft" unicode="&#x2190;" horiz-adv-x="1636" 
d="M1565 834v-234h-1088l365 -360l-154 -158l-637 637l637 633l154 -156l-365 -362h1088z" />
    <glyph glyph-name="arrowup" unicode="&#x2191;" horiz-adv-x="1497" 
d="M864 0h-233v1087l-361 -364l-157 154l635 636l634 -636l-157 -154l-361 364v-1087z" />
    <glyph glyph-name="arrowright" unicode="&#x2192;" horiz-adv-x="1636" 
d="M68 600v234h1089l-366 360l155 158l637 -635l-637 -635l-155 158l364 360h-1087z" />
    <glyph glyph-name="arrowdown" unicode="&#x2193;" horiz-adv-x="1497" 
d="M631 1434h233v-1088l361 365l157 -154l-634 -637l-635 637l157 154l361 -365v1088z" />
    <glyph glyph-name="uni2196" unicode="&#x2196;" horiz-adv-x="1370" 
d="M1288 444l-164 -163l-770 768l4 -514h-221l-2 899l899 -2v-222l-514 4z" />
    <glyph glyph-name="uni2197" unicode="&#x2197;" horiz-adv-x="1372" 
d="M246 281l-166 163l770 770l-514 -4l-2 222l899 2v-899l-221 2l2 512z" />
    <glyph glyph-name="uni2198" unicode="&#x2198;" horiz-adv-x="1370" 
d="M80 987l166 166l768 -770l-4 514l221 2l2 -899l-899 2l2 221l512 -4z" />
    <glyph glyph-name="uni2199" unicode="&#x2199;" horiz-adv-x="1372" 
d="M1126 1153l166 -164l-770 -770l514 4l2 -221l-901 -2l2 899l221 -2l-2 -512z" />
    <glyph glyph-name="uni21A4" unicode="&#x21a4;" horiz-adv-x="1751" 
d="M1343 834v397h234v-1028h-234v397h-854l365 -360l-154 -158l-637 635l637 635l154 -158l-365 -360h854z" />
    <glyph glyph-name="uni21A5" unicode="&#x21a5;" horiz-adv-x="1576" 
d="M1266 723l-361 364v-854h395v-233h-1026v233h398v854l-361 -364l-157 154l634 636l635 -636z" />
    <glyph glyph-name="uni21A6" unicode="&#x21a6;" horiz-adv-x="1751" 
d="M897 1194l154 158l637 -635l-637 -635l-154 158l365 360h-854v-397h-234v1028h234v-397h854z" />
    <glyph glyph-name="uni21A7" unicode="&#x21a7;" horiz-adv-x="1576" 
d="M905 346l361 365l157 -154l-635 -637l-634 637l157 154l361 -365v854h-396v234h1027v-234h-398v-854z" />
    <glyph glyph-name="uni21B0" unicode="&#x21b0;" horiz-adv-x="1712" 
d="M823 1194l-366 -360h1089v-834h-233v600h-854l364 -360l-155 -158l-637 637l637 633z" />
    <glyph glyph-name="uni21B1" unicode="&#x21b1;" horiz-adv-x="1712" 
d="M889 1194l155 158l637 -633l-637 -637l-155 158l366 360h-854v-600h-233v834h1087z" />
    <glyph glyph-name="uni21B2" unicode="&#x21b2;" horiz-adv-x="1722" 
d="M1313 834v600h233v-834h-1089l366 -360l-155 -158l-637 633l637 637l155 -158l-364 -360h854z" />
    <glyph glyph-name="uni21B3" unicode="&#x21b3;" horiz-adv-x="1722" 
d="M897 1194l156 158l637 -637l-637 -633l-156 158l367 360h-1088v834h234v-600h854z" />
    <glyph glyph-name="partialdiff" unicode="&#x2202;" horiz-adv-x="1187" 
d="M457 1454q125 0 228 -42t175.5 -116.5t122 -179.5t73 -230t23.5 -268q0 -311 -135 -474.5t-362 -163.5q-228 0 -363 140.5t-135 373.5q0 216 133 357.5t324 141.5q183 0 280 -119q-12 97 -49.5 171t-91 116.5t-114 63t-126.5 20.5q-117 0 -223 -33v209q101 33 240 33z
M578 193h10q109 0 182.5 76t73.5 223q0 141 -72 220t-184 79h-21q-106 0 -174.5 -78t-68.5 -219q0 -144 73 -222.5t181 -78.5z" />
    <glyph glyph-name="uni2206" unicode="&#x2206;" horiz-adv-x="1462" 
d="M1395 0h-1329v176l522 1258h284l523 -1258v-176zM731 1202l-412 -987h824z" />
    <glyph glyph-name="product" unicode="&#x220f;" horiz-adv-x="1466" 
d="M504 0h-238v1225h-196v209h1325v-209h-195v-1225h-237v1225h-459v-1225z" />
    <glyph glyph-name="summation" unicode="&#x2211;" horiz-adv-x="1138" 
d="M1034 0h-934v197l392 520l-392 530v187h934v-207h-647l381 -510l-385 -510h651v-207z" />
    <glyph glyph-name="minus" unicode="&#x2212;" horiz-adv-x="1292" 
d="M1153 422h-1012v211h1012v-211z" />
    <glyph glyph-name="uni2215" unicode="&#x2215;" horiz-adv-x="813" 
d="M258 0h-252l553 1434h246z" />
    <glyph glyph-name="uni2219" unicode="&#x2219;" horiz-adv-x="989" 
d="M494 315q-164 0 -283 119t-119 283t119 282.5t283 118.5q168 0 285.5 -118t117.5 -283t-117.5 -283.5t-285.5 -118.5z" />
    <glyph glyph-name="radical" unicode="&#x221a;" horiz-adv-x="1394" 
d="M684 0h-305l-332 1024h242l235 -770l228 1180h610v-209h-426z" />
    <glyph glyph-name="infinity" unicode="&#x221e;" horiz-adv-x="1775" 
d="M492 348q-167 0 -278.5 109.5t-111.5 279.5q0 168 111.5 278.5t278.5 110.5q135 0 223.5 -56t175.5 -171q53 74 103.5 121t124 76.5t165.5 29.5q166 0 277.5 -110.5t111.5 -278.5q0 -170 -111 -279.5t-278 -109.5q-137 0 -225 53.5t-168 165.5q-86 -112 -174.5 -165.5
t-224.5 -53.5zM496 541h10q69 0 127 49.5t117 144.5q-61 100 -117.5 149.5t-126.5 49.5h-10q-71 0 -119.5 -54.5t-48.5 -142.5q0 -91 48 -143.5t120 -52.5zM1260 541h10q75 0 126.5 53t51.5 143q0 91 -51.5 144t-126.5 53h-10q-66 0 -120 -49t-114 -146q66 -106 116 -152
t118 -46z" />
    <glyph glyph-name="integral" unicode="&#x222b;" horiz-adv-x="872" 
d="M162 -205h-127v209h102q98 0 137 41t39 141v871q0 198 99 287.5t297 89.5h129v-209h-105q-98 0 -137 -41.5t-39 -141.5v-870q0 -198 -98.5 -287.5t-296.5 -89.5z" />
    <glyph glyph-name="approxequal" unicode="&#x2248;" horiz-adv-x="1269" 
d="M868 569q-60 0 -145.5 26.5t-160 52.5t-107.5 26q-43 0 -65.5 -23.5t-22.5 -60.5h-226v69q0 103 76 173.5t191 70.5q64 0 149.5 -26t157.5 -52t104 -26q42 0 65 22t23 58h226v-70q0 -104 -74 -172t-191 -68zM868 147q-59 0 -145 26.5t-160.5 52.5t-107.5 26
q-43 0 -65.5 -23.5t-22.5 -60.5h-226v70q0 103 76 173t191 70q64 0 149.5 -26t157.5 -52t104 -26q42 0 65 22t23 58h226v-70q0 -104 -74 -172t-191 -68z" />
    <glyph glyph-name="notequal" unicode="&#x2260;" horiz-adv-x="1292" 
d="M1153 827v-209h-371l-57 -182h428v-209h-491l-62 -196h-225l61 196h-295v209h359l57 182h-416v209h480l61 197h225l-61 -197h307z" />
    <glyph glyph-name="lessequal" unicode="&#x2264;" horiz-adv-x="1271" 
d="M123 803l1012 260v-225l-697 -170l697 -166v-234l-1012 258v277zM1135 12h-1012v207h1012v-207z" />
    <glyph glyph-name="greaterequal" unicode="&#x2265;" horiz-adv-x="1269" 
d="M135 827v236l1012 -260v-277l-1012 -258v226l696 168zM1147 12h-1012v207h1012v-207z" />
    <glyph glyph-name="angleleft" unicode="&#x2329;" horiz-adv-x="821" 
d="M762 -174h-246l-467 891l467 891h246l-461 -887z" />
    <glyph glyph-name="angleright" unicode="&#x232a;" horiz-adv-x="821" 
d="M61 1608h246l467 -891l-467 -891h-246l461 887z" />
    <glyph glyph-name="uni2460" unicode="&#x2460;" horiz-adv-x="1802" 
d="M901 -80q-161 0 -309 63.5t-255.5 171t-171 255.5t-63.5 309q0 162 63.5 310t171 255t255.5 170.5t309 63.5q162 0 310 -63.5t255 -170.5t170.5 -255t63.5 -310q0 -161 -63.5 -309t-170.5 -255.5t-255 -171t-310 -63.5zM901 86q169 0 313 85.5t228 231.5t84 316
t-84 315.5t-228 230.5t-313 85t-313 -85t-228 -230.5t-84 -315.5t84 -316t228 -231.5t313 -85.5zM1034 319h-186v562l-230 -191v221l263 217h153v-809z" />
    <glyph glyph-name="uni2461" unicode="&#x2461;" horiz-adv-x="1802" 
d="M901 -80q-161 0 -309 63.5t-255.5 171t-171 255.5t-63.5 309q0 162 63.5 310t171 255t255.5 170.5t309 63.5q162 0 310 -63.5t255 -170.5t170.5 -255t63.5 -310q0 -161 -63.5 -309t-170.5 -255.5t-255 -171t-310 -63.5zM901 86q169 0 313 85.5t228 231.5t84 316
t-84 315.5t-228 230.5t-313 85t-313 -85t-228 -230.5t-84 -315.5t84 -316t228 -231.5t313 -85.5zM1198 319h-592v168l291 261q33 29 50 45t35.5 45.5t18.5 54.5q-2 37 -28.5 60.5t-67.5 23.5h-8q-40 0 -69.5 -28t-32.5 -72h-191q6 118 92.5 190t214.5 72q124 0 203.5 -70
t79.5 -170q0 -38 -11 -71t-35.5 -64.5t-44.5 -52t-56 -52.5l-201 -176h352v-164z" />
    <glyph glyph-name="uni2462" unicode="&#x2462;" horiz-adv-x="1802" 
d="M901 -80q-161 0 -309 63.5t-255.5 171t-171 255.5t-63.5 309q0 162 63.5 310t171 255t255.5 170.5t309 63.5q162 0 310 -63.5t255 -170.5t170.5 -255t63.5 -310q0 -161 -63.5 -309t-170.5 -255.5t-255 -171t-310 -63.5zM901 86q169 0 313 85.5t228 231.5t84 316
t-84 315.5t-228 230.5t-313 85t-313 -85t-228 -230.5t-84 -315.5t84 -316t228 -231.5t313 -85.5zM891 309q-127 0 -214 64t-87 176h192q1 -36 32 -59t73 -23h10q48 0 80.5 25.5t32.5 68.5q0 40 -29.5 64t-73.5 24h-78v158h80q42 0 68.5 23.5t26.5 62.5q0 38 -28.5 62
t-72.5 24h-10q-40 0 -67 -22t-29 -54h-193q0 111 85.5 173.5t211.5 62.5q123 0 209 -61.5t86 -168.5q0 -62 -31.5 -109.5t-89.5 -70.5q57 -28 92 -77t35 -115q0 -109 -91.5 -168.5t-219.5 -59.5z" />
    <glyph glyph-name="uni2463" unicode="&#x2463;" horiz-adv-x="1802" 
d="M901 -80q-161 0 -309 63.5t-255.5 171t-171 255.5t-63.5 309q0 162 63.5 310t171 255t255.5 170.5t309 63.5q162 0 310 -63.5t255 -170.5t170.5 -255t63.5 -310q0 -161 -63.5 -309t-170.5 -255.5t-255 -171t-310 -63.5zM901 86q169 0 313 85.5t228 231.5t84 316
t-84 315.5t-228 230.5t-313 85t-313 -85t-228 -230.5t-84 -315.5t84 -316t228 -231.5t313 -85.5zM1092 319h-177v150h-393v182l363 477h207v-505h110v-154h-110v-150zM915 920l-225 -297h225v297z" />
    <glyph glyph-name="uni2464" unicode="&#x2464;" horiz-adv-x="1802" 
d="M901 -80q-161 0 -309 63.5t-255.5 171t-171 255.5t-63.5 309q0 162 63.5 310t171 255t255.5 170.5t309 63.5q162 0 310 -63.5t255 -170.5t170.5 -255t63.5 -310q0 -161 -63.5 -309t-170.5 -255.5t-255 -171t-310 -63.5zM901 86q169 0 313 85.5t228 231.5t84 316
t-84 315.5t-228 230.5t-313 85t-313 -85t-228 -230.5t-84 -315.5t84 -316t228 -231.5t313 -85.5zM877 309q-126 0 -213 66.5t-97 179.5h199q7 -39 39 -63.5t74 -24.5h8q51 0 84 33.5t33 83.5q0 47 -31.5 75.5t-79.5 28.5h-6q-58 0 -99 -41h-188l92 481h492v-159h-353
l-36 -176q60 51 153 51q100 0 173 -69t73 -183q0 -128 -89 -205.5t-228 -77.5z" />
    <glyph glyph-name="uni2465" unicode="&#x2465;" horiz-adv-x="1802" 
d="M901 -80q-161 0 -309 63.5t-255.5 171t-171 255.5t-63.5 309q0 162 63.5 310t171 255t255.5 170.5t309 63.5q162 0 310 -63.5t255 -170.5t170.5 -255t63.5 -310q0 -161 -63.5 -309t-170.5 -255.5t-255 -171t-310 -63.5zM901 86q169 0 313 85.5t228 231.5t84 316
t-84 315.5t-228 230.5t-313 85t-313 -85t-228 -230.5t-84 -315.5t84 -316t228 -231.5t313 -85.5zM883 309q-150 0 -239 102.5t-89 278.5q0 206 102.5 327.5t270.5 121.5q127 0 200.5 -69t75.5 -169h-186q-6 35 -31.5 56.5t-64.5 21.5h-13q-69 0 -119 -63t-59 -160
q30 44 82.5 70t116.5 26q112 0 187 -72.5t75 -187.5q0 -121 -85 -202t-224 -81zM877 467h8q52 0 85.5 33.5t33.5 83.5q0 49 -33 80.5t-84 31.5h-8q-49 0 -84 -32t-35 -82q0 -49 33.5 -82t83.5 -33z" />
    <glyph glyph-name="uni2466" unicode="&#x2466;" horiz-adv-x="1802" 
d="M901 -80q-161 0 -309 63.5t-255.5 171t-171 255.5t-63.5 309q0 162 63.5 310t171 255t255.5 170.5t309 63.5q162 0 310 -63.5t255 -170.5t170.5 -255t63.5 -310q0 -161 -63.5 -309t-170.5 -255.5t-255 -171t-310 -63.5zM901 86q169 0 313 85.5t228 231.5t84 316
t-84 315.5t-228 230.5t-313 85t-313 -85t-228 -230.5t-84 -315.5t84 -316t228 -231.5t313 -85.5zM940 319h-197v46q0 356 254 602h-389v161h592v-151q-118 -111 -189 -263.5t-71 -342.5v-52z" />
    <glyph glyph-name="uni2467" unicode="&#x2467;" horiz-adv-x="1802" 
d="M901 -80q-161 0 -309 63.5t-255.5 171t-171 255.5t-63.5 309q0 162 63.5 310t171 255t255.5 170.5t309 63.5q162 0 310 -63.5t255 -170.5t170.5 -255t63.5 -310q0 -161 -63.5 -309t-170.5 -255.5t-255 -171t-310 -63.5zM901 86q169 0 313 85.5t228 231.5t84 316
t-84 315.5t-228 230.5t-313 85t-313 -85t-228 -230.5t-84 -315.5t84 -316t228 -231.5t313 -85.5zM901 309q-128 0 -212.5 59.5t-84.5 159.5q0 66 40 115.5t106 73.5q-160 59 -160 198q0 100 89 162t222 62q132 0 220.5 -62.5t88.5 -161.5q0 -140 -155 -198q63 -24 101 -74
t38 -115q0 -100 -83 -159.5t-210 -59.5zM895 801h10q48 0 82.5 24t34.5 66q0 41 -34.5 64.5t-82.5 23.5h-10q-48 0 -82.5 -23.5t-34.5 -64.5q0 -42 34.5 -66t82.5 -24zM895 467h10q43 0 72 23.5t29 62.5t-29.5 63.5t-71.5 24.5h-10q-42 0 -72 -24.5t-30 -63.5t29.5 -62.5
t72.5 -23.5z" />
    <glyph glyph-name="uni2468" unicode="&#x2468;" horiz-adv-x="1802" 
d="M901 -80q-161 0 -309 63.5t-255.5 171t-171 255.5t-63.5 309q0 162 63.5 310t171 255t255.5 170.5t309 63.5q162 0 310 -63.5t255 -170.5t170.5 -255t63.5 -310q0 -161 -63.5 -309t-170.5 -255.5t-255 -171t-310 -63.5zM901 86q169 0 313 85.5t228 231.5t84 316
t-84 315.5t-228 230.5t-313 85t-313 -85t-228 -230.5t-84 -315.5t84 -316t228 -231.5t313 -85.5zM868 309q-127 0 -200 68t-76 170h186q8 -36 34 -58t65 -22h12q69 0 118.5 63t57.5 160q-28 -44 -80 -70t-117 -26q-112 0 -188 73t-76 189q0 121 85.5 202t225.5 81
q150 0 239 -103t89 -280q0 -205 -103 -326t-272 -121zM911 750h9q47 0 82.5 32.5t35.5 81.5q0 50 -33.5 82.5t-84.5 32.5h-7q-52 0 -86 -33t-34 -84q0 -49 33.5 -80.5t84.5 -31.5z" />
    <glyph glyph-name="uni24EA" unicode="&#x24ea;" horiz-adv-x="1802" 
d="M901 -80q-161 0 -309 63.5t-255.5 171t-171 255.5t-63.5 309q0 162 63.5 310t171 255t255.5 170.5t309 63.5q162 0 310 -63.5t255 -170.5t170.5 -255t63.5 -310q0 -161 -63.5 -309t-170.5 -255.5t-255 -171t-310 -63.5zM901 86q169 0 313 85.5t228 231.5t84 316
t-84 315.5t-228 230.5t-313 85t-313 -85t-228 -230.5t-84 -315.5t84 -316t228 -231.5t313 -85.5zM905 307q-115 0 -196 57t-118.5 148.5t-37.5 208.5q0 179 91 297.5t261 118.5q114 0 195 -58t119 -150t38 -208t-38 -208t-119 -149t-195 -57zM901 471h8q74 0 115 70t41 180
t-41 181t-115 71h-8q-75 0 -115.5 -70.5t-40.5 -181.5t40.5 -180.5t115.5 -69.5z" />
    <glyph glyph-name="uni24FF" unicode="&#x24ff;" horiz-adv-x="1802" 
d="M901 -82q-161 0 -309 63.5t-255.5 171t-171 255.5t-63.5 309q0 162 63.5 310t171 255t255.5 170.5t309 63.5q162 0 310 -63.5t255 -170.5t170.5 -255t63.5 -310q0 -161 -63.5 -309t-170.5 -255.5t-255 -171t-310 -63.5zM905 305q114 0 195 57.5t119 149t38 207.5
q0 180 -91.5 298t-260.5 118q-115 0 -196 -57.5t-118.5 -149.5t-37.5 -209q0 -179 91 -296.5t261 -117.5zM909 469h-8q-75 0 -115.5 69.5t-40.5 180.5q0 112 40.5 182t115.5 70h8q74 0 115 -70.5t41 -181.5q0 -110 -41 -180t-115 -70z" />
    <glyph glyph-name="triagup" unicode="&#x25b2;" horiz-adv-x="1720" 
d="M1690 0h-1659l829 1475z" />
    <glyph glyph-name="lozenge" unicode="&#x25ca;" horiz-adv-x="1282" 
d="M762 0h-232l-481 717l481 717h232l471 -717zM311 719l334 -498l332 492l-334 506z" />
    <glyph glyph-name="uni2776" unicode="&#x2776;" horiz-adv-x="1802" 
d="M901 -82q-161 0 -309 63.5t-255.5 171t-171 255.5t-63.5 309q0 162 63.5 310t171 255t255.5 170.5t309 63.5q162 0 310 -63.5t255 -170.5t170.5 -255t63.5 -310q0 -161 -63.5 -309t-170.5 -255.5t-255 -171t-310 -63.5zM848 879v-562h186v809h-153l-263 -217v-221z" />
    <glyph glyph-name="uni2777" unicode="&#x2777;" horiz-adv-x="1802" 
d="M901 -82q-161 0 -309 63.5t-255.5 171t-171 255.5t-63.5 309q0 162 63.5 310t171 255t255.5 170.5t309 63.5q162 0 310 -63.5t255 -170.5t170.5 -255t63.5 -310q0 -161 -63.5 -309t-170.5 -255.5t-255 -171t-310 -63.5zM606 487v-170h592v164h-352l201 176q35 32 56 53
t45 52.5t35 65t11 71.5q0 99 -80 168.5t-203 69.5q-128 0 -214.5 -72t-92.5 -191h191q3 44 32.5 72.5t69.5 28.5h8q41 0 68 -22.5t28 -59.5q0 -25 -16 -52t-33 -44.5t-46 -43.5l-3 -3t-3 -2.5t-3 -2.5z" />
    <glyph glyph-name="uni2778" unicode="&#x2778;" horiz-adv-x="1802" 
d="M901 -82q-161 0 -309 63.5t-255.5 171t-171 255.5t-63.5 309q0 162 63.5 310t171 255t255.5 170.5t309 63.5q162 0 310 -63.5t255 -170.5t170.5 -255t63.5 -310q0 -161 -63.5 -309t-170.5 -255.5t-255 -171t-310 -63.5zM891 307q128 0 219.5 60.5t91.5 169.5
q0 66 -35 115t-92 75q58 25 89.5 71.5t31.5 108.5q0 107 -86 168.5t-209 61.5q-126 0 -211.5 -62.5t-85.5 -173.5h193q1 34 28.5 56t67.5 22h10q44 0 72.5 -25t28.5 -63q0 -39 -26.5 -62.5t-68.5 -23.5h-80v-158h78q45 0 74 -23.5t29 -64.5q0 -43 -32.5 -68.5t-80.5 -25.5
h-10q-42 0 -73 23.5t-32 60.5h-192q0 -112 87.5 -177t213.5 -65z" />
    <glyph glyph-name="uni2779" unicode="&#x2779;" horiz-adv-x="1802" 
d="M901 -82q-161 0 -309 63.5t-255.5 171t-171 255.5t-63.5 309q0 162 63.5 310t171 255t255.5 170.5t309 63.5q162 0 310 -63.5t255 -170.5t170.5 -255t63.5 -310q0 -161 -63.5 -309t-170.5 -255.5t-255 -171t-310 -63.5zM915 467v-150h177v150h110v154h-110v505h-207
l-363 -475v-184h393zM915 621h-225l225 299v-299z" />
    <glyph glyph-name="uni277A" unicode="&#x277a;" horiz-adv-x="1802" 
d="M901 -82q-161 0 -309 63.5t-255.5 171t-171 255.5t-63.5 309q0 162 63.5 310t171 255t255.5 170.5t309 63.5q162 0 310 -63.5t255 -170.5t170.5 -255t63.5 -310q0 -161 -63.5 -309t-170.5 -255.5t-255 -171t-310 -63.5zM877 307q139 0 228 77.5t89 205.5q0 114 -73 184
t-173 70q-90 0 -153 -53l36 176h353v159h-492l-92 -481h188q36 41 99 41h6q48 0 79.5 -28.5t31.5 -75.5q0 -50 -33 -82.5t-84 -32.5h-8q-42 0 -74 23.5t-39 62.5h-199q10 -113 97 -179.5t213 -66.5z" />
    <glyph glyph-name="uni277B" unicode="&#x277b;" horiz-adv-x="1802" 
d="M901 -82q-161 0 -309 63.5t-255.5 171t-171 255.5t-63.5 309q0 162 63.5 310t171 255t255.5 170.5t309 63.5q162 0 310 -63.5t255 -170.5t170.5 -255t63.5 -310q0 -161 -63.5 -309t-170.5 -255.5t-255 -171t-310 -63.5zM883 307q139 0 224 81t85 202q0 115 -75 187.5
t-187 72.5q-65 0 -117 -25t-82 -69q9 96 59 158.5t119 62.5h13q39 0 64.5 -21.5t31.5 -56.5h186q-2 101 -75.5 169.5t-200.5 68.5q-168 0 -270.5 -121.5t-102.5 -327.5q0 -176 89 -278.5t239 -102.5zM885 467h-8q-50 0 -83.5 32.5t-33.5 82.5q0 48 35 80t84 32h8
q51 0 84 -31.5t33 -80.5q0 -50 -33.5 -82.5t-85.5 -32.5z" />
    <glyph glyph-name="uni277C" unicode="&#x277c;" horiz-adv-x="1802" 
d="M901 -82q-161 0 -309 63.5t-255.5 171t-171 255.5t-63.5 309q0 162 63.5 310t171 255t255.5 170.5t309 63.5q162 0 310 -63.5t255 -170.5t170.5 -255t63.5 -310q0 -161 -63.5 -309t-170.5 -255.5t-255 -171t-310 -63.5zM743 365v-48h197v54q0 189 71.5 342t188.5 264v149
h-592v-161h389q-254 -246 -254 -600z" />
    <glyph glyph-name="uni277D" unicode="&#x277d;" horiz-adv-x="1802" 
d="M901 -82q-161 0 -309 63.5t-255.5 171t-171 255.5t-63.5 309q0 162 63.5 310t171 255t255.5 170.5t309 63.5q162 0 310 -63.5t255 -170.5t170.5 -255t63.5 -310q0 -161 -63.5 -309t-170.5 -255.5t-255 -171t-310 -63.5zM901 307q126 0 209.5 60t83.5 159q0 66 -38 115.5
t-101 73.5q155 62 155 198q0 101 -88.5 162.5t-220.5 61.5q-133 0 -222 -61.5t-89 -162.5q0 -139 160 -198q-66 -24 -106 -73.5t-40 -115.5q0 -99 84.5 -159t212.5 -60zM905 801h-10q-47 0 -82 23.5t-35 64.5q0 42 34 65t83 23h10q49 0 83 -23t34 -65q0 -41 -35 -64.5
t-82 -23.5zM905 467h-10q-43 0 -72.5 23t-29.5 63q0 38 30 63t72 25h10q42 0 71.5 -25t29.5 -63q0 -40 -29 -63t-72 -23z" />
    <glyph glyph-name="uni277E" unicode="&#x277e;" horiz-adv-x="1802" 
d="M901 -82q-161 0 -309 63.5t-255.5 171t-171 255.5t-63.5 309q0 162 63.5 310t171 255t255.5 170.5t309 63.5q162 0 310 -63.5t255 -170.5t170.5 -255t63.5 -310q0 -161 -63.5 -309t-170.5 -255.5t-255 -171t-310 -63.5zM868 307q169 0 272 122t103 327q0 176 -89 278.5
t-239 102.5q-140 0 -225.5 -81t-85.5 -202q0 -115 76 -187.5t188 -72.5q65 0 117 25.5t80 68.5q-8 -95 -57.5 -158t-118.5 -63h-12q-39 0 -65 21.5t-34 56.5h-186q3 -102 76 -170t200 -68zM920 750h-9q-51 0 -84.5 31.5t-33.5 80.5q0 50 34 82.5t86 32.5h7q51 0 84.5 -32
t33.5 -83q0 -48 -35.5 -80t-82.5 -32z" />
    <glyph glyph-name="uni300A" unicode="&#x300a;" horiz-adv-x="1269" 
d="M762 -174h-246l-467 891l467 891h246l-461 -887zM1208 -174h-245l-467 891l467 891h245l-460 -887z" />
    <glyph glyph-name="uni300B" unicode="&#x300b;" horiz-adv-x="1269" 
d="M61 1608h246l467 -891l-467 -891h-246l461 887zM508 1608h246l467 -891l-467 -891h-246l461 887z" />
    <glyph glyph-name="uni300C" unicode="&#x300c;" horiz-adv-x="692" 
d="M367 795h-230v936h512v-197h-282v-739z" />
    <glyph glyph-name="uni300D" unicode="&#x300d;" horiz-adv-x="692" 
d="M326 639h229v-936h-512v197h283v739z" />
    <glyph glyph-name="uni300E" unicode="&#x300e;" horiz-adv-x="948" 
d="M598 627h-455v1104h736v-394h-281v-710zM307 1589v-823h129v711h281v112h-410z" />
    <glyph glyph-name="uni300F" unicode="&#x300f;" horiz-adv-x="954" 
d="M348 807h457v-1104h-737v393h280v711zM641 -156v824h-129v-711h-281v-113h410z" />
    <glyph glyph-name="uni3010" unicode="&#x3010;" horiz-adv-x="802" 
d="M799 -297h-629v2028h629q-197 -211 -295 -474t-98 -538q0 -273 97 -536.5t296 -479.5z" />
    <glyph glyph-name="uni3011" unicode="&#x3011;" horiz-adv-x="802" 
d="M4 1733h629v-2028h-629q197 211 295 474t98 538q0 273 -97 536.5t-296 479.5z" />
    <glyph glyph-name="uni3014" unicode="&#x3014;" horiz-adv-x="698" 
d="M694 -297h-272l-293 330v1368l293 330h272l-329 -373v-1282z" />
    <glyph glyph-name="uni3015" unicode="&#x3015;" horiz-adv-x="698" 
d="M4 1733h272l293 -330v-1368l-293 -330h-272l330 373v1282z" />
    <glyph glyph-name="uniE000" unicode="&#xe000;" horiz-adv-x="1105" 
d="M963 307h-820v819h820v-819zM297 973v-512h512v512h-512z" />
    <glyph glyph-name="uniE001" unicode="&#xe001;" horiz-adv-x="1413" 
d="M1270 154h-1127v1126h1127v-1126zM297 1126v-819h819v819h-819z" />
    <glyph glyph-name="uniE002" unicode="&#xe002;" horiz-adv-x="1802" 
d="M1618 0h-1434v1434h1434v-1434zM338 1280v-1126h1126v1126h-1126z" />
    <glyph glyph-name="uniE003" unicode="&#xe003;" horiz-adv-x="1105" 
d="M963 307h-820v819h820v-819zM297 973v-512h512v512h-512zM655 614h-204v205h204v-205z" />
    <glyph glyph-name="uniE004" unicode="&#xe004;" horiz-adv-x="1413" 
d="M1270 154h-1127v1126h1127v-1126zM297 1126v-819h819v819h-819zM963 461h-512v512h512v-512zM604 819v-205h205v205h-205z" />
    <glyph glyph-name="uniE005" unicode="&#xe005;" horiz-adv-x="1802" 
d="M1618 0h-1434v1434h1434v-1434zM338 1280v-1126h1126v1126h-1126zM1311 307h-819v819h819v-819zM645 973v-512h512v512h-512zM1004 614h-205v205h205v-205z" />
    <glyph glyph-name="uniE006" unicode="&#xe006;" horiz-adv-x="1105" 
d="M963 307h-820v819h820v-819z" />
    <glyph glyph-name="uniE007" unicode="&#xe007;" horiz-adv-x="1413" 
d="M1270 154h-1127v1126h1127v-1126z" />
    <glyph glyph-name="uniE008" unicode="&#xe008;" horiz-adv-x="1802" 
d="M1618 0h-1434v1434h1434v-1434z" />
    <glyph glyph-name="uniE00A" unicode="&#xe00a;" horiz-adv-x="778" 
d="M711 -297h-228q-118 0 -198 69.5t-80 182.5q0 105 74 184q-93 20 -129.5 79.5t-36.5 148.5v700q0 197 166 233q-74 79 -74 179q0 113 80 182.5t198 69.5h228v-197h-179q-41 0 -66.5 -23.5t-25.5 -60.5v-16q0 -37 25.5 -59.5t66.5 -22.5h46v-197h-103q-127 0 -127 -129
v-618q0 -129 127 -129h103v-197h-48q-40 0 -65 -22.5t-25 -59.5v-16q0 -37 25 -60.5t65 -23.5h181v-197z" />
    <glyph glyph-name="uniE00B" unicode="&#xe00b;" horiz-adv-x="786" 
d="M74 1731h227q118 0 197.5 -69.5t79.5 -182.5q0 -108 -74 -185q49 -10 82.5 -32t51 -53.5t25 -65.5t7.5 -76v-700q0 -198 -166 -234q74 -79 74 -178q0 -113 -79.5 -182.5t-197.5 -69.5h-227v197h178q40 0 65 23.5t25 60.5v16q0 37 -25 59.5t-65 22.5h-45v197h100
q127 0 127 129v618q0 129 -127 129h-100v197h45q41 0 65.5 22.5t24.5 59.5v16q0 37 -24.5 60.5t-65.5 23.5h-178v197z" />
    <glyph glyph-name="uniE010" unicode="&#xe010;" horiz-adv-x="1140" 
d="M571 225q-133 0 -246 66t-179 179.5t-66 246.5t66 246t179 179t246 66t246.5 -66t179.5 -179t66 -246q0 -99 -39 -190.5t-105 -157.5t-157.5 -105t-190.5 -39zM571 379q139 0 238.5 99.5t99.5 238.5t-99.5 238.5t-238.5 99.5t-238.5 -99.5t-99.5 -238.5t99.5 -238.5
t238.5 -99.5z" />
    <glyph glyph-name="uniE011" unicode="&#xe011;" horiz-adv-x="1495" 
d="M748 72q-174 0 -323 87t-236 235.5t-87 322.5t87 322.5t236 235.5t323 87t322.5 -87t235.5 -235.5t87 -322.5t-87 -322.5t-235.5 -235.5t-322.5 -87zM748 225q133 0 246 66t179 179.5t66 246.5t-66 246t-179 179t-246 66t-246.5 -66t-179.5 -179t-66 -246
q0 -99 39 -190.5t105 -157.5t157.5 -105t190.5 -39z" />
    <glyph glyph-name="uniE012" unicode="&#xe012;" horiz-adv-x="1755" 
d="M879 -82q-161 0 -309 63.5t-255.5 171t-171 255.5t-63.5 309q0 162 63.5 310t171 255t255.5 170.5t309 63.5q162 0 310 -63.5t254.5 -170.5t170 -255t63.5 -310q0 -161 -63.5 -309t-170 -255.5t-254.5 -171t-310 -63.5zM879 72q174 0 322.5 87t235.5 235.5t87 322.5
t-87 322.5t-235.5 235.5t-322.5 87t-323 -87t-236 -235.5t-87 -322.5t87 -322.5t236 -235.5t323 -87z" />
    <glyph glyph-name="uniE013" unicode="&#xe013;" horiz-adv-x="1187" 
d="M594 225q-99 0 -190.5 39t-157.5 105t-105 157.5t-39 190.5q0 133 66 246t179.5 179t246.5 66t246 -66t179 -179t66 -246t-66 -246.5t-179 -179.5t-246 -66zM594 379q140 0 239 99.5t99 238.5t-99 238.5t-239 99.5t-239 -99.5t-99 -238.5t99 -238.5t239 -99.5zM594 532
q-75 0 -129.5 55t-54.5 130q0 76 54.5 130t129.5 54q76 0 130 -53.5t54 -130.5q0 -75 -54 -130t-130 -55z" />
    <glyph glyph-name="uniE014" unicode="&#xe014;" horiz-adv-x="1495" 
d="M748 72q-174 0 -323 87t-236 235.5t-87 322.5t87 322.5t236 235.5t323 87t322.5 -87t235.5 -235.5t87 -322.5t-87 -322.5t-235.5 -235.5t-322.5 -87zM748 225q133 0 246 66t179 179.5t66 246.5t-66 246t-179 179t-246 66t-246.5 -66t-179.5 -179t-66 -246
q0 -99 39 -190.5t105 -157.5t157.5 -105t190.5 -39zM748 379q-140 0 -239 99.5t-99 238.5t99 238.5t239 99.5q139 0 238 -99t99 -239t-99 -239t-238 -99zM748 532q76 0 130 55t54 130q0 77 -54 130.5t-130 53.5q-75 0 -130 -54t-55 -130q0 -75 55 -130t130 -55z" />
    <glyph glyph-name="uniE015" unicode="&#xe015;" horiz-adv-x="1802" 
d="M901 -82q-161 0 -309 63.5t-255.5 171t-171 255.5t-63.5 309q0 162 63.5 310t171 255t255.5 170.5t309 63.5q162 0 310 -63.5t255 -170.5t170.5 -255t63.5 -310q0 -161 -63.5 -309t-170.5 -255.5t-255 -171t-310 -63.5zM901 72q174 0 322.5 87t235.5 235.5t87 322.5
t-87 322.5t-235.5 235.5t-322.5 87t-322.5 -87t-235.5 -235.5t-87 -322.5t87 -322.5t235.5 -235.5t322.5 -87zM901 225q-133 0 -246 66t-179 179.5t-66 246.5t66 246t179 179t246 66t246.5 -66t179.5 -179t66 -246q0 -99 -39 -190.5t-105 -157.5t-157.5 -105t-190.5 -39z
M901 379q139 0 238.5 99.5t99.5 238.5t-99.5 238.5t-238.5 99.5t-238.5 -99.5t-99.5 -238.5t99.5 -238.5t238.5 -99.5zM901 532q-75 0 -129.5 55t-54.5 130q0 76 54.5 130t129.5 54q77 0 130.5 -53.5t53.5 -130.5q0 -75 -54 -130t-130 -55z" />
    <glyph glyph-name="uniE016" unicode="&#xe016;" horiz-adv-x="1263" 
d="M633 225q-99 0 -190.5 39t-157.5 105t-105 157.5t-39 190.5q0 133 66 246t179.5 179t246.5 66t246 -66t179 -179t66 -246t-66 -246.5t-179 -179.5t-246 -66z" />
    <glyph glyph-name="uniE017" unicode="&#xe017;" horiz-adv-x="1386" 
d="M694 102q-166 0 -307.5 82.5t-224 224.5t-82.5 308t82.5 307.5t224 224t307.5 82.5t308 -82.5t224.5 -224t82.5 -307.5q0 -124 -49 -238t-131.5 -196.5t-196.5 -131.5t-238 -49z" />
    <glyph glyph-name="uniE018" unicode="&#xe018;" horiz-adv-x="1632" 
d="M817 -20q-200 0 -369.5 99t-268.5 268.5t-99 369.5t99 369.5t268.5 268.5t369.5 99t369.5 -99t268.5 -268.5t99 -369.5t-99 -369.5t-268.5 -268.5t-369.5 -99z" />
    <glyph glyph-name="uniF8FF" unicode="&#xf8ff;" horiz-adv-x="1675" 
d="M1655 1446q58 0 110 -12t74 -31q-1 -4 -1.5 -19t-2 -25t-4.5 -13q-18 -15 -62 -15q-45 0 -69 8q2 -55 -12.5 -103t-52.5 -81.5t-93 -28.5q-18 -58 -57.5 -99.5t-91.5 -61.5t-101 -28.5t-102 -8.5q-39 0 -55 2q0 -1 7 -23.5t18 -62t22.5 -87.5t23.5 -109t19 -116
q5 -6 29 -33.5t40 -45t43.5 -45.5t53.5 -52q43 -39 77 -84t45 -75q5 -10 5 -23q0 -30 -39 -37q-44 26 -84.5 65.5t-90.5 97t-85 91.5q-2 -10 -2 -31q0 -72 25 -184t28 -141q-31 -25 -60 -25q-23 0 -26 19q-27 45 -44 138t-25.5 183.5t-10.5 98.5q-64 3 -457 -91
q-1 -47 16 -91t44.5 -82t56.5 -74.5t57.5 -83.5t42.5 -93q-15 -22 -41 -22q-17 0 -35 12q-16 9 -35.5 30.5t-33.5 40.5t-37 52.5t-33 46.5q-23 30 -48.5 86t-37.5 64q-20 -60 -37.5 -107.5t-35.5 -92t-32.5 -68.5t-23.5 -23h-16q-45 0 -45 37q0 58 37 165t90 199
q-14 2 -105.5 9t-168.5 24.5t-124 54.5q-10 13 -20 29q12 15 25 26t21.5 16.5t25.5 15.5t26 16q29 39 106.5 97.5t108.5 102.5q-12 10 -59 32t-85.5 48.5t-47.5 55.5q4 4 18 39q9 7 65.5 -15t121.5 -55q2 15 4 51t5.5 60t10.5 34q3 7 22 14t36 10l18 3q8 -5 15 -14.5
t7 -16.5q2 -16 -10.5 -83.5t-9.5 -102.5q47 0 96.5 22.5t103.5 59t78 47.5q13 4 62 16.5t102 27t92 26.5q-41 71 -41 157q0 77 35 115q132 1 202.5 -48.5t70.5 -127.5q0 -31 -13 -68q40 3 83.5 28t49.5 50q-19 18 -46.5 33.5t-44.5 30.5t-27 43q-33 36 -33 79q0 36 23.5 67
t64.5 46q25 10 57 10q62 0 101 -48t39 -122q0 -27 -2 -39q49 23 49 170q0 10 -1 32t-1 32q16 2 49 2zM1464 1204q6 15 6 35q0 33 -19.5 60.5t-55.5 37.5q-13 -23 -13 -41q0 -34 26.5 -61.5t55.5 -30.5zM1198 1042q3 1 8 4.5t13 21.5t8 44q-57 57 -117 57q-8 -28 -8 -49
q0 -56 24 -80q6 -6 21 -6q3 0 51 8zM1073 553q6 0 19 -1t20 -1q-6 38 -20.5 89t-18.5 69q-5 27 -9 59.5t-6 49t-10 36.5t-22 37q-99 -22 -240 -96t-223 -95q13 -45 25.5 -102.5t20.5 -96t9 -42.5q63 3 141.5 27t158.5 45.5t155 21.5zM475 461q25 0 35 2q-11 28 -27.5 90
t-31.5 96q-19 -17 -60 -51t-65.5 -59t-42.5 -56q139 -22 192 -22z" />
    <glyph glyph-name="G.ss02" horiz-adv-x="1513" 
d="M795 -20q-211 0 -372 96t-246 262.5t-85 378.5t85 378.5t246 262.5t372 96q269 0 426.5 -140t173.5 -364h-246q-15 133 -103 209t-241 76h-21q-206 0 -326 -139.5t-120 -378.5t120 -378.5t326 -139.5h21q166 0 263 82t97 213v26h-370v219h610v-243q0 -228 -168.5 -372
t-441.5 -144z" />
    <glyph glyph-name="Gbreve.ss02" horiz-adv-x="1513" 
d="M795 1524q-146 0 -240.5 81t-95.5 218h194q4 -62 44.5 -93.5t97.5 -31.5q56 0 96 31.5t43 93.5h194q-1 -137 -94.5 -218t-238.5 -81zM795 -20q-211 0 -372 96t-246 262.5t-85 378.5t85 378.5t246 262.5t372 96q269 0 426.5 -140t173.5 -364h-246q-15 133 -103 209
t-241 76h-21q-206 0 -326 -139.5t-120 -378.5t120 -378.5t326 -139.5h21q166 0 263 82t97 213v26h-370v219h610v-243q0 -228 -168.5 -372t-441.5 -144z" />
    <glyph glyph-name="Gcircumflex.ss02" horiz-adv-x="1513" 
d="M967 1538l-172 129l-172 -129h-199l235 285h271l235 -285h-198zM795 520v219h610v-243q0 -228 -168.5 -372t-441.5 -144q-211 0 -372 96t-246 262.5t-85 378.5t85 378.5t246 262.5t372 96q269 0 426.5 -140t173.5 -364h-246q-15 133 -103 209t-241 76h-21
q-206 0 -326 -139.5t-120 -378.5t120 -378.5t326 -139.5h21q166 0 263 82t97 213v26h-370z" />
    <glyph glyph-name="uni0122.ss02" horiz-adv-x="1513" 
d="M795 -20q-211 0 -372 96t-246 262.5t-85 378.5t85 378.5t246 262.5t372 96q269 0 426.5 -140t173.5 -364h-246q-15 133 -103 209t-241 76h-21q-206 0 -326 -139.5t-120 -378.5t120 -378.5t326 -139.5h21q166 0 263 82t97 213v26h-370v219h610v-243q0 -228 -168.5 -372
t-441.5 -144zM674 -612h-47v131h37q110 0 110 80v6h-100v239h235v-243q0 -93 -64.5 -153t-170.5 -60z" />
    <glyph glyph-name="Gdotaccent.ss02" horiz-adv-x="1513" 
d="M922 1579h-256v256h256v-256zM795 -20q-211 0 -372 96t-246 262.5t-85 378.5t85 378.5t246 262.5t372 96q269 0 426.5 -140t173.5 -364h-246q-15 133 -103 209t-241 76h-21q-206 0 -326 -139.5t-120 -378.5t120 -378.5t326 -139.5h21q166 0 263 82t97 213v26h-370v219
h610v-243q0 -228 -168.5 -372t-441.5 -144z" />
    <glyph glyph-name="R.ss03" horiz-adv-x="1394" 
d="M420 0h-246v1434h645q191 0 318 -111t127 -279q0 -137 -79.5 -232.5t-180.5 -125.5q75 -3 106.5 -40.5t63.5 -139.5l161 -506h-256l-137 424q-24 76 -52.5 103.5t-92.5 27.5h-377v-555zM420 1214v-442h338q125 0 192.5 62t67.5 167t-66 159t-194 54h-338z" />
    <glyph glyph-name="Racute.ss03" horiz-adv-x="1394" 
d="M762 1538h-168l88 285h283zM420 0h-246v1434h645q191 0 318 -111t127 -279q0 -137 -79.5 -232.5t-180.5 -125.5q75 -3 106.5 -40.5t63.5 -139.5l161 -506h-256l-137 424q-24 76 -52.5 103.5t-92.5 27.5h-377v-555zM420 1214v-442h338q125 0 192.5 62t67.5 167t-66 159
t-194 54h-338z" />
    <glyph glyph-name="Rcaron.ss03" horiz-adv-x="1394" 
d="M1049 1823l-236 -285h-270l-236 285h199l172 -127l172 127h199zM1174 506l161 -506h-256l-137 424q-24 76 -52.5 103.5t-92.5 27.5h-377v-555h-246v1434h645q191 0 318 -111t127 -279q0 -137 -79.5 -232.5t-180.5 -125.5q75 -3 106.5 -40.5t63.5 -139.5zM420 772h338
q125 0 192.5 62t67.5 167t-66 159t-194 54h-338v-442z" />
    <glyph glyph-name="uni0156.ss03" horiz-adv-x="1394" 
d="M420 0h-246v1434h645q191 0 318 -111t127 -279q0 -137 -79.5 -232.5t-180.5 -125.5q75 -3 106.5 -40.5t63.5 -139.5l161 -506h-256l-137 424q-24 76 -52.5 103.5t-92.5 27.5h-377v-555zM420 1214v-442h338q125 0 192.5 62t67.5 167t-66 159t-194 54h-338zM606 -612h-45
v131h35q56 0 84.5 21t28.5 59v6h-101v239h236v-243q0 -93 -65.5 -153t-172.5 -60z" />
    <glyph glyph-name="a.ss01" horiz-adv-x="1226" 
d="M530 -20q-86 0 -165 34.5t-142 99.5t-100 168t-37 230t35.5 230t97 168t141.5 99.5t170 34.5q117 0 196 -45.5t120 -117.5v143h235v-1024h-235v143q-97 -163 -316 -163zM571 172h19q107 0 181.5 91t74.5 249t-74.5 249t-181.5 91h-19q-106 0 -177.5 -92.5t-71.5 -245.5
q0 -154 71.5 -248t177.5 -94z" />
    <glyph glyph-name="aacute.ss01" horiz-adv-x="1226" 
d="M684 1139h-143l75 295h265zM530 -20q-86 0 -165 34.5t-142 99.5t-100 168t-37 230t35.5 230t97 168t141.5 99.5t170 34.5q117 0 196 -45.5t120 -117.5v143h235v-1024h-235v143q-97 -163 -316 -163zM571 172h19q107 0 181.5 91t74.5 249t-74.5 249t-181.5 91h-19
q-106 0 -177.5 -92.5t-71.5 -245.5q0 -154 71.5 -248t177.5 -94z" />
    <glyph glyph-name="abreve.ss01" horiz-adv-x="1226" 
d="M616 1133q-145 0 -234 76t-93 225h192q4 -72 39.5 -109t95.5 -37t97 37t41 109h190q-2 -76 -28 -134t-71 -94t-102.5 -54.5t-126.5 -18.5zM530 -20q-86 0 -165 34.5t-142 99.5t-100 168t-37 230t35.5 230t97 168t141.5 99.5t170 34.5q117 0 196 -45.5t120 -117.5v143h235
v-1024h-235v143q-97 -163 -316 -163zM571 172h19q107 0 181.5 91t74.5 249t-74.5 249t-181.5 91h-19q-106 0 -177.5 -92.5t-71.5 -245.5q0 -154 71.5 -248t177.5 -94z" />
    <glyph glyph-name="acircumflex.ss01" horiz-adv-x="1226" 
d="M821 1139l-205 151l-204 -151h-156l223 295h275l223 -295h-156zM846 881v143h235v-1024h-235v143q-97 -163 -316 -163q-86 0 -165 34.5t-142 99.5t-100 168t-37 230t35.5 230t97 168t141.5 99.5t170 34.5q117 0 196 -45.5t120 -117.5zM571 172h19q107 0 181.5 91
t74.5 249t-74.5 249t-181.5 91h-19q-106 0 -177.5 -92.5t-71.5 -245.5q0 -154 71.5 -248t177.5 -94z" />
    <glyph glyph-name="adieresis.ss01" horiz-adv-x="1226" 
d="M530 1180h-227v243h227v-243zM932 1180h-230v243h230v-243zM530 -20q-86 0 -165 34.5t-142 99.5t-100 168t-37 230t35.5 230t97 168t141.5 99.5t170 34.5q117 0 196 -45.5t120 -117.5v143h235v-1024h-235v143q-97 -163 -316 -163zM571 172h19q107 0 181.5 91t74.5 249
t-74.5 249t-181.5 91h-19q-106 0 -177.5 -92.5t-71.5 -245.5q0 -154 71.5 -248t177.5 -94z" />
    <glyph glyph-name="uni0227.ss01" horiz-adv-x="1226" 
d="M743 1180h-256v254h256v-254zM530 -20q-86 0 -165 34.5t-142 99.5t-100 168t-37 230t35.5 230t97 168t141.5 99.5t170 34.5q117 0 196 -45.5t120 -117.5v143h235v-1024h-235v143q-97 -163 -316 -163zM571 172h19q107 0 181.5 91t74.5 249t-74.5 249t-181.5 91h-19
q-106 0 -177.5 -92.5t-71.5 -245.5q0 -154 71.5 -248t177.5 -94z" />
    <glyph glyph-name="agrave.ss01" horiz-adv-x="1226" 
d="M692 1139h-145l-197 295h264zM530 -20q-86 0 -165 34.5t-142 99.5t-100 168t-37 230t35.5 230t97 168t141.5 99.5t170 34.5q117 0 196 -45.5t120 -117.5v143h235v-1024h-235v143q-97 -163 -316 -163zM571 172h19q107 0 181.5 91t74.5 249t-74.5 249t-181.5 91h-19
q-106 0 -177.5 -92.5t-71.5 -245.5q0 -154 71.5 -248t177.5 -94z" />
    <glyph glyph-name="amacron.ss01" horiz-adv-x="1226" 
d="M920 1180h-609v188h609v-188zM530 -20q-86 0 -165 34.5t-142 99.5t-100 168t-37 230t35.5 230t97 168t141.5 99.5t170 34.5q117 0 196 -45.5t120 -117.5v143h235v-1024h-235v143q-97 -163 -316 -163zM571 172h19q107 0 181.5 91t74.5 249t-74.5 249t-181.5 91h-19
q-106 0 -177.5 -92.5t-71.5 -245.5q0 -154 71.5 -248t177.5 -94z" />
    <glyph glyph-name="aogonek.ss01" horiz-adv-x="1226" 
d="M1081 1024v-1024q-168 -99 -168 -193q0 -49 32.5 -71.5t82.5 -22.5h49v-151h-88q-108 0 -173.5 54.5t-65.5 137.5q0 149 165 246h-69v143q-97 -163 -316 -163q-86 0 -165 34.5t-142 99.5t-100 168t-37 230t35.5 230t97 168t141.5 99.5t170 34.5q117 0 196 -45.5
t120 -117.5v143h235zM571 172h19q107 0 181.5 91t74.5 249t-74.5 249t-181.5 91h-19q-106 0 -177.5 -92.5t-71.5 -245.5q0 -154 71.5 -248t177.5 -94z" />
    <glyph glyph-name="aring.ss01" horiz-adv-x="1226" 
d="M616 1118q-83 0 -144.5 59.5t-61.5 147.5q0 83 62 144t144 61q85 0 146 -61t61 -144q0 -88 -60.5 -147.5t-146.5 -59.5zM618 1235q37 0 63 26.5t26 63.5t-26 63.5t-63 26.5t-63.5 -26.5t-26.5 -63.5t26.5 -63.5t63.5 -26.5zM530 -20q-86 0 -165 34.5t-142 99.5t-100 168
t-37 230t35.5 230t97 168t141.5 99.5t170 34.5q117 0 196 -45.5t120 -117.5v143h235v-1024h-235v143q-97 -163 -316 -163zM571 172h19q107 0 181.5 91t74.5 249t-74.5 249t-181.5 91h-19q-106 0 -177.5 -92.5t-71.5 -245.5q0 -154 71.5 -248t177.5 -94z" />
    <glyph glyph-name="atilde.ss01" horiz-adv-x="1226" 
d="M782 1137q-68 0 -170 57l-43 25q-53 32 -90 32q-30 0 -49.5 -25t-19.5 -69h-174v53q0 94 62 160t155 66q33 0 65 -9t50.5 -18t49.5 -27l39 -22q7 -3 25 -13t27 -14.5t23 -9t26 -4.5q29 0 47 25.5t18 70.5h172v-53q0 -94 -62 -159.5t-151 -65.5zM530 -20q-86 0 -165 34.5
t-142 99.5t-100 168t-37 230t35.5 230t97 168t141.5 99.5t170 34.5q117 0 196 -45.5t120 -117.5v143h235v-1024h-235v143q-97 -163 -316 -163zM571 172h19q107 0 181.5 91t74.5 249t-74.5 249t-181.5 91h-19q-106 0 -177.5 -92.5t-71.5 -245.5q0 -154 71.5 -248t177.5 -94z
" />
    <glyph glyph-name="i.loclTRK" horiz-adv-x="524" 
d="M389 1180h-256v254h256v-254zM379 0h-236v1024h236v-1024z" />
    <glyph glyph-name="y.ss04" horiz-adv-x="1114" 
d="M580 348l262 676h254l-500 -1260q-38 -92 -93.5 -127.5t-160.5 -35.5h-276v206h221q52 0 73.5 15t38.5 61l64 166l-459 975h258z" />
    <glyph glyph-name="yacute.ss04" horiz-adv-x="1114" 
d="M557 1434h264l-196 -295h-146zM580 348l262 676h254l-500 -1260q-38 -92 -93.5 -127.5t-160.5 -35.5h-276v206h221q52 0 73.5 15t38.5 61l64 166l-459 975h258z" />
    <glyph glyph-name="ycircumflex.ss04" horiz-adv-x="1114" 
d="M762 1139l-205 151l-205 -151h-155l223 295h274l221 -295h-153zM580 348l262 676h254l-500 -1260q-38 -92 -93.5 -127.5t-160.5 -35.5h-276v206h221q52 0 73.5 15t38.5 61l64 166l-459 975h258z" />
    <glyph glyph-name="ydieresis.ss04" horiz-adv-x="1114" 
d="M242 1423h229v-243h-229v243zM643 1423h227v-243h-227v243zM580 348l262 676h254l-500 -1260q-38 -92 -93.5 -127.5t-160.5 -35.5h-276v206h221q52 0 73.5 15t38.5 61l64 166l-459 975h258z" />
    <glyph glyph-name="ygrave.ss04" horiz-adv-x="1114" 
d="M553 1434l78 -295h-144l-196 295h262zM580 348l262 676h254l-500 -1260q-38 -92 -93.5 -127.5t-160.5 -35.5h-276v206h221q52 0 73.5 15t38.5 61l64 166l-459 975h258z" />
    <glyph glyph-name="uni0233.ss04" horiz-adv-x="1114" 
d="M252 1368h606v-188h-606v188zM580 348l262 676h254l-500 -1260q-38 -92 -93.5 -127.5t-160.5 -35.5h-276v206h221q52 0 73.5 15t38.5 61l64 166l-459 975h258z" />
    <glyph glyph-name="I_S_B_N" horiz-adv-x="4603" 
d="M3578 0h-246v928q0 249 139.5 387.5t415.5 138.5q277 0 415 -138t138 -388v-928h-246v895q0 340 -297 340h-20q-299 0 -299 -340v-895zM1229 0h-1055v1434h246v-1215h829q127 0 193.5 49t66.5 131q0 77 -47.5 120t-150.5 65l-234 49q-368 74 -368 399q0 172 136 287
t376 115h1388q190 0 309 -105t119 -270q0 -123 -66 -210t-173 -122q121 -22 195.5 -112.5t74.5 -229.5q0 -168 -125.5 -276.5t-312.5 -108.5h-652v834h594q103 0 161 50t58 140q0 91 -57.5 140.5t-161.5 49.5h-1349q-127 0 -198 -45.5t-71 -128.5q0 -78 47 -117t146 -59
l211 -41q88 -17 158.5 -49t125 -81t84 -119t29.5 -158q0 -186 -133.5 -301t-392.5 -115zM2224 621v-402h365q108 0 170.5 52t62.5 149t-62.5 149t-170.5 52h-365z" />
    <glyph glyph-name="ordfeminine.ss01" horiz-adv-x="800" 
d="M344 840q-115 0 -188.5 84t-73.5 219t75 218t189 83q60 0 104 -24.5t68 -57.5v72h180v-584h-184v78q-69 -88 -170 -88zM389 985q59 0 93 43.5t34 112.5t-34 113t-93 44q-55 0 -89 -43.5t-34 -111.5t34 -113t89 -45z" />
    <glyph glyph-name="a.sups" horiz-adv-x="690" 
d="M254 840q-84 0 -138.5 48t-54.5 128q0 152 211 178l152 16v19q0 40 -23.5 60t-62.5 20h-6q-74 0 -82 -58h-172q4 90 74.5 141.5t185.5 51.5q112 0 185 -56.5t73 -148.5v-260q0 -74 8 -129h-160q-6 24 -10 86q-51 -96 -180 -96zM303 975h6q48 0 82.5 28.5t34.5 79.5v29
l-125 -18q-27 -5 -45 -22.5t-18 -41.5q0 -26 18 -40.5t47 -14.5z" />
    <glyph glyph-name="a.sups.ss01" horiz-adv-x="780" 
d="M344 840q-115 0 -188.5 84t-73.5 219t75 218t189 83q60 0 104 -24.5t68 -57.5v72h180v-584h-184v78q-69 -88 -170 -88zM389 985q59 0 93 43.5t34 112.5t-34 113t-93 44q-55 0 -89 -43.5t-34 -111.5t34 -113t89 -45z" />
    <glyph glyph-name="b.sups" horiz-adv-x="780" 
d="M461 840q-108 0 -176 86v-76h-185v809h181v-301q24 35 69.5 60.5t108.5 25.5q113 0 185.5 -84t72.5 -219t-71 -218t-185 -83zM410 987q55 0 88.5 43t33.5 111q0 69 -33.5 112t-88.5 43q-59 0 -93 -42.5t-34 -112.5q0 -69 34 -111.5t93 -42.5z" />
    <glyph glyph-name="c.sups" horiz-adv-x="700" 
d="M365 840q-134 0 -218 80.5t-84 220.5q0 146 86 224.5t224 78.5q121 0 190.5 -61.5t77.5 -157.5h-182q-5 33 -28 52t-62 19h-7q-58 0 -87 -44t-29 -111q0 -66 27.5 -110t84.5 -44h7q79 0 92 68h182q-9 -95 -80 -155t-194 -60z" />
    <glyph glyph-name="d.sups" horiz-adv-x="780" 
d="M319 840q-114 0 -185 83t-71 218q0 136 73 219.5t188 83.5q62 0 108 -26t68 -60v301h180v-809h-182v76q-68 -86 -179 -86zM373 987q58 0 92.5 43t34.5 111q0 70 -34.5 112.5t-92.5 42.5q-56 0 -89.5 -42.5t-33.5 -112.5q0 -68 33.5 -111t89.5 -43z" />
    <glyph glyph-name="e.sups" horiz-adv-x="708" 
d="M362 840q-131 0 -216 83t-85 212q0 137 81 223t214 86q130 0 209.5 -84.5t79.5 -214.5q0 -31 -2 -43h-410q5 -56 38 -89.5t87 -33.5h11q75 0 94 55h174q-10 -88 -86.5 -141t-188.5 -53zM236 1202h231q-3 47 -32 75t-75 28h-8q-48 0 -80 -28t-36 -75z" />
    <glyph glyph-name="f.sups" horiz-adv-x="505" 
d="M332 850h-182v434h-115v150h115v57q0 168 165 168h195v-141h-129q-29 0 -39 -14t-10 -44v-26h141v-150h-141v-434z" />
    <glyph glyph-name="g.sups" horiz-adv-x="765" 
d="M350 592q-119 0 -194 52t-84 149h184q16 -60 98 -60h11q124 0 124 125v84q-20 -38 -62 -65t-103 -27q-118 0 -189.5 82.5t-71.5 214.5q0 131 68.5 214t183.5 83q64 0 106.5 -27.5t59.5 -66.5v84h185v-580q0 -115 -80 -188.5t-236 -73.5zM365 995q56 0 87 43.5t31 108.5
q0 66 -30 108.5t-86 42.5q-54 0 -86.5 -40.5t-32.5 -110.5t32 -111t85 -41z" />
    <glyph glyph-name="h.sups" horiz-adv-x="768" 
d="M285 850h-185v809h185v-322q25 50 74 78.5t110 28.5q103 0 154 -64t51 -168v-362h-182v348q0 48 -23.5 74t-62.5 26h-11q-47 0 -78.5 -33.5t-31.5 -86.5v-328z" />
    <glyph glyph-name="i.sups" horiz-adv-x="385" 
d="M291 1507h-197v152h197v-152zM285 850h-185v584h185v-584z" />
    <glyph glyph-name="j.sups" horiz-adv-x="387" 
d="M291 1507h-195v152h195v-152zM119 602h-195v156h105q45 0 59 14.5t14 58.5v603h183v-666q0 -79 -42 -122.5t-124 -43.5z" />
    <glyph glyph-name="k.sups" horiz-adv-x="741" 
d="M709 850h-213l-146 223l-67 -72v-151h-183v809h183v-426l184 201h227l-221 -234z" />
    <glyph glyph-name="l.sups" horiz-adv-x="385" 
d="M285 850h-185v809h185v-809z" />
    <glyph glyph-name="m.sups" horiz-adv-x="1150" 
d="M285 850h-185v584h185v-88q57 98 178 98q130 0 184 -105q66 105 203 105q100 0 153.5 -60.5t53.5 -162.5v-371h-185v342q0 104 -86 104h-6q-49 0 -79.5 -33.5t-30.5 -84.5v-328h-183v342q0 51 -22.5 77.5t-63.5 26.5h-8q-49 0 -78.5 -33.5t-29.5 -86.5v-326z" />
    <glyph glyph-name="n.sups" horiz-adv-x="768" 
d="M285 850h-185v584h185v-97q25 50 74 78.5t110 28.5q103 0 154 -64t51 -168v-362h-182v348q0 48 -23.5 74t-62.5 26h-11q-47 0 -78.5 -33.5t-31.5 -86.5v-328z" />
    <glyph glyph-name="o.sups" horiz-adv-x="731" 
d="M365 840q-138 0 -221 84t-83 217q0 134 83 218.5t221 84.5q139 0 221 -84.5t82 -218.5t-82 -217.5t-221 -83.5zM360 987h11q53 0 82.5 41.5t29.5 112.5t-30 113t-82 42h-11q-53 0 -82.5 -41.5t-29.5 -113.5q0 -71 29.5 -112.5t82.5 -41.5z" />
    <glyph glyph-name="p.sups" horiz-adv-x="780" 
d="M281 625h-181v809h185v-76q68 86 176 86q114 0 185 -83t71 -218t-72.5 -219t-185.5 -84q-63 0 -108.5 25.5t-69.5 60.5v-301zM410 987q55 0 88.5 43.5t33.5 112.5q0 68 -33.5 110.5t-88.5 42.5q-59 0 -93 -42t-34 -111q0 -70 34 -113t93 -43z" />
    <glyph glyph-name="q.sups" horiz-adv-x="780" 
d="M680 625h-180v301q-22 -34 -68 -60t-108 -26q-115 0 -188 83.5t-73 219.5q0 135 71 218t185 83q111 0 179 -86v76h182v-809zM373 987q58 0 92.5 43t34.5 113q0 68 -34.5 110.5t-92.5 42.5q-56 0 -89.5 -42.5t-33.5 -110.5q0 -70 33.5 -113t89.5 -43z" />
    <glyph glyph-name="r.sups" horiz-adv-x="514" 
d="M285 850h-185v584h189v-113q34 119 168 119h22v-160h-61q-133 0 -133 -162v-268z" />
    <glyph glyph-name="s.sups" horiz-adv-x="671" 
d="M334 840q-266 0 -275 204h181q0 -35 25 -55t67 -20h10q34 0 57 12.5t23 38.5q0 39 -57 49l-121 23q-74 13 -120 53.5t-46 111.5q0 91 74 139t182 48q253 0 272 -201h-178q-1 35 -23 53.5t-59 18.5h-12q-31 0 -53.5 -12t-22.5 -35q0 -40 57 -47l119 -25
q81 -14 123.5 -53.5t42.5 -112.5q0 -63 -39 -107.5t-97.5 -63.5t-129.5 -19z" />
    <glyph glyph-name="t.sups" horiz-adv-x="544" 
d="M483 850h-176q-82 0 -124 43.5t-42 122.5v268h-112v150h112v184h183v-184h145v-150h-145v-207q0 -44 14 -58.5t59 -14.5h86v-154z" />
    <glyph glyph-name="u.sups" horiz-adv-x="765" 
d="M301 840q-104 0 -155.5 63.5t-51.5 167.5v363h185v-349q0 -49 22 -74.5t61 -25.5h11q45 0 77.5 34t32.5 87v328h183v-584h-183v96q-26 -50 -74 -78t-108 -28z" />
    <glyph glyph-name="v.sups" horiz-adv-x="708" 
d="M358 1032l150 402h180l-221 -584h-225l-222 584h189z" />
    <glyph glyph-name="w.sups" horiz-adv-x="999" 
d="M696 1092l103 342h168l-199 -584h-152l-112 362l-107 -362h-164l-202 584h182l102 -344l107 344h174z" />
    <glyph glyph-name="x.sups" horiz-adv-x="704" 
d="M233 850h-192l213 293l-211 291h197l114 -158l115 158h195l-213 -289l213 -295h-197l-117 160z" />
    <glyph glyph-name="y.sups" horiz-adv-x="710" 
d="M291 614h-217v152h133q38 0 53.5 16.5t15.5 53.5v49l-272 549h201l155 -338l158 338h191l-260 -521v-141q0 -76 -40 -117t-118 -41z" />
    <glyph glyph-name="y.sups.ss04" horiz-adv-x="706" 
d="M250 616h-203v152h115q35 0 52 18.5t30 53.5l12 34l-250 560h195l155 -355l154 355h190l-321 -711q-26 -57 -53 -82t-76 -25z" />
    <glyph glyph-name="z.sups" horiz-adv-x="681" 
d="M614 850h-540v119l282 313h-276v152h514v-129l-281 -304h301v-151z" />
    <glyph glyph-name="zero.zero" horiz-adv-x="1368" 
d="M684 1454q271 0 423.5 -196t152.5 -541q0 -347 -150.5 -542t-425.5 -195t-425 195t-150 542q0 345 152 541t423 196zM694 1245h-20q-150 0 -237 -134.5t-87 -393.5q0 -101 17 -201l557 606q-86 123 -230 123zM674 188h20q149 0 236.5 135t87.5 394q0 103 -17 203
l-557 -609q86 -123 230 -123z" />
    <glyph glyph-name="zero.osf" horiz-adv-x="1243" 
d="M623 -20q-225 0 -374 150t-149 382t149 382t374 150t373.5 -150t148.5 -382t-148.5 -382t-373.5 -150zM616 172h15q125 0 201.5 95.5t76.5 244.5t-76.5 244.5t-201.5 95.5h-19q-123 0 -199.5 -95.5t-76.5 -244.5t77.5 -244.5t202.5 -95.5z" />
    <glyph glyph-name="one.osf" horiz-adv-x="811" 
d="M84 659l377 365h182v-1024h-225v709l-334 -316v266z" />
    <glyph glyph-name="two.osf" horiz-adv-x="1001" 
d="M680 414l-291 -217h485v-197h-759v240l444 346q49 38 74.5 71.5t25.5 73.5q0 54 -40.5 87.5t-102.5 33.5h-14q-66 0 -109 -45t-43 -121h-235q0 157 113 257.5t284 100.5t276 -83.5t107 -215.5q0 -97 -49.5 -171t-165.5 -160z" />
    <glyph glyph-name="three.osf" horiz-adv-x="1196" 
d="M586 -430q-221 0 -359 109.5t-147 297.5h235q14 -100 81.5 -157.5t178.5 -57.5h21q117 0 187.5 67t70.5 163q0 104 -72 162.5t-190 58.5h-109v193h103q116 0 187 62t71 161q0 98 -69.5 160.5t-174.5 62.5h-20q-94 0 -161.5 -60.5t-76.5 -158.5h-236q3 176 142 293.5
t342 117.5q216 0 352.5 -113t136.5 -284q0 -118 -67 -208t-178 -126q116 -33 186 -123.5t70 -214.5t-68 -217.5t-181.5 -140.5t-254.5 -47z" />
    <glyph glyph-name="four.osf" horiz-adv-x="1286" 
d="M1008 -410h-230v410h-704v233l682 791h252v-827h215v-197h-215v-410zM778 729l-467 -532h467v532z" />
    <glyph glyph-name="five.osf" horiz-adv-x="1183" 
d="M645 487q198 0 321.5 -124t123.5 -316q0 -212 -142 -344.5t-368 -132.5q-214 0 -358.5 111.5t-164.5 300.5h236q19 -103 94 -161.5t184 -58.5h17q116 0 191 76.5t75 198.5q0 116 -72.5 187t-183.5 71h-16q-63 0 -130 -34.5t-116 -98.5h-227l174 862h792v-197h-610
l-94 -446q49 49 124 77.5t150 28.5z" />
    <glyph glyph-name="six.osf" horiz-adv-x="1282" 
d="M698 942q127 0 231.5 -56.5t168 -165.5t63.5 -249q0 -210 -141.5 -350.5t-372.5 -140.5q-254 0 -397.5 181t-143.5 509q0 172 49.5 319.5t134 249t199.5 158.5t244 57q184 0 307.5 -101.5t151.5 -279.5h-236q-19 85 -74.5 137t-150.5 52h-18q-149 0 -259.5 -136
t-131.5 -391q51 96 152 151.5t224 55.5zM641 172h18q113 0 190 82t77 207t-77 207t-190 82h-18q-117 0 -198 -82t-81 -207q0 -123 80 -206t199 -83z" />
    <glyph glyph-name="seven.osf" horiz-adv-x="1110" 
d="M41 827v197h1016v-213q-125 -79 -220 -180t-166 -237.5t-108 -314.5t-37 -394v-95h-243v103q0 218 42 403t117.5 322.5t168 237t206.5 171.5h-776z" />
    <glyph glyph-name="eight.osf" horiz-adv-x="1193" 
d="M819 690q108 -42 173 -126t65 -199q0 -165 -125 -275t-336 -110t-335 110t-124 275q0 115 65 199t171 126q-115 43 -189.5 141.5t-74.5 227.5q0 166 132 280.5t355 114.5q224 0 356.5 -114.5t132.5 -280.5q0 -127 -75 -225.5t-191 -143.5zM606 1262h-20q-104 0 -173 -66
t-69 -168q0 -100 69 -164.5t173 -64.5h20q105 0 174.5 64.5t69.5 164.5q0 102 -69.5 168t-174.5 66zM586 172h20q93 0 154 61t61 158q0 95 -61 155t-154 60h-20q-92 0 -152.5 -60.5t-60.5 -154.5q0 -97 60.5 -158t152.5 -61z" />
    <glyph glyph-name="nine.osf" horiz-adv-x="1253" 
d="M616 1044q253 0 397 -181.5t144 -508.5q0 -172 -49.5 -319.5t-134.5 -249t-200 -158.5t-243 -57q-184 0 -308 102t-150 279h235q16 -85 73 -137t152 -52h17q150 0 261 135.5t132 391.5q-51 -96 -152 -151.5t-225 -55.5q-127 0 -231.5 56.5t-168 165.5t-63.5 249
q0 210 141.5 350.5t372.5 140.5zM604 274h19q117 0 196.5 82t79.5 207q0 123 -79.5 206t-196.5 83h-19q-114 0 -190 -82t-76 -207t76 -207t190 -82z" />
    <glyph glyph-name="zero.osf.zero" horiz-adv-x="1243" 
d="M623 1044q225 0 373.5 -150t148.5 -382t-148.5 -382t-373.5 -150t-374 150t-149 382t149 382t374 150zM631 852h-19q-123 0 -199.5 -95.5t-76.5 -244.5q0 -86 29 -158l419 449q-68 49 -153 49zM616 172h15q125 0 201.5 95.5t76.5 244.5q0 82 -24 150l-416 -445
q64 -45 147 -45z" />
    <glyph glyph-name="zero.tf" 
d="M614 -20q-259 0 -403.5 192t-144.5 545t144.5 545t403.5 192q260 0 404.5 -192t144.5 -545t-144.5 -545t-404.5 -192zM606 188h17q131 0 214 133.5t83 395.5t-83 395t-214 133h-17q-131 0 -214 -133t-83 -395t83 -395.5t214 -133.5z" />
    <glyph glyph-name="one.tf" 
d="M756 1434v-1221h411v-213h-1069v213h424v877l-321 -310v299l366 355h189z" />
    <glyph glyph-name="two.tf" 
d="M788 561l-376 -348h698v-213h-993v236l477 450q11 10 32 30q64 60 93.5 89.5t65.5 74.5t49.5 84.5t13.5 84.5q0 87 -60 141.5t-153 54.5h-21q-104 0 -171 -69.5t-68 -182.5h-244q1 140 65.5 245.5t175 160.5t251.5 55q205 0 336 -108.5t131 -286.5q0 -74 -20.5 -138.5
t-65.5 -127t-91.5 -112t-124.5 -120.5z" />
    <glyph glyph-name="three.tf" 
d="M602 -20q-220 0 -357.5 109.5t-146.5 297.5h242q14 -92 80 -145.5t172 -53.5h20q115 0 182.5 61.5t67.5 151.5q0 98 -70.5 154.5t-185.5 56.5h-108v209h102q115 0 184.5 60.5t69.5 156.5q0 91 -67 149t-169 58h-20q-91 0 -158.5 -56.5t-74.5 -146.5h-240
q3 118 67.5 212.5t174.5 147t245 52.5q210 0 347 -114t137 -277q0 -126 -69 -216.5t-181 -123.5q114 -31 187 -121t73 -217q0 -185 -141 -295t-363 -110z" />
    <glyph glyph-name="four.tf" 
d="M971 0h-234v305h-686v240l690 889h230v-920h186v-209h-186v-305zM737 1098l-454 -584h454v584z" />
    <glyph glyph-name="five.tf" 
d="M600 -20q-214 0 -357 111t-163 300h242q17 -95 90.5 -149t179.5 -54h20q112 0 184 71t72 187q0 110 -71.5 176t-180.5 66h-20q-64 0 -130 -29.5t-110 -87.5h-227l176 863h791v-213h-609l-90 -424q49 47 121 73.5t146 26.5q198 0 322 -124t124 -316q0 -212 -141.5 -344.5
t-368.5 -132.5z" />
    <glyph glyph-name="six.tf" 
d="M676 942q92 0 174 -34t142.5 -94t96 -148t35.5 -191q0 -214 -139 -354.5t-364 -140.5q-246 0 -389.5 186t-143.5 508q0 132 30.5 252t87.5 215.5t133.5 166t172.5 108.5t201 38q176 0 295 -102t147 -279h-242q-16 77 -67.5 124.5t-134.5 47.5h-17q-147 0 -257.5 -134
t-131.5 -380q51 94 153 152.5t218 58.5zM614 188h19q110 0 180 77t70 196t-69 195.5t-177 76.5h-16q-115 0 -192 -78t-77 -194q0 -113 73 -193t189 -80z" />
    <glyph glyph-name="seven.tf" 
d="M68 1221v213h1081v-213q-126 -88 -219.5 -189t-168 -236t-113 -311t-38.5 -391v-94h-250v102q0 177 30 333t79.5 272.5t120 217t142.5 169.5t157 127h-821z" />
    <glyph glyph-name="eight.tf" 
d="M614 -20q-211 0 -335.5 110t-124.5 275q0 122 66.5 207t174.5 122q-114 36 -192 134t-78 231q0 166 132.5 280.5t356.5 114.5t357 -114.5t133 -280.5q0 -133 -78 -231t-192 -134q108 -37 174.5 -122t66.5 -207q0 -165 -125 -275t-336 -110zM604 807h21q101 0 169 62.5
t68 158.5q0 94 -68 155.5t-169 61.5h-21q-101 0 -169 -61.5t-68 -155.5q0 -96 68 -158.5t169 -62.5zM604 188h21q92 0 150.5 56t58.5 147t-59 149t-150 58h-21q-91 0 -150 -58t-59 -149t58.5 -147t150.5 -56z" />
    <glyph glyph-name="nine.tf" 
d="M608 1454q246 0 389.5 -186t143.5 -508q0 -132 -30.5 -252t-87.5 -215.5t-133.5 -166t-172.5 -108.5t-201 -38q-176 0 -295 101.5t-147 278.5h241q16 -77 68 -124.5t135 -47.5h17q147 0 257.5 134t131.5 380q-51 -94 -153 -152t-218 -58q-189 0 -319 130t-130 336
q0 214 139.5 355t364.5 141zM592 700h16q115 0 192 78.5t77 194.5q0 113 -73.5 192.5t-189.5 79.5h-18q-110 0 -180 -76.5t-70 -195.5t69 -196t177 -77z" />
    <glyph glyph-name="zero.tf.zero" 
d="M614 1454q260 0 404.5 -192t144.5 -545t-144.5 -545t-404.5 -192q-259 0 -403.5 192t-144.5 545t144.5 545t403.5 192zM623 1245h-17q-131 0 -214 -133t-83 -395q0 -90 13 -176l518 565q-78 139 -217 139zM606 188h17q131 0 214 133.5t83 395.5q0 91 -13 174l-518 -565
q81 -138 217 -138z" />
    <glyph glyph-name="zero.subs" horiz-adv-x="849" 
d="M424 -246q-114 0 -194.5 57.5t-118 149t-37.5 207.5q0 180 90.5 298t259.5 118q115 0 196 -57.5t118.5 -149.5t37.5 -209q0 -179 -91 -296.5t-261 -117.5zM420 -82h8q75 0 115.5 69.5t40.5 180.5q0 112 -40.5 182t-115.5 70h-8q-74 0 -115 -70.5t-41 -181.5
q0 -110 41 -180t115 -70z" />
    <glyph glyph-name="one.subs" horiz-adv-x="587" 
d="M471 -236h-186v562l-230 -191v221l262 217h154v-809z" />
    <glyph glyph-name="two.subs" horiz-adv-x="751" 
d="M670 -236h-592v170l291 259q3 3 17.5 16t19 17.5t17 16.5t17.5 18.5t13 18t11.5 20t6 19.5t2.5 21q0 36 -27 59t-67 23h-10q-40 0 -69 -28t-32 -72h-192q7 120 93 191t214 71q123 0 203 -69.5t80 -168.5q0 -50 -23.5 -96.5t-50 -74.5t-74.5 -71l-201 -176h353v-164z" />
    <glyph glyph-name="three.subs" horiz-adv-x="755" 
d="M367 -246q-127 0 -214 64.5t-87 177.5h192q0 -37 30.5 -60.5t73.5 -23.5h11q47 0 79.5 25.5t32.5 68.5q0 42 -29 65t-75 23h-78v158h80q42 0 69 23.5t27 62.5q0 38 -28 63t-72 25h-10q-40 0 -68 -22t-31 -56h-190q0 111 85 173.5t212 62.5q122 0 207.5 -61t85.5 -169
q0 -61 -31 -108t-88 -72q57 -26 91 -75t34 -115q0 -109 -90.5 -169.5t-218.5 -60.5z" />
    <glyph glyph-name="four.subs" horiz-adv-x="794" 
d="M623 -236h-177v150h-395v184l363 475h209v-505h110v-154h-110v-150zM446 367l-225 -299h225v299z" />
    <glyph glyph-name="five.subs" horiz-adv-x="755" 
d="M360 -246q-125 0 -211 66.5t-98 179.5h201q6 -39 37.5 -62.5t75.5 -23.5h8q49 0 81.5 32.5t32.5 82.5q0 47 -30.5 75.5t-77.5 28.5h-8q-63 0 -99 -41h-188l92 481h494v-159h-355l-34 -176q59 53 153 53q99 0 171.5 -70t72.5 -184q0 -128 -89.5 -205.5t-228.5 -77.5z" />
    <glyph glyph-name="six.subs" horiz-adv-x="796" 
d="M401 -246q-150 0 -238.5 102.5t-88.5 278.5q0 206 102 327.5t270 121.5q127 0 201 -68.5t76 -169.5h-186q-6 35 -32 56.5t-65 21.5h-12q-69 0 -119 -62.5t-59 -158.5q30 44 82 69t117 25q112 0 187 -72.5t75 -187.5q0 -121 -85 -202t-225 -81zM395 -86h8q52 0 85.5 32.5
t33.5 82.5q0 49 -32.5 80.5t-83.5 31.5h-9q-48 0 -83 -32t-35 -80q0 -51 33 -83t83 -32z" />
    <glyph glyph-name="seven.subs" horiz-adv-x="675" 
d="M377 -236h-199v48q0 355 256 600h-389v161h592v-149q-117 -111 -188.5 -264t-71.5 -342v-54z" />
    <glyph glyph-name="eight.subs" horiz-adv-x="770" 
d="M385 -246q-126 0 -210.5 60t-84.5 159q0 66 39 115.5t104 73.5q-157 58 -157 198q0 101 88.5 162.5t220.5 61.5q133 0 221 -61.5t88 -162.5q0 -138 -155 -198q65 -24 103 -73.5t38 -115.5q0 -99 -84 -159t-211 -60zM381 248h10q47 0 81 23.5t34 64.5q0 42 -33 65t-82 23
h-10q-49 0 -83 -23t-34 -65q0 -41 35 -64.5t82 -23.5zM381 -86h10q42 0 71.5 23t29.5 63q0 37 -30 62.5t-71 25.5h-10q-42 0 -72 -25t-30 -63q0 -40 29.5 -63t72.5 -23z" />
    <glyph glyph-name="nine.subs" horiz-adv-x="794" 
d="M348 -246q-127 0 -200.5 68.5t-75.5 169.5h186q8 -35 33 -56.5t63 -21.5h13q70 0 119.5 62.5t58.5 158.5q-28 -43 -81 -68.5t-118 -25.5q-111 0 -186.5 72.5t-75.5 187.5q0 121 85.5 202t223.5 81q150 0 239 -102.5t89 -278.5q0 -206 -102.5 -327.5t-270.5 -121.5z
M391 197h6q49 0 84 32t35 80q0 50 -33.5 82.5t-83.5 32.5h-8q-51 0 -85 -33t-34 -82t33 -80.5t86 -31.5z" />
    <glyph glyph-name="zero.subs.zero" horiz-adv-x="849" 
d="M424 584q115 0 196 -57.5t118.5 -149.5t37.5 -209q0 -179 -91 -296.5t-261 -117.5q-114 0 -194.5 57.5t-118 149t-37.5 207.5q0 180 90.5 298t259.5 118zM428 420h-8q-74 0 -115 -70.5t-41 -181.5q0 -40 6 -74l258 279q-38 47 -100 47zM420 -82h8q75 0 115.5 69.5
t40.5 180.5q0 42 -6 76l-259 -277q40 -49 101 -49z" />
    <glyph glyph-name="zero.dnom" horiz-adv-x="849" 
d="M424 -10q-114 0 -194.5 57t-118 148.5t-37.5 207.5q0 180 90.5 298t259.5 118q115 0 196 -57.5t118.5 -149.5t37.5 -209q0 -116 -37.5 -207.5t-118.5 -148.5t-196 -57zM420 154h8q75 0 115.5 69.5t40.5 179.5q0 112 -40.5 182t-115.5 70h-8q-74 0 -115 -70.5t-41 -181.5
q0 -110 41 -179.5t115 -69.5z" />
    <glyph glyph-name="one.dnom" horiz-adv-x="587" 
d="M471 0h-186v561l-230 -190v221l262 217h154v-809z" />
    <glyph glyph-name="two.dnom" horiz-adv-x="751" 
d="M670 0h-592v170l291 258q3 3 17.5 16t19 17.5t17 16.5t17.5 18.5t13 18t11.5 20t6 19.5t2.5 21q0 36 -27 59t-67 23h-10q-40 0 -69 -28t-32 -72h-192q7 120 93 191t214 71q124 0 203.5 -69t79.5 -168q0 -50 -23.5 -96.5t-50 -74.5t-74.5 -71l-201 -176h353v-164z" />
    <glyph glyph-name="three.dnom" horiz-adv-x="755" 
d="M367 -10q-128 0 -214.5 64t-86.5 177h192q0 -37 30.5 -60.5t73.5 -23.5h11q47 0 79.5 26t32.5 69q0 42 -29 65t-75 23h-78v157h80q42 0 69 23.5t27 62.5t-28 64t-72 25h-10q-40 0 -68 -22t-31 -56h-190q0 111 84.5 173t212.5 62q123 0 208 -61t85 -168q0 -61 -31 -108
t-88 -72q57 -26 91 -75.5t34 -115.5q0 -109 -90.5 -169t-218.5 -60z" />
    <glyph glyph-name="four.dnom" horiz-adv-x="794" 
d="M623 0h-177v150h-395v184l363 475h209v-506h110v-153h-110v-150zM446 602l-225 -299h225v299z" />
    <glyph glyph-name="five.dnom" horiz-adv-x="755" 
d="M362 -10q-125 0 -211 66.5t-98 179.5h201q6 -39 37.5 -62.5t75.5 -23.5h8q49 0 81.5 32t32.5 82q0 47 -31 76t-77 29h-8q-63 0 -99 -41h-188l92 481h494v-160h-355l-34 -176q59 53 153 53q99 0 171.5 -70t72.5 -184q0 -128 -89.5 -205t-228.5 -77z" />
    <glyph glyph-name="six.dnom" horiz-adv-x="796" 
d="M401 -10q-150 0 -238.5 102.5t-88.5 278.5q0 206 102 327t270 121q127 0 201 -68t76 -169h-186q-6 34 -32 55.5t-65 21.5h-12q-69 0 -119 -62.5t-59 -158.5q30 44 82 69t117 25q112 0 187 -72.5t75 -187.5q0 -121 -85 -201.5t-225 -80.5zM395 150h8q52 0 85.5 32t33.5 82
t-32.5 81.5t-83.5 31.5h-9q-48 0 -83 -32t-35 -81q0 -50 33 -82t83 -32z" />
    <glyph glyph-name="seven.dnom" horiz-adv-x="675" 
d="M377 0h-199v47q0 355 256 600h-391v162h594v-150q-117 -111 -188.5 -264t-71.5 -342v-53z" />
    <glyph glyph-name="eight.dnom" horiz-adv-x="770" 
d="M385 -10q-126 0 -210.5 60t-84.5 159q0 66 39 115t104 73q-157 58 -157 199q0 101 88.5 162t220.5 61q133 0 221 -61t88 -162q0 -139 -155 -199q65 -24 103 -73t38 -115q0 -99 -84 -159t-211 -60zM381 483h10q47 0 81 23.5t34 64.5q0 42 -33 65t-82 23h-10q-49 0 -83 -23
t-34 -65q0 -41 35 -64.5t82 -23.5zM381 150h10q42 0 71.5 23t29.5 63q0 37 -30 62.5t-71 25.5h-10q-42 0 -72 -25t-30 -63q0 -40 29.5 -63t72.5 -23z" />
    <glyph glyph-name="nine.dnom" horiz-adv-x="794" 
d="M348 -10q-128 0 -201 67.5t-75 169.5h184q8 -35 33.5 -56t64.5 -21h13q69 0 118.5 63t57.5 158q-28 -44 -80 -69.5t-117 -25.5q-112 0 -187 73t-75 188q0 121 84.5 201.5t224.5 80.5q150 0 239 -102.5t89 -278.5q0 -206 -102.5 -327t-270.5 -121zM389 432h8q47 0 83 32.5
t36 80.5q0 50 -33.5 82t-83.5 32h-8q-53 0 -87 -32.5t-34 -81.5t34 -81t85 -32z" />
    <glyph glyph-name="zero.dnom.zero" horiz-adv-x="849" 
d="M424 819q115 0 196 -57.5t118.5 -149.5t37.5 -209q0 -116 -37.5 -207.5t-118.5 -148.5t-196 -57q-114 0 -194.5 57t-118 148.5t-37.5 207.5q0 180 90.5 298t259.5 118zM428 655h-8q-74 0 -115 -70.5t-41 -181.5q0 -39 6 -73l258 278q-38 47 -100 47zM420 154h8
q75 0 115.5 69.5t40.5 179.5q0 41 -6 76l-259 -276q40 -49 101 -49z" />
    <glyph glyph-name="zero.numr" horiz-adv-x="849" 
d="M424 614q-114 0 -194.5 57.5t-118 149t-37.5 207.5q0 180 90.5 298t259.5 118q115 0 196 -57.5t118.5 -149.5t37.5 -209q0 -179 -91 -296.5t-261 -117.5zM420 778h8q75 0 115.5 69.5t40.5 180.5q0 112 -40.5 182t-115.5 70h-8q-74 0 -115 -70.5t-41 -181.5
q0 -110 41 -180t115 -70z" />
    <glyph glyph-name="one.numr" horiz-adv-x="587" 
d="M471 625h-186v561l-230 -191v222l262 217h154v-809z" />
    <glyph glyph-name="two.numr" horiz-adv-x="751" 
d="M670 625h-592v170l291 258q3 3 17.5 16t19 17.5t17 16.5t17.5 18.5t13 18t11.5 20t6 19.5t2.5 21q0 36 -27 59t-67 23h-10q-40 0 -69 -28t-32 -72h-192q7 120 93 191t214 71q123 0 203 -69.5t80 -168.5q0 -38 -11 -71.5t-35.5 -65t-45 -52t-56.5 -52.5l-201 -177h353
v-163z" />
    <glyph glyph-name="three.numr" horiz-adv-x="755" 
d="M367 614q-127 0 -214 64.5t-87 177.5h192q0 -37 30.5 -60.5t73.5 -23.5h11q47 0 79.5 25.5t32.5 68.5q0 42 -29 65t-75 23h-78v158h80q42 0 69 23.5t27 62.5q0 38 -28 63t-72 25h-10q-40 0 -68 -22t-31 -56h-190q0 111 85 173.5t212 62.5q122 0 207.5 -61t85.5 -169
q0 -61 -31 -108t-88 -72q57 -26 91 -75t34 -115q0 -109 -90.5 -169.5t-218.5 -60.5z" />
    <glyph glyph-name="four.numr" horiz-adv-x="794" 
d="M621 625h-177v149h-393v184l363 476h207v-506h112v-154h-112v-149zM444 1227l-225 -299h225v299z" />
    <glyph glyph-name="five.numr" horiz-adv-x="755" 
d="M360 614q-125 0 -211 66.5t-98 179.5h201q6 -39 37.5 -62.5t75.5 -23.5h8q49 0 81.5 32.5t32.5 82.5q0 47 -30.5 75.5t-77.5 28.5h-8q-63 0 -99 -41h-188l92 482h494v-160h-355l-34 -176q59 53 153 53q99 0 171.5 -70t72.5 -184q0 -128 -89.5 -205.5t-228.5 -77.5z" />
    <glyph glyph-name="six.numr" horiz-adv-x="796" 
d="M401 614q-150 0 -238.5 102.5t-88.5 278.5q0 206 102 327.5t270 121.5q127 0 201 -68.5t76 -169.5h-186q-6 35 -32 56.5t-65 21.5h-12q-69 0 -119 -62.5t-59 -158.5q30 44 82 69t117 25q112 0 187 -72.5t75 -187.5q0 -121 -85 -202t-225 -81zM395 774h8q52 0 85.5 32.5
t33.5 82.5q0 49 -32.5 80.5t-83.5 31.5h-9q-48 0 -83 -32t-35 -80q0 -51 33 -83t83 -32z" />
    <glyph glyph-name="seven.numr" horiz-adv-x="675" 
d="M375 625h-199v47q0 355 256 600h-389v162h592v-150q-117 -111 -188.5 -264t-71.5 -342v-53z" />
    <glyph glyph-name="eight.numr" horiz-adv-x="770" 
d="M385 614q-126 0 -210.5 60.5t-84.5 159.5q0 66 39 115t104 73q-157 58 -157 199q0 101 88.5 162t220.5 61q133 0 221 -61t88 -162q0 -139 -155 -199q65 -24 103 -73t38 -115q0 -99 -84 -159.5t-211 -60.5zM381 1108h10q47 0 81 23.5t34 64.5q0 42 -33 65t-82 23h-10
q-49 0 -83 -23t-34 -65q0 -41 35 -64.5t82 -23.5zM381 774h10q42 0 71.5 23t29.5 63q0 37 -30 62.5t-71 25.5h-10q-42 0 -72 -25t-30 -63q0 -40 29.5 -63t72.5 -23z" />
    <glyph glyph-name="nine.numr" horiz-adv-x="794" 
d="M348 614q-127 0 -200.5 68.5t-75.5 169.5h186q8 -35 33 -56.5t63 -21.5h13q70 0 119.5 62.5t58.5 158.5q-28 -43 -81 -68.5t-118 -25.5q-111 0 -186.5 72.5t-75.5 187.5q0 121 85.5 202t223.5 81q150 0 239 -102.5t89 -278.5q0 -206 -102.5 -327.5t-270.5 -121.5z
M391 1057h6q49 0 84 32t35 80q0 50 -33.5 82.5t-83.5 32.5h-8q-51 0 -85 -33t-34 -82t33 -80.5t86 -31.5z" />
    <glyph glyph-name="zero.numr.zero" horiz-adv-x="849" 
d="M424 1444q115 0 196 -57.5t118.5 -149.5t37.5 -209q0 -179 -91 -296.5t-261 -117.5q-114 0 -194.5 57.5t-118 149t-37.5 207.5q0 180 90.5 298t259.5 118zM428 1280h-8q-74 0 -115 -70.5t-41 -181.5q0 -40 6 -74l258 279q-38 47 -100 47zM420 778h8q75 0 115.5 69.5
t40.5 180.5q0 42 -6 76l-259 -277q40 -49 101 -49z" />
    <glyph glyph-name="uni2070.zero" horiz-adv-x="849" 
d="M424 1669q115 0 196 -57.5t118.5 -149.5t37.5 -209q0 -116 -37.5 -207.5t-118.5 -148.5t-196 -57q-114 0 -194.5 57t-118 148.5t-37.5 207.5q0 180 90.5 298t259.5 118zM428 1505h-8q-74 0 -115 -70.5t-41 -181.5q0 -39 6 -73l258 278q-38 47 -100 47zM420 1004h8
q75 0 115.5 69.5t40.5 179.5q0 41 -6 76l-259 -276q40 -49 101 -49z" />
    <glyph glyph-name="exclamdown.case" horiz-adv-x="581" 
d="M164 1434h256v-254h-256v254zM227 1063h127l58 -584v-479h-242v479z" />
    <glyph glyph-name="questiondown.case" horiz-adv-x="991" 
d="M483 1436h256v-254h-256v254zM498 1036h227v-282q0 -90 -44.5 -133t-135.5 -43h-41q-91 0 -144 -46.5t-53 -136.5q0 -83 55.5 -131.5t149.5 -48.5h408v-213h-443q-182 0 -295.5 107.5t-113.5 285.5q0 164 105.5 271.5t262.5 107.5q34 0 48 13.5t14 46.5v202z" />
    <glyph glyph-name="question.ss06" horiz-adv-x="1046" 
d="M553 397h-234v234q0 63 23.5 97t79.5 56l108 45q44 18 66 28.5t54.5 31.5t48 42t28 54t12.5 74q0 88 -55.5 143t-157.5 55q-95 0 -154.5 -55t-70.5 -149h-238q5 122 71.5 215t170 139.5t225.5 46.5q193 0 320 -106t127 -281q0 -270 -287 -391l-69 -31q-43 -17 -55.5 -35
t-12.5 -59v-154zM563 0h-256v254h256v-254z" />
    <glyph glyph-name="questiondown.ss06" horiz-adv-x="1034" 
d="M477 1024h256v-254h-256v254zM487 627h234v-234q0 -63 -24.5 -96.5t-80.5 -56.5l-106 -45q-43 -18 -66 -29t-55 -31.5t-48 -41.5t-28 -54t-12 -74q0 -89 54.5 -143.5t158.5 -54.5q95 0 154 55t71 149h238q-5 -122 -71.5 -215t-170 -139.5t-225.5 -46.5q-193 0 -321 106
t-128 281q0 269 289 391l70 31q42 17 54.5 34.5t12.5 59.5v154z" />
    <glyph glyph-name="questiondown.ss06.case" horiz-adv-x="1044" 
d="M481 1434h256v-254h-256v254zM494 1036h231v-233q0 -63 -23.5 -97.5t-78.5 -56.5l-107 -45q-44 -18 -66.5 -28.5t-55.5 -31.5t-48.5 -41.5t-28 -53.5t-12.5 -74q0 -88 55.5 -143.5t159.5 -55.5q95 0 153.5 55.5t69.5 149.5h238q-5 -122 -71.5 -215t-170 -139.5
t-225.5 -46.5q-192 0 -319 106t-127 281q0 271 288 391l68 30q43 17 56.5 35.5t13.5 59.5v153z" />
    <glyph glyph-name="period.tf" 
d="M752 0h-275v274h275v-274z" />
    <glyph glyph-name="comma.tf" 
d="M487 -299h-79v145h73q63 0 94 34.5t31 94.5v25h-129v274h275v-309q0 -115 -73 -189.5t-192 -74.5z" />
    <glyph glyph-name="colon.tf" 
d="M752 750h-275v274h275v-274zM752 0h-275v274h275v-274z" />
    <glyph glyph-name="semicolon.tf" 
d="M760 750h-275v274h275v-274zM494 -299h-78v145h71q63 0 94 34.5t31 94.5v25h-127v274h275v-309q0 -115 -73.5 -189.5t-192.5 -74.5z" />
    <glyph glyph-name="numbersign.tf" 
d="M1165 1094v-211h-178l-67 -332h204v-211h-250l-69 -340h-213l70 340h-238l-72 -340h-213l72 340h-150v211h193l72 332h-224v211h267l71 340h213l-71 -340h237l70 340h213l-70 -340h133zM467 551h240l67 332h-235z" />
    <glyph glyph-name="parenleft.case" horiz-adv-x="757" 
d="M659 205v-225q-157 13 -284 112t-200 263t-73 360q0 197 73 362t200 264.5t284 112.5v-225q-142 -35 -228.5 -167.5t-86.5 -344.5t86.5 -344.5t228.5 -167.5z" />
    <glyph glyph-name="parenright.case" horiz-adv-x="757" 
d="M100 1229v225q157 -13 283.5 -112t199 -263t72.5 -360q0 -197 -72.5 -362t-199 -264.5t-283.5 -112.5v225q142 35 228 167.5t86 344.5t-86 344.5t-228 167.5z" />
    <glyph glyph-name="braceleft.case" horiz-adv-x="788" 
d="M686 0h-176q-137 0 -201.5 77.5t-64.5 239.5v109q0 77 -22 105t-83 28h-39v315h39q61 0 83 28.5t22 105.5v108q0 162 64.5 240t201.5 78h176v-215h-90q-75 0 -98 -28t-23 -114v-166q0 -172 -166 -172v-45q166 0 166 -172v-166q0 -86 23 -113.5t98 -27.5h90v-215z" />
    <glyph glyph-name="braceright.case" horiz-adv-x="788" 
d="M102 1436h179q137 0 201.5 -78t64.5 -240v-108q0 -78 20.5 -105.5t81.5 -27.5h41v-316h-41q-61 0 -81.5 -27.5t-20.5 -105.5v-109q0 -162 -64.5 -239.5t-201.5 -77.5h-179v215h91q76 0 99 27.5t23 113.5v166q0 95 43.5 133.5t120.5 38.5v45q-77 0 -120.5 38.5
t-43.5 133.5v166q0 86 -23.5 114t-98.5 28h-91v215z" />
    <glyph glyph-name="bracketleft.case" horiz-adv-x="720" 
d="M612 0h-432v1434h432v-215h-190v-1004h190v-215z" />
    <glyph glyph-name="bracketright.case" horiz-adv-x="720" 
d="M109 1434h432v-1434h-432v215h190v1004h-190v215z" />
    <glyph glyph-name="edgeleft.case" horiz-adv-x="813" 
d="M700 0h-215q-128 0 -214.5 76t-86.5 188q0 69 27 120t72 79q-88 23 -138.5 93.5t-50.5 162.5q0 93 50 159t139 89q-44 26 -71.5 80t-27.5 124q0 111 84 187t211 76h221v-215h-198q-37 0 -59.5 -21t-22.5 -61t23 -61t61 -21h86v-215h-133q-59 0 -93 -32t-34 -87
q0 -59 33.5 -93t93.5 -34h133v-215h-86q-38 0 -61 -21t-23 -61t23 -61t61 -21h196v-215z" />
    <glyph glyph-name="edgeright.case" horiz-adv-x="813" 
d="M111 1434h215q128 0 214.5 -76.5t86.5 -188.5q0 -136 -97 -198q86 -23 136.5 -93.5t50.5 -162.5q0 -93 -50 -159t-139 -89q44 -26 71.5 -80t27.5 -125q0 -111 -84 -186.5t-209 -75.5h-223v215h198q37 0 60.5 21t23.5 61t-24 61t-62 21h-86v215h135q59 0 93 32t34 87
q0 59 -33.5 93t-93.5 34h-135v215h86q38 0 62 21t24 61t-24 61t-62 21h-196v215z" />
    <glyph glyph-name="hyphen.case" horiz-adv-x="856" 
d="M717 618h-578v199h578v-199z" />
    <glyph glyph-name="uni00AD.case" horiz-adv-x="856" 
d="M717 618h-578v199h578v-199z" />
    <glyph glyph-name="endash.case" horiz-adv-x="1224" 
d="M1085 618h-946v199h946v-199z" />
    <glyph glyph-name="emdash.case" horiz-adv-x="1880" 
d="M1741 618h-1602v199h1602v-199z" />
    <glyph glyph-name="uni2015.case" horiz-adv-x="1880" 
d="M1741 618h-1602v199h1602v-199z" />
    <glyph glyph-name="guillemotleft.case" horiz-adv-x="1249" 
d="M387 1157h272l-297 -440l297 -441h-272l-297 441zM852 1157h272l-299 -440l299 -441h-272l-297 441z" />
    <glyph glyph-name="guillemotright.case" horiz-adv-x="1249" 
d="M125 1157h272l297 -440l-297 -441h-272l297 441zM590 1157h272l297 -440l-297 -441h-272l297 441z" />
    <glyph glyph-name="guilsinglleft.case" horiz-adv-x="784" 
d="M387 1157h272l-297 -440l297 -441h-272l-297 441z" />
    <glyph glyph-name="guilsinglright.case" horiz-adv-x="784" 
d="M125 1157h272l297 -440l-297 -441h-272l297 441z" />
    <glyph glyph-name="space.tf" 
 />
    <glyph glyph-name="cent.tf" 
d="M776 797l-102 -611q67 4 113.5 50t58.5 114h235q-15 -171 -132 -270.5t-298 -99.5h-12l-39 -226h-192l43 260q-145 56 -224.5 189t-79.5 309q0 227 127 375t351 157l39 226h192l-43 -250q115 -37 185.5 -127t82.5 -219h-235q-13 78 -70 123zM385 512q0 -85 26.5 -157
t77.5 -115l101 594q-99 -21 -152 -110.5t-53 -211.5z" />
    <glyph glyph-name="currency.tf" 
d="M1067 625q0 -126 -57 -228l168 -159l-150 -152l-166 158q-112 -70 -250 -70t-245 66l-164 -154l-150 152l162 153q-61 106 -61 234q0 122 55 221l-156 155l150 152l155 -147q110 69 254 69q143 0 256 -74l160 152l150 -152l-162 -161q51 -94 51 -215zM602 383h16
q94 0 152.5 69t58.5 173q0 105 -59 173t-152 68h-16q-93 0 -152 -68t-59 -173q0 -104 58.5 -173t152.5 -69z" />
    <glyph glyph-name="dollar.tf" 
d="M813 1196l-63 -381q199 -43 296 -142.5t97 -266.5q0 -191 -138.5 -308.5t-383.5 -117.5h-13l-37 -226h-209l44 252q-171 45 -264 166.5t-99 300.5h240q3 -87 43.5 -150.5t115.5 -97.5l66 398l-35 8q-174 37 -266 137.5t-92 255.5q0 117 60 213.5t179 156.5t277 60h16
l39 225h209l-43 -258q147 -49 228.5 -161.5t84.5 -268.5h-239q-9 140 -113 205zM537 860l12 -2l63 387q-118 -1 -188 -59t-70 -146q0 -75 44 -117t139 -63zM711 582l-66 -394q119 0 188.5 57t69.5 146q0 77 -43.5 122.5t-142.5 66.5z" />
    <glyph glyph-name="Euro.tf" 
d="M690 188h17q100 0 160.5 65t72.5 177h240q-11 -207 -140.5 -328.5t-341.5 -121.5q-165 0 -286 96t-183 272l-182 -41v199l139 31q-9 71 -12 153l-127 -28v198l137 31q34 265 171 414t350 149q205 0 333 -121.5t142 -328.5h-240q-12 112 -71 176.5t-156 64.5h-19
q-101 0 -169 -77.5t-97 -223.5l322 70v-199l-340 -74v-20q0 -71 6 -135l248 55v-199l-209 -45q70 -209 235 -209z" />
    <glyph glyph-name="florin.tf" 
d="M1030 1225h-110q-89 0 -125 -37.5t-50 -132.5l-16 -109h244v-205h-275l-116 -761q-33 -209 -123.5 -299.5t-276.5 -90.5h-129v209h111q92 0 131 38.5t53 131.5l117 772h-205v205h238l14 98q31 210 118.5 300t268.5 90h131v-209z" />
    <glyph glyph-name="uni20B4.tf" 
d="M1110 1024l121 10v-194l-1235 -109v193l870 77q8 24 8 56q0 84 -60.5 139t-172.5 55h-12q-233 0 -258 -204h-244q4 55 20.5 108t54.5 108.5t93 96.5t142.5 67.5t197.5 26.5q122 0 216.5 -34t149.5 -91.5t83 -125t28 -140.5q0 -27 -2 -39zM272 651l920 86v-194l-815 -76
q-12 -30 -12 -74q0 -90 68 -150.5t188 -60.5h16q233 0 264 224h246q-6 -63 -25.5 -121t-59.5 -114.5t-96.5 -98t-144.5 -67t-196 -25.5q-233 0 -366.5 112.5t-133.5 282.5q0 35 6 69l-98 -8v193z" />
    <glyph glyph-name="uni20BD.tf" 
d="M477 0h-246v289h-194v205h194v114h-198v217h198v609h533q209 0 334 -103.5t125 -310.5q0 -105 -35 -185t-97.5 -129t-145.5 -73.5t-183 -24.5h-285v-114h344v-205h-344v-289zM477 1214v-389h256q122 0 183 46t61 149q0 102 -61.5 148t-182.5 46h-256z" />
    <glyph glyph-name="sterling.tf" 
d="M465 209h682v-209h-1038v209h75q67 0 100 33.5t38 101.5l14 207l-227 -53v207l243 57l17 242q31 430 446 430h229v-209h-235q-100 0 -146 -54.5t-55 -177.5l-12 -172l242 58v-209l-258 -62l-19 -233q-5 -60 -26 -98t-70 -68z" />
    <glyph glyph-name="yen.tf" 
d="M987 1434h260l-340 -560l170 39v-202l-311 -70l-31 -49v-105l281 62v-203l-281 -61v-285h-241v229l-279 -61v203l279 61v150l-340 -76v201l239 53l-409 674h266l371 -615z" />
    <glyph glyph-name="uni20A9.tf" 
d="M1102 776h127v-184h-142l-49 -592h-280l-142 788l-165 -788h-267l-47 592h-137v184h123l-53 658h227l59 -1047l148 715h227l143 -711l56 1043h225z" />
    <glyph glyph-name="uni20BF.tf" 
d="M1188 385q0 -139 -89.5 -240.5t-232.5 -132.5v-258h-192v246h-185v-246h-192v246h-197v1434h197v245h192v-245h185v245h192v-262q134 -34 212.5 -129.5t78.5 -228.5q0 -123 -65 -210t-172 -122q120 -22 194 -112.5t74 -229.5zM694 1214h-348v-380h348q103 0 160 49.5
t57 140.5q0 92 -57 141t-160 49zM346 219h365q108 0 169.5 52t61.5 149t-61.5 149t-169.5 52h-365v-402z" />
    <glyph glyph-name="plus.case" horiz-adv-x="1175" 
d="M709 221h-242v391h-385v211h385v391h242v-391h385v-211h-385v-391z" />
    <glyph glyph-name="minus.case" horiz-adv-x="1290" 
d="M1151 612h-1012v211h1012v-211z" />
    <glyph glyph-name="multiply.case" horiz-adv-x="1138" 
d="M569 569l-305 -305l-149 150l305 303l-305 305l151 152l305 -306l303 306l150 -152l-303 -301l303 -305l-152 -152z" />
    <glyph glyph-name="divide.case" horiz-adv-x="1226" 
d="M741 936h-256v260h256v-260zM1118 612h-1012v211h1012v-211zM741 240h-256v260h256v-260z" />
    <glyph glyph-name="equal.case" horiz-adv-x="1288" 
d="M1151 809h-1012v209h1012v-209zM1151 418h-1012v209h1012v-209z" />
    <glyph glyph-name="notequal.case" horiz-adv-x="1312" 
d="M1161 1018v-209h-368l-58 -182h426v-209h-489l-62 -197h-225l61 197h-296v209h360l57 182h-417v209h481l61 196h226l-62 -196h305z" />
    <glyph glyph-name="greater.case" horiz-adv-x="1112" 
d="M156 928v246l870 -353v-211l-870 -352v238l559 217z" />
    <glyph glyph-name="less.case" horiz-adv-x="1112" 
d="M84 821l870 353v-238l-559 -217l559 -215v-246l-870 352v211z" />
    <glyph glyph-name="greaterequal.case" horiz-adv-x="1312" 
d="M160 1018v235l1011 -260v-276l-1011 -258v225l696 168zM1171 203h-1011v207h1011v-207z" />
    <glyph glyph-name="lessequal.case" horiz-adv-x="1312" 
d="M143 993l1012 260v-225l-696 -170l696 -166v-233l-1012 258v276zM1155 203h-1012v207h1012v-207z" />
    <glyph glyph-name="plusminus.case" horiz-adv-x="1316" 
d="M778 530h-241v232h-383v209h383v243h241v-243h387v-209h-387v-232zM1165 190h-1011v209h1011v-209z" />
    <glyph glyph-name="approxequal.case" horiz-adv-x="1269" 
d="M872 760q-60 0 -146 26t-161 52t-108 26q-41 0 -64.5 -23.5t-23.5 -60.5h-224v70q0 104 75 174t190 70q65 0 150.5 -26t157 -52.5t103.5 -26.5q43 0 65.5 22t22.5 58h226v-70q0 -104 -73 -171.5t-190 -67.5zM872 338q-60 0 -146 26t-161 52t-108 26q-41 0 -64.5 -23.5
t-23.5 -60.5h-224v70q0 104 75 174t190 70q65 0 150.5 -26t157 -52.5t103.5 -26.5q43 0 65.5 22t22.5 58h226v-69q0 -104 -73 -172t-190 -68z" />
    <glyph glyph-name="logicalnot.case" horiz-adv-x="1241" 
d="M1094 434h-242v281h-731v211h973v-492z" />
    <glyph glyph-name="multiply.case.tf" 
d="M614 567l-305 -305l-149 150l305 303l-305 305l151 151l305 -305l304 305l149 -151l-303 -301l303 -305l-151 -152z" />
    <glyph glyph-name="plus.tf" 
d="M733 221h-239v391h-363v211h363v391h239v-391h363v-211h-363v-391z" />
    <glyph glyph-name="minus.tf" 
d="M1096 614h-963v209h963v-209z" />
    <glyph glyph-name="multiply.tf" 
d="M614 567l-305 -305l-149 150l305 303l-305 305l151 151l305 -305l304 305l149 -151l-303 -301l303 -305l-151 -152z" />
    <glyph glyph-name="divide.tf" 
d="M743 938h-256v260h256v-260zM1120 614h-1011v211h1011v-211zM743 242h-256v260h256v-260z" />
    <glyph glyph-name="equal.tf" 
d="M1096 803h-963v209h963v-209zM1096 422h-963v209h963v-209z" />
    <glyph glyph-name="notequal.tf" 
d="M1096 1012v-209h-340l-54 -172h394v-209h-459l-62 -201h-227l62 201h-277v209h342l53 172h-395v209h459l63 202h228l-64 -202h277z" />
    <glyph glyph-name="greater.tf" 
d="M211 924v245l870 -352v-211l-870 -352v238l559 217z" />
    <glyph glyph-name="less.tf" 
d="M147 815l871 352v-237l-559 -217l559 -215v-246l-871 352v211z" />
    <glyph glyph-name="greaterequal.tf" 
d="M166 1036v232l911 -264v-265l-911 -266v225l633 168zM1077 211h-911v209h911v-209z" />
    <glyph glyph-name="lessequal.tf" 
d="M150 1001l911 265v-224l-631 -170l631 -167v-234l-911 266v264zM1061 211h-911v209h911v-209z" />
    <glyph glyph-name="plusminus.tf" 
d="M733 561h-237v232h-353v208h353v244h237v-244h350v-208h-350v-232zM1083 221h-940v209h940v-209z" />
    <glyph glyph-name="approxequal.tf" 
d="M827 766q-60 0 -133 25t-134.5 50t-94.5 25q-40 0 -61 -21.5t-21 -58.5h-223v70q0 103 76.5 171.5t181.5 68.5q64 0 136 -25t131 -49.5t91 -24.5q40 0 61 21.5t21 56.5h223v-67q0 -104 -74.5 -173t-179.5 -69zM827 344q-59 0 -132.5 25t-135 50t-94.5 25q-40 0 -61 -21.5
t-21 -57.5h-223v69q0 103 76.5 171.5t181.5 68.5q64 0 136 -25t131 -49.5t91 -24.5q40 0 61 21.5t21 56.5h223v-67q0 -104 -74.5 -173t-179.5 -69z" />
    <glyph glyph-name="logicalnot.tf" 
d="M1092 332h-242v280h-731v211h973v-491z" />
    <glyph glyph-name="percent.tf" 
d="M358 809q-123 0 -194.5 85.5t-71.5 231.5t71.5 232t194.5 86t195 -86t72 -232t-72 -231.5t-195 -85.5zM358 946q107 0 107 180q0 84 -26 132.5t-81 48.5q-106 0 -106 -181q0 -180 106 -180zM963 809l-697 -348v164l697 348v-164zM870 -10q-123 0 -194.5 85.5t-71.5 231.5
t71.5 232t194.5 86t195 -86t72 -232t-72 -231.5t-195 -85.5zM870 127q107 0 107 180t-107 180q-106 0 -106 -180t106 -180z" />
    <glyph glyph-name="perthousand.tf" 
d="M291 809q-123 0 -194.5 85.5t-71.5 231.5t71.5 232t194.5 86t194.5 -86t71.5 -232t-71.5 -231.5t-194.5 -85.5zM291 946q106 0 106 180q0 181 -106 181q-55 0 -81 -48.5t-26 -132.5q0 -180 107 -180zM784 811l-696 -348v158l696 348v-158zM590 -10q-123 0 -194.5 85.5
t-71.5 231.5t71.5 232t194.5 86q116 0 188 -78q69 78 187 78q123 0 194.5 -86t71.5 -232t-71.5 -231.5t-194.5 -85.5q-118 0 -187 78q-72 -78 -188 -78zM590 127q55 0 81.5 48.5t26.5 131.5t-26.5 131.5t-81.5 48.5q-54 0 -80.5 -48.5t-26.5 -131.5t26.5 -131.5t80.5 -48.5z
M965 127q53 0 79.5 48.5t26.5 131.5t-26.5 131.5t-79.5 48.5q-55 0 -82 -48.5t-27 -131.5t27 -131.5t82 -48.5z" />
    </font>
</defs>
</svg>
