<svg width="63" height="63" viewBox="0 0 63 63" fill="none" xmlns="http://www.w3.org/2000/svg">
<g clip-path="url(#clip0_235_475)">
<path d="M34.3113 0H28.6895V21H34.3113V0Z" fill="white"/>
<path d="M34.3113 42H28.6895V63H34.3113V42Z" fill="white"/>
<path d="M63 28.689H42V34.3109H63V28.689Z" fill="white"/>
<path d="M21 28.689H0V34.3109H21V28.689Z" fill="white"/>
<path d="M41.9887 34.3655L39.1777 39.2342L57.3643 49.7342L60.1752 44.8655L41.9887 34.3655Z" fill="white"/>
<path d="M5.6215 13.3532L2.81055 18.2219L20.9971 28.7219L23.808 23.8531L5.6215 13.3532Z" fill="white"/>
<path d="M39.2066 39.1517L34.3379 41.9626L44.8379 60.1492L49.7066 57.3382L39.2066 39.1517Z" fill="white"/>
<path d="M18.2085 2.78869L13.3398 5.59961L23.8398 23.7861L28.7085 20.9752L18.2085 2.78869Z" fill="white"/>
<path d="M21.0186 34.293L2.83203 44.793L5.64301 49.6617L23.8295 39.1617L21.0186 34.293Z" fill="white"/>
<path d="M57.4014 13.2761L39.2148 23.7761L42.0258 28.6449L60.2123 18.1449L57.4014 13.2761Z" fill="white"/>
<path d="M23.7988 39.2147L13.2988 57.4012L18.1675 60.2122L28.6675 42.0256L23.7988 39.2147Z" fill="white"/>
<path d="M44.8105 2.84881L34.3105 21.0353L39.1792 23.8463L49.6792 5.65974L44.8105 2.84881Z" fill="white"/>
<path d="M34.3113 0H28.6895V21H34.3113V0Z" fill="white"/>
<path d="M34.3113 42H28.6895V63H34.3113V42Z" fill="white"/>
<path d="M63 28.689H42V34.3109H63V28.689Z" fill="white"/>
<path d="M21 28.689H0V34.3109H21V28.689Z" fill="white"/>
<path d="M41.9887 34.3655L39.1777 39.2342L57.3643 49.7342L60.1752 44.8655L41.9887 34.3655Z" fill="white"/>
<path d="M5.6215 13.3532L2.81055 18.2219L20.9971 28.7219L23.808 23.8531L5.6215 13.3532Z" fill="white"/>
<path d="M39.2066 39.1517L34.3379 41.9626L44.8379 60.1492L49.7066 57.3382L39.2066 39.1517Z" fill="white"/>
<path d="M18.2085 2.78869L13.3398 5.59961L23.8398 23.7861L28.7085 20.9752L18.2085 2.78869Z" fill="white"/>
<path d="M21.0186 34.293L2.83203 44.793L5.64301 49.6617L23.8295 39.1617L21.0186 34.293Z" fill="white"/>
<path d="M57.4014 13.2761L39.2148 23.7761L42.0258 28.6449L60.2123 18.1449L57.4014 13.2761Z" fill="white"/>
<path d="M23.7988 39.2147L13.2988 57.4012L18.1675 60.2122L28.6675 42.0256L23.7988 39.2147Z" fill="white"/>
<path d="M44.8105 2.84881L34.3105 21.0353L39.1792 23.8463L49.6792 5.65974L44.8105 2.84881Z" fill="white"/>
</g>
<defs>
<clipPath id="clip0_235_475">
<rect width="63" height="63" fill="white"/>
</clipPath>
</defs>
</svg>
