<svg width="32" height="39" viewBox="0 0 32 39" fill="none" xmlns="http://www.w3.org/2000/svg">
<path d="M0.874 0.889999V2.98C5.434 3.322 8.474 10.276 8.474 19.7C8.474 29.124 5.434 36.078 0.874 36.42V38.51C6.878 38.244 10.944 30.378 10.944 19.7C10.944 9.06 6.878 1.156 0.874 0.889999ZM22.9917 20.912C27.8937 20.912 31.8837 16.922 31.8837 12.02C31.8837 7.118 27.8937 3.128 22.9917 3.128C18.0897 3.128 14.0997 7.118 14.0997 12.02C14.0997 16.922 18.0897 20.912 22.9917 20.912ZM22.9917 19.772C18.7281 19.772 15.2853 16.2836 15.2853 12.02C15.2853 7.7564 18.7281 4.268 22.9917 4.268C27.2553 4.268 30.6981 7.7564 30.6981 12.02C30.6981 16.2836 27.2553 19.772 22.9917 19.772ZM20.0277 16.1924H21.4185V12.8408H23.7897C24.6333 12.8408 25.0209 13.2056 25.0209 13.9352V16.1924H26.4117V13.958C26.4117 12.59 25.9329 12.1568 24.7929 12.134C25.7505 11.9972 26.5257 11.222 26.5257 9.968C26.5257 8.6228 25.5453 7.6196 23.7897 7.6196H20.0277V16.1924ZM21.4185 11.7464V8.7596H23.2197C24.4281 8.7596 25.1349 9.1016 25.1349 10.2872C25.1349 11.2676 24.3825 11.7464 23.2197 11.7464H21.4185Z" fill="white"/>
</svg>
